STARTFONT 2.3
FONT -FontForge-Roboto-Book-I-Normal--32-320-72-72-P-176-ISO10646-1
SIZE 32 72 72  4
FONTBOUNDINGBOX 60 42 -23 -8
COMMENT "Generated by fontforge, http://fontforge.sourceforge.net"
COMMENT "Copyright 2011 Google Inc. All Rights Reserved."
STARTPROPERTIES 43
FOUNDRY "FontForge"
FAMILY_NAME "Roboto"
WEIGHT_NAME "Book"
SLANT "I"
SETWIDTH_NAME "Normal"
ADD_STYLE_NAME ""
PIXEL_SIZE 32
POINT_SIZE 320
RESOLUTION_X 72
RESOLUTION_Y 72
SPACING "P"
AVERAGE_WIDTH 176
CHARSET_REGISTRY "ISO10646"
CHARSET_ENCODING "1"
FONTNAME_REGISTRY ""
CHARSET_COLLECTIONS "ISO8859-2 ISO8859-5 ISO8859-7 ISO8859-9 ISO8859-4 ISO10646-1"
BITS_PER_PIXEL 4
FONT_NAME "Roboto-Italic"
FACE_NAME "Roboto Italic"
COPYRIGHT "Copyright 2011 Google Inc. All Rights Reserved."
FONT_VERSION "2.137; 2017"
FONT_ASCENT 24
FONT_DESCENT 8
UNDERLINE_POSITION -3
UNDERLINE_THICKNESS 2
X_HEIGHT 16
CAP_HEIGHT 22
DEFAULT_CHAR 1
RAW_ASCENT 750
RAW_DESCENT 250
ITALIC_ANGLE 4992
NORM_SPACE 8
RELATIVE_WEIGHT 40
RELATIVE_SETWIDTH 50
SUPERSCRIPT_X 0
SUPERSCRIPT_Y 15
SUPERSCRIPT_SIZE 20
SUBSCRIPT_X 0
SUBSCRIPT_Y 4
SUBSCRIPT_SIZE 20
FIGURE_WIDTH 18
AVG_LOWERCASE_WIDTH 171
AVG_UPPERCASE_WIDTH 206
ENDPROPERTIES
CHARS 1296
STARTCHAR glyph1.dup1
ENCODING 0
SWIDTH 0 0
DWIDTH 0 0
BBX 1 1 0 0
BITMAP
00
ENDCHAR
STARTCHAR uni0002
ENCODING 2
SWIDTH 0 0
DWIDTH 0 0
BBX 1 1 0 0
BITMAP
00
ENDCHAR
STARTCHAR uni000D
ENCODING 13
SWIDTH 245 0
DWIDTH 8 0
BBX 1 1 0 0
BITMAP
00
ENDCHAR
STARTCHAR space
ENCODING 32
SWIDTH 245 0
DWIDTH 8 0
BBX 1 1 0 0
BITMAP
00
ENDCHAR
STARTCHAR exclam
ENCODING 33
SWIDTH 254 0
DWIDTH 8 0
BBX 7 23 1 0
BITMAP
0004FFB0
0006FF80
0009FF50
000BFF20
000EFE00
001FFB00
003FF900
006FF600
008FF300
00BFF000
00DFC000
01FF9000
03FF6000
06FF4000
08FF1000
0BFD0000
00000000
00000000
00000000
04200000
AFF20000
EFF50000
7EB10000
ENDCHAR
STARTCHAR quotedbl
ENCODING 34
SWIDTH 314 0
DWIDTH 10 0
BBX 8 8 3 16
BITMAP
0AE609E7
0DF40CF6
0FF20EF3
3FD01FE0
5FA04FB0
7F606F80
AF308F40
CE00AF10
ENDCHAR
STARTCHAR numbersign
ENCODING 35
SWIDTH 602 0
DWIDTH 19 0
BBX 19 23 1 0
BITMAP
0000000006FD0003FF10
000000000CF70009FA00
000000003FF1001EF400
000000009FA0006FD000
00000001EF4000CF7000
00000006FD0003FF1000
000EFFFFFFFFFFFFFFD0
002FFFFFFFFFFFFFFFA0
0013339FC3337FE33310
000000CF7000AF900000
000002FF2001EF400000
000008FB0005FE000000
00000DF6000AF9000000
00003FF1001FF4000000
6FFFFFFFFFFFFFFF5000
9FFFFFFFFFFFFFFF3000
1226FF3223FF42220000
0009FA0006FD00000000
000EF5000BF800000000
004FE1002FF300000000
009FA0007FC000000000
00EF5000CF7000000000
04FE0002FF2000000000
ENDCHAR
STARTCHAR dollar
ENCODING 36
SWIDTH 549 0
DWIDTH 18 0
BBX 16 30 1 -3
BITMAP
0000000002660000
0000000007FC0000
000000000AFA0000
000000000CF70000
0000004ADFFE9100
00001AFFFFFFFE20
0000BFFEA79EFFC0
0006FFD20002EFF4
000DFF3000007FF8
001FFC0000003FFA
003FF90000001FFB
002FFC0000000443
000EFF4000000000
0007FFF810000000
0000BFFFE9200000
000008FFFFF91000
00000029EFFFB100
0000000018FFF900
00000000004FFF10
00000000000AFF40
9EE200000008FF50
AFF30000000AFF30
7FF70000002EFE00
3FFE200002CFF800
0AFFE977AFFFC100
01CFFFFFFFFB1000
0007CFFFDA400000
00000BF800000000
00000EF500000000
00002FF200000000
ENDCHAR
STARTCHAR percent
ENCODING 37
SWIDTH 715 0
DWIDTH 23 0
BBX 18 23 3 0
BITMAP
003BEEB30000000000
05FFFEFF4000000000
2EF8009FC000008800
8FB0001FF20005FE20
BF60000EF3002EF500
DF30000EF201CF8000
EF30002FF109FC0000
DF50007FC06FE20000
8FC105EF53FF400000
1DFFEFF91DF7000000
02AEFC60BFB0000000
00000007FD10000000
0000004FF307DFD810
000002EF61CFFEFFB0
00000CF908FD302EF5
00008FC11EF40008FA
0005FE204FE00006FB
002EF5006FB00007FA
01DF80006FB00009F8
09FB00005FC0001DF5
03C200001FF601AFD0
0000000007FFEFFE30
00000000005CFEA200
ENDCHAR
STARTCHAR ampersand
ENCODING 38
SWIDTH 607 0
DWIDTH 19 0
BBX 17 23 1 0
BITMAP
0000003ADFEB400000
000006FFFFFFF60000
00004FFFA68EFF2000
0000CFF50005FF7000
0002FFB00002FF8000
0004FF700005FF5000
0004FF80001DFE1000
0001FFD003DFF50000
0000BFF68FFF600000
00003FFFFFD4000000
00001DFFF910000000
0004DFFFF400000000
006FFFAFFD10004990
06FFE508FF9000AFE0
2FFF4001DFF401EFA0
9FF700004FFD16FF50
CFF1000009FFAEFD00
DFE0000001DFFFF500
CFF20000005FFF9000
7FFB000002BFFF9000
1DFFD757AFFFFFF300
02CFFFFFFFF95FFC00
0006BEFEC8200BFF60
ENDCHAR
STARTCHAR quotesingle
ENCODING 39
SWIDTH 173 0
DWIDTH 6 0
BBX 5 7 2 17
BITMAP
03FF10
06FD00
09FA00
0BF700
0EF300
1FF000
4FC000
ENDCHAR
STARTCHAR parenleft
ENCODING 40
SWIDTH 336 0
DWIDTH 11 0
BBX 12 33 1 -7
BITMAP
0000000003B1
000000006FF4
00000007FFA1
0000006FF900
000004FFB000
00001DFD1000
00008FF40000
0002FFB00000
0009FF300000
001EFC000000
005FF6000000
00BFF1000000
01FFC0000000
05FF80000000
08FF50000000
0BFF20000000
0EFE00000000
0FFC00000000
1FFB00000000
2FFA00000000
2FF900000000
2FF800000000
1FF900000000
0EFA00000000
0CFB00000000
09FE00000000
04FF20000000
00EF60000000
008FC0000000
001EF5000000
0006FE200000
00009FA00000
000008400000
ENDCHAR
STARTCHAR parenright
ENCODING 41
SWIDTH 342 0
DWIDTH 11 0
BBX 11 33 -2 -7
BITMAP
000008300000
00001FE40000
000008FD1000
000000CF9000
0000004FF200
0000000DF900
00000009FD00
00000005FF30
00000002FF60
00000001FF80
00000000FFA0
00000000EFB0
00000000FFC0
00000000FFC0
00000001FFB0
00000003FFA0
00000005FF80
00000007FF50
0000000AFF20
0000000EFE00
0000002FFA00
0000007FF500
000000CFE100
000002FF9000
000009FF3000
00002FFB0000
0000AFF30000
0004FF800000
002EFC100000
01CFE2000000
2CFE30000000
AFC200000000
681000000000
ENDCHAR
STARTCHAR asterisk
ENCODING 42
SWIDTH 422 0
DWIDTH 14 0
BBX 14 13 1 10
BITMAP
0000003FF20000
0000005FE00000
0000007FB00000
0100009F700030
09D820CF438DE0
1FFFFAEFDFFFF1
15AEFFFFFFD940
00017FFF920000
0001DFEFC00000
001CFC2FF50000
01CFE20AFC0000
08FF4003FF5000
00960000B80000
ENDCHAR
STARTCHAR plus
ENCODING 43
SWIDTH 554 0
DWIDTH 18 0
BBX 16 17 1 2
BITMAP
00000001AA700000
00000003FF900000
00000006FF700000
00000009FF400000
0000000BFF100000
0000000EFE000000
0000002FFB000000
6FFFFFFFFFFFFFFB
9FFFFFFFFFFFFFF8
8BBBBBEFFCBBBBB4
000000CFF1000000
000000EFD0000000
000002FFB0000000
000005FF80000000
000007FF50000000
00000AFF30000000
00000BEE00000000
ENDCHAR
STARTCHAR comma
ENCODING 44
SWIDTH 195 0
DWIDTH 6 0
BBX 6 9 -2 -5
BITMAP
001664
004FF8
006FF6
009FF2
00EFE0
05FF80
1DFE10
8FF500
1B6000
ENDCHAR
STARTCHAR hyphen
ENCODING 45
SWIDTH 272 0
DWIDTH 9 0
BBX 9 3 0 8
BITMAP
4FFFFFFF20
7FFFFFFE00
3555555500
ENDCHAR
STARTCHAR period
ENCODING 46
SWIDTH 260 0
DWIDTH 8 0
BBX 5 4 0 0
BITMAP
027300
1EFF20
2FFF40
09E900
ENDCHAR
STARTCHAR slash
ENCODING 47
SWIDTH 404 0
DWIDTH 13 0
BBX 17 25 -2 -2
BITMAP
00000000000008FE10
0000000000002FF700
0000000000009FD100
000000000003FF6000
00000000000AFD0000
00000000004FF50000
0000000000CFC00000
0000000005FF400000
000000000DFA000000
000000006FF3000000
00000001DF90000000
00000007FF20000000
0000001EF800000000
0000008FE100000000
000002FF7000000000
00000AFD0000000000
00003FF60000000000
0000BFC00000000000
0004FF500000000000
000CFB000000000000
005FF3000000000000
00DFA0000000000000
06FF20000000000000
1EF900000000000000
7FE200000000000000
ENDCHAR
STARTCHAR zero
ENCODING 48
SWIDTH 549 0
DWIDTH 18 0
BBX 16 23 1 0
BITMAP
0000005ADFEC6000
00001BFFFFFFFB10
0000CFFD868DFF80
0008FFA00001EFF1
001FFD0000007FF5
008FF50000004FF7
00DFE00000003FF8
02FFA00000003FF8
05FF700000004FF7
08FF400000006FF6
0AFF200000008FF4
0DFF00000000BFF2
0FFD00000000DFE0
2FFA00000000FFC0
3FF900000003FF90
4FF800000006FF60
3FF70000000AFF10
2FF90000001FFB00
0FFC0000009FF500
0AFF500006FFC000
03FFF966BFFE2000
007FFFFFFFD30000
0004AEFEB7000000
ENDCHAR
STARTCHAR one
ENCODING 49
SWIDTH 549 0
DWIDTH 18 0
BBX 10 23 4 0
BITMAP
00000038D3
00027CFFF1
16BFFFFFD0
BFFFFCFFB0
DFD723FF80
830006FF60
000008FF30
00000BFF10
00000EFD00
00001FFB00
00004FF800
00006FF600
00009FF300
0000CFF100
0000EFD000
0002FFB000
0004FF8000
0007FF5000
0009FF3000
000CFF1000
000FFD0000
002FFA0000
005FF80000
ENDCHAR
STARTCHAR two
ENCODING 50
SWIDTH 549 0
DWIDTH 18 0
BBX 17 23 0 0
BITMAP
00000027CEFEA50000
000006EFFFFFFFA100
00007FFFA669FFF900
0004FFE300003FFF20
000CFF30000009FF60
002FFB00000007FF70
006FF600000008FF50
0000000000000CFF10
0000000000004FFA00
000000000001DFF200
00000000000BFF7000
0000000000AFF90000
000000000BFFB00000
00000001BFFB000000
0000001BFFA0000000
000001CFFA00000000
00001CFF9000000000
0001CFF80000000000
001CFF700000000000
02DFF7000000000000
2DFFB5555555555100
6FFFFFFFFFFFFFF100
8FFFFFFFFFFFFFE000
ENDCHAR
STARTCHAR three
ENCODING 51
SWIDTH 549 0
DWIDTH 18 0
BBX 16 23 1 0
BITMAP
0000018CEFDA4000
00006EFFFFFFF800
0007FFFA669FFF70
003FFE300003FFE0
00AFF6000000AFF3
00EFE00000008FF4
0044300000009FF3
000000000001EFE0
00000000000AFF60
0000000015CFF800
000009FFFFFD5000
00000BFFFFF91000
000005669DFFC000
0000000001AFF700
00000000001FFC00
00000000000DFE00
55400000000DFE00
FFC00000001FFC00
DFF10000008FF700
8FFA000006FFD100
1EFFD867CFFE4000
03DFFFFFFFD30000
0017CEFEB6100000
ENDCHAR
STARTCHAR four
ENCODING 52
SWIDTH 549 0
DWIDTH 18 0
BBX 17 23 0 0
BITMAP
0000000000007FFE00
000000000005FFFB00
00000000002EFFF800
0000000001DFFFF600
000000000BFFBFF300
000000008FF6BFF100
00000005FF90DFD000
0000003EFC01FFA000
000001DFE204FF8000
00000BFF3007FF5000
00008FF60009FF3000
0006FF90000CFF0000
003FFC00000FFC0000
01DFE100003FFA0000
0BFF3000005FF70000
8FFFFFFFFFFFFFFF50
CFFFFFFFFFFFFFFF30
5555555555EFE55500
0000000001FFC00000
0000000003FFA00000
0000000006FF700000
0000000008FF500000
000000000BFF200000
ENDCHAR
STARTCHAR five
ENCODING 53
SWIDTH 549 0
DWIDTH 18 0
BBX 17 23 1 0
BITMAP
00000CFFFFFFFFFF90
00001FFFFFFFFFFF60
00005FFBAAAAAAAA30
00009FF10000000000
0000CFC00000000000
0001FF800000000000
0005FF400000000000
0009FE000000000000
000DFB7CEFD8100000
001FFFFFFFFFE20000
005FFFEA9CFFFD0000
004AE700004EFF6000
000000000006FFA000
000000000001FFD000
000000000000EFD000
000000000000FFD000
155200000002FFA000
2FF900000007FF7000
0EFD0000001EFF2000
09FF800001CFF80000
02EFFB768EFFB00000
003EFFFFFFFA100000
00018CEFDA40000000
ENDCHAR
STARTCHAR six
ENCODING 54
SWIDTH 549 0
DWIDTH 18 0
BBX 15 23 1 0
BITMAP
00000000059CED00
00000006DFFFFC00
000001BFFFEA8500
00001CFFD5000000
0000BFFA10000000
0006FFB000000000
001EFE1000000000
006FF60000000000
00CFE16CEEC71000
02FFBDFFFFFFC100
06FFFFE868EFFA00
09FFF800002EFF30
0CFF80000007FF70
0FFD00000003FFA0
1FFB00000002FFA0
2FFA00000002FFA0
1FFB00000005FF70
0EFD0000000AFF30
0BFF3000003FFC00
05FFB00003DFF400
00BFFD769FFF8000
001CFFFFFFF70000
00007CEFD9200000
ENDCHAR
STARTCHAR seven
ENCODING 55
SWIDTH 549 0
DWIDTH 18 0
BBX 17 23 2 0
BITMAP
0CFFFFFFFFFFFFFF20
0FFFFFFFFFFFFFFE00
166666666666AFF700
000000000001DFD000
000000000008FF5000
00000000002FFB0000
0000000000BFF30000
0000000005FF900000
000000000DFE100000
000000008FF6000000
00000002FFC0000000
0000000AFF40000000
0000004FFA00000000
000000DFE200000000
000007FF7000000000
00002EFD1000000000
0000AFF50000000000
0004FFB00000000000
000DFF300000000000
007FF9000000000000
02EFE1000000000000
0AFF60000000000000
4FFC00000000000000
ENDCHAR
STARTCHAR eight
ENCODING 56
SWIDTH 549 0
DWIDTH 18 0
BBX 16 23 1 0
BITMAP
0000005ADFEC7100
00001BFFFFFFFD20
0001CFFE868DFFC0
0008FFC10001DFF5
000EFE2000006FF8
003FFA0000004FF9
005FF70000005FF8
005FF80000009FF4
001FFD000004FFB0
0009FFB3027FFC10
0001BFFFFFFFA100
0002BFFFFFFC1000
006FFE866AFFD100
06FFB100006FFA00
2FFD1000000CFF10
7FF600000008FF30
BFF200000008FF40
BFF10000000CFF10
AFF40000004FFC00
5FFC100003EFF500
0CFFD756AFFF9000
01CFFFFFFFF70000
0006BEFEC8200000
ENDCHAR
STARTCHAR nine
ENCODING 57
SWIDTH 549 0
DWIDTH 18 0
BBX 15 23 2 0
BITMAP
000018CEFD810000
0004EFFFFFFE3000
004FFFB77CFFD100
02EFE500009FF700
09FF6000001FFD00
1EFC0000000BFF10
4FF800000009FF30
7FF500000008FF30
8FF500000009FF30
7FF50000000BFF10
5FF90000006FFE00
1EFF300007FFFC00
08FFE968DFEFF800
00BFFFFFFC8FF500
0006CEEB60BFE100
0000000003FF9000
000000000BFF3000
000000006FFA0000
00000005FFE10000
0000029FFE300000
0379CFFFD3000000
09FFFFF910000000
0AEDB62000000000
ENDCHAR
STARTCHAR colon
ENCODING 58
SWIDTH 239 0
DWIDTH 8 0
BBX 7 17 0 0
BITMAP
0005EC20
000DFF70
000BFF50
00016400
00000000
00000000
00000000
00000000
00000000
00000000
00000000
00000000
00000000
03720000
2FFE1000
4FFF1000
0BE80000
ENDCHAR
STARTCHAR semicolon
ENCODING 59
SWIDTH 209 0
DWIDTH 7 0
BBX 9 22 -2 -5
BITMAP
00000AE900
00003FFF20
00002FFE10
0000036200
0000000000
0000000000
0000000000
0000000000
0000000000
0000000000
0000000000
0000000000
0000000000
0006650000
001FFB0000
004FF80000
007FF50000
00BFF20000
03FFA00000
0BFF300000
5FF7000000
0980000000
ENDCHAR
STARTCHAR less
ENCODING 60
SWIDTH 498 0
DWIDTH 16 0
BBX 14 14 1 3
BITMAP
00000000000169
00000000028EF9
00000003AFFFF6
000005CFFFFD71
0017DFFFFA4000
29FFFFD7100000
AFFE9400000000
DFFB3000000000
6DFFFB50000000
006DFFFD610000
00007EFFFE8200
0000017EFFFD00
000000018EFA00
00000000018700
ENDCHAR
STARTCHAR equal
ENCODING 61
SWIDTH 537 0
DWIDTH 17 0
BBX 15 10 1 6
BITMAP
00CFFFFFFFFFFFD0
00EFFFFFFFFFFFB0
0188888888888840
0000000000000000
0000000000000000
0000000000000000
0000000000000000
0EFFFFFFFFFFFC00
1FFFFFFFFFFFF900
2888888888888300
ENDCHAR
STARTCHAR greater
ENCODING 62
SWIDTH 511 0
DWIDTH 16 0
BBX 15 14 1 3
BITMAP
0097100000000000
00EFE71000000000
01FFFFE710000000
0028EFFFE7100000
000006CFFFE81000
00000004AFFFE810
00000000028FFF30
0000000028DFFF00
0000016CFFFFB400
0004AEFFFE820000
27DFFFFC61000000
AFFFFA3000000000
CFD7100000000000
B500000000000000
ENDCHAR
STARTCHAR question
ENCODING 63
SWIDTH 462 0
DWIDTH 15 0
BBX 13 23 2 0
BITMAP
00017CEFDA3000
003DFFFFFFF600
03EFFD99CFFF30
0CFF90000AFF90
3FFC000003FFB0
4AA5000002FFB0
0000000005FF80
000000000CFF30
00000000AFFA00
0000001BFFC100
000001CFFC1000
00001DFFB10000
0000AFF9000000
0004FFB0000000
000AFF30000000
000DFD00000000
00000000000000
00000000000000
00000000000000
00141000000000
00CFE100000000
01FFF300000000
009EA000000000
ENDCHAR
STARTCHAR at
ENCODING 64
SWIDTH 875 0
DWIDTH 28 0
BBX 26 29 1 -7
BITMAP
000000000015ACEFEDA5000000
0000000018EFFFFFFFFFD40000
00000004EFFC7421247DFF7000
0000007FFC40000000007FF500
000008FF80000000000005FE10
00006FF600000000000000AF70
0002EF70000000000000003FC0
000BFB0000029DFEA400000EF1
005FE200005EFFFFFFA0000AF4
00CF700005FFB3019FB00009F6
04FE10002EFA0000BF700008F6
0BF90000AFD10000EF300009F6
1FF40002FF500004FE00000AF5
5FE00008FE000008FB00000CF3
8FB0000DFA00000DF700000EF0
BF80001FF600002FF300004FB0
CF60004FF300006FE000009F60
DF50005FF20000CFC00001EE10
DF50004FF40009FFB0000AF700
DF60001FFD44BFCFE101AFC000
BF70000AFFFFF62FFEDFFB1000
8FB000019EEB3004CEEC600000
4FF10000000000000000000000
0DF70000000000000000000000
06FE2000000000000000000000
00BFD300000000000000000000
001CFFA4100148D60000000000
00008FFFFFFFFFF70000000000
0000027BEFFEC8300000000000
ENDCHAR
STARTCHAR A
ENCODING 65
SWIDTH 637 0
DWIDTH 20 0
BBX 21 23 -2 0
BITMAP
0000000000003FFC000000
000000000000BFFE000000
000000000004FFFF200000
00000000000CFFFF500000
00000000005FF8FF800000
0000000000DFD1CFB00000
0000000006FF609FE00000
000000001DFC007FF20000
000000007FF4004FF50000
00000001EFB0001FF80000
00000008FF30000DFB0000
0000002FFA00000BFE0000
0000009FF2000008FF2000
000003FF80000005FF5000
00000BFFFFFFFFFFFF8000
00004FFFFFFFFFFFFFB000
0000CFE777777777DFE000
0005FF70000000009FF100
000DFE10000000007FF400
006FF800000000004FF700
00DFF100000000002FFA00
07FF9000000000000EFD00
1EFF2000000000000CFF10
ENDCHAR
STARTCHAR B
ENCODING 66
SWIDTH 608 0
DWIDTH 19 0
BBX 18 23 1 0
BITMAP
0003FFFFFFFEC93000
0006FFFFFFFFFFF900
0008FFA77778CFFF70
000BFF30000005FFE0
000EFF10000000CFF3
001FFD00000000AFF4
004FFB00000000CFF3
006FF800000002FFE0
009FF60000001CFF60
00BFF3000026DFF900
00EFFFFFFFFFFE6000
02FFFFFFFFFFFA2000
04FFC666668CFFD100
07FF800000009FF800
09FF500000000EFE00
0CFF200000000CFF00
0EFF000000000DFF10
2FFC000000002FFD00
5FFA00000000AFF800
7FF700000019FFE200
AFF977777AEFFF5000
CFFFFFFFFFFFD40000
FFFFFFFFEDA5000000
ENDCHAR
STARTCHAR C
ENCODING 67
SWIDTH 636 0
DWIDTH 20 0
BBX 19 23 1 0
BITMAP
000000017BEFEC810000
0000007EFFFFFFFE5000
00001AFFFC878CFFF400
0000AFFD4000007FFD00
0007FFC10000000BFF50
001EFE2000000005FF90
008FF80000000002FFC0
00EFF100000000008870
04FFB000000000000000
07FF7000000000000000
0AFF4000000000000000
0DFF1000000000000000
0FFE0000000000000000
1FFD0000000000000000
1FFC0000000000000000
1FFC0000000000466100
0EFE0000000000DFF100
0BFF3000000006FFA000
06FF900000002EFF3000
01DFF6000003DFF80000
004FFFC878CFFFA00000
0005EFFFFFFFE7000000
000018CEFEB710000000
ENDCHAR
STARTCHAR D
ENCODING 68
SWIDTH 641 0
DWIDTH 21 0
BBX 19 23 1 0
BITMAP
0003FFFFFFEC93000000
0006FFFFFFFFFF900000
0008FFA7778BFFFB0000
000BFF3000003DFF8000
000EFF00000001EFF200
001FFD000000006FF800
004FFA000000001FFC00
006FF8000000000DFE00
009FF5000000000DFF10
00BFF3000000000DFF10
00EFF0000000000EFF00
02FFC0000000001FFD00
04FFA0000000003FFB00
07FF70000000006FF700
09FF5000000000AFF400
0CFF2000000002FFD000
0EFE000000000AFF7000
2FFC000000005FFD1000
5FF900000005FFF40000
7FF70000029FFF600000
AFF97778BFFFE6000000
CFFFFFFFFFFB30000000
FFFFFFEDB73000000000
ENDCHAR
STARTCHAR E
ENCODING 69
SWIDTH 556 0
DWIDTH 18 0
BBX 18 23 1 0
BITMAP
0003FFFFFFFFFFFFFA
0006FFFFFFFFFFFFF7
0008FFA77777777773
000BFF300000000000
000EFF100000000000
001FFD000000000000
004FFA000000000000
006FF8000000000000
009FF5000000000000
00BFF3000000000000
00EFFFFFFFFFFF9000
02FFFFFFFFFFFF6000
04FFC7777777772000
07FF80000000000000
09FF50000000000000
0CFF20000000000000
0EFF00000000000000
2FFC00000000000000
5FFA00000000000000
7FF700000000000000
AFF977777777772000
CFFFFFFFFFFFFF4000
FFFFFFFFFFFFFF1000
ENDCHAR
STARTCHAR F
ENCODING 70
SWIDTH 541 0
DWIDTH 17 0
BBX 18 23 1 0
BITMAP
0003FFFFFFFFFFFFF7
0006FFFFFFFFFFFFF4
0008FFA77777777771
000BFF300000000000
000EFF000000000000
001FFD000000000000
004FFA000000000000
006FF7000000000000
009FF4000000000000
00BFF2000000000000
00EFFFFFFFFFFF3000
02FFFFFFFFFFFF1000
04FFB7777777760000
07FF70000000000000
09FF40000000000000
0CFF20000000000000
0EFE00000000000000
2FFC00000000000000
5FF900000000000000
7FF700000000000000
AFF400000000000000
CFF200000000000000
FFE000000000000000
ENDCHAR
STARTCHAR G
ENCODING 71
SWIDTH 665 0
DWIDTH 21 0
BBX 18 23 2 0
BITMAP
00000027BEFEC82000
000008FFFFFFFFF700
0001BFFFC978CFFF70
000BFFD4000005FFF2
007FFD100000009FF9
01EFF3000000002FFD
07FF90000000000CDD
0DFF20000000000000
2FFC00000000000000
6FF800000000000000
9FF500000000000000
CFF300000000000000
EFF100000DFFFFFFF2
FFE000001FFFFFFFE0
FFE00000177778FFC0
EFF00000000005FFA0
CFF30000000008FF70
8FF7000000000BFF50
2FFE100000000EFF20
0AFFB1000002AFFE00
01DFFEA779CFFFF500
001CFFFFFFFFFC3000
00004ADFEDB8300000
ENDCHAR
STARTCHAR H
ENCODING 72
SWIDTH 696 0
DWIDTH 22 0
BBX 21 23 1 0
BITMAP
0003FFB00000000003FFC0
0006FF800000000005FF90
0008FF600000000008FF60
000BFF30000000000AFF40
000EFF10000000000DFF10
001FFD00000000001FFE00
004FFB00000000003FFB00
006FF800000000006FF900
009FF500000000008FF600
00BFF30000000000BFF300
00EFFFFFFFFFFFFFFFF100
02FFFFFFFFFFFFFFFFD000
04FFC77777777779FFB000
07FF800000000006FF8000
09FF500000000008FF6000
0CFF20000000000BFF3000
0EFF00000000000EFF0000
2FFC00000000001FFD0000
5FFA00000000004FFA0000
7FF700000000006FF80000
AFF400000000009FF50000
CFF20000000000CFF20000
FFE00000000000EFF00000
ENDCHAR
STARTCHAR I
ENCODING 73
SWIDTH 268 0
DWIDTH 9 0
BBX 7 23 1 0
BITMAP
0000FFE0
0002FFB0
0005FF90
0008FF60
000AFF40
000DFF10
000FFE00
003FFB00
006FF800
008FF600
00BFF300
00DFF100
01FFD000
03FFA000
06FF8000
09FF5000
0BFF3000
0EFF0000
1FFD0000
4FFA0000
6FF70000
9FF50000
CFF20000
ENDCHAR
STARTCHAR J
ENCODING 74
SWIDTH 540 0
DWIDTH 17 0
BBX 18 23 0 0
BITMAP
00000000000000DFF1
00000000000001FFE0
00000000000003FFB0
00000000000006FF80
00000000000008FF60
0000000000000BFF30
0000000000000EFF10
0000000000001FFD00
0000000000004FFB00
0000000000006FF800
0000000000009FF500
000000000000BFF300
000000000000EFF000
000000000001FFD000
000000000004FFA000
000000000007FF8000
69920000000AFF5000
AFF40000000EFF1000
8FF80000007FFB0000
3FFE300006FFF30000
0BFFFA88CFFF600000
01BFFFFFFFE6000000
0005BEFEC810000000
ENDCHAR
STARTCHAR K
ENCODING 75
SWIDTH 612 0
DWIDTH 20 0
BBX 20 23 1 0
BITMAP
0003FFB000000002DFFB
0006FF800000003EFFA0
0008FF60000003EFFA00
000BFF3000003EFFA000
000EFF100004EFF90000
001FFD00004EFF900000
004FFA0004FFF9000000
006FF8005FFF80000000
009FF505FFF800000000
00BFF36FFF7000000000
00EFF6FFFD0000000000
02FFFFFFFF5000000000
04FFFFFAFFD000000000
07FFFE40DFF700000000
09FFE3004FFE10000000
0CFF30000BFF90000000
0EFE000003FFF2000000
2FFC0000009FFA000000
5FF90000001EFF400000
7FF700000007FFC00000
AFF400000001DFF50000
CFF2000000005FFD0000
FFE0000000000CFF7000
ENDCHAR
STARTCHAR L
ENCODING 76
SWIDTH 526 0
DWIDTH 17 0
BBX 14 23 1 0
BITMAP
0003FFB0000000
0006FF90000000
0008FF60000000
000BFF30000000
000EFF10000000
001FFD00000000
004FFB00000000
006FF800000000
009FF600000000
00BFF300000000
00EFF000000000
02FFD000000000
04FFA000000000
07FF8000000000
09FF5000000000
0CFF2000000000
0EFF0000000000
2FFC0000000000
5FFA0000000000
7FF70000000000
AFFA7777777775
CFFFFFFFFFFFF9
FFFFFFFFFFFFF6
ENDCHAR
STARTCHAR M
ENCODING 77
SWIDTH 851 0
DWIDTH 27 0
BBX 26 23 1 0
BITMAP
0003FFFA00000000000004FFFC
0006FFFD0000000000000CFFF9
0008FFFF2000000000006FFFF6
000BFFFF500000000001EFFFF4
000EFEFF800000000008FFFFF1
001FF9EFB0000000002EFDCFE0
004FF7BFE0000000009FF6EFB0
006FF58FF300000003FFC3FF90
009FF35FF60000000BFF46FF60
00BFF11FF90000004FFA09FF30
00EFE00DFC000000DFF20CFF10
02FFB00AFF100006FF800EFD00
04FF9007FF40001EFE103FFB00
07FF7003FF70008FF6006FF800
09FF5000FFA002EFD0008FF600
0CFF2000CFD00AFF5000BFF300
0EFF00009FF13FFB0000EFF000
2FFC00005FF4BFF30001FFD000
5FFA00002FFCFF900004FFA000
7FF700000EFFFE200006FF8000
AFF400000BFFF7000009FF5000
CFF2000007FFD100000BFF2000
FFE0000004FF6000000EFF0000
ENDCHAR
STARTCHAR N
ENCODING 78
SWIDTH 696 0
DWIDTH 22 0
BBX 21 23 1 0
BITMAP
0003FFE00000000002FFC0
0006FFF60000000005FF90
0008FFFD0000000007FF60
000BFFFF500000000AFF40
000EFFFFB00000000DFF10
001FFDDFF30000000FFE00
004FFB7FFA0000003FFB00
006FF81EFF2000005FF900
009FF508FF9000008FF600
00BFF302FFE10000AFF300
00EFF0009FF70000DFF100
02FFD0003FFE0001FFD000
04FFA0000BFF6003FFB000
07FF800004FFD006FF8000
09FF500000CFF508FF6000
0CFF2000005FFB0BFF3000
0EFF0000000DFF3EFF0000
2FFC00000007FFBFFD0000
5FFA00000001EFFFFA0000
7FF7000000008FFFF80000
AFF5000000002FFFF50000
CFF20000000009FFF20000
FFE00000000003FFF00000
ENDCHAR
STARTCHAR O
ENCODING 79
SWIDTH 671 0
DWIDTH 22 0
BBX 20 23 1 0
BITMAP
000000017BEFEC710000
0000006EFFFFFFFE4000
000009FFFDA9AEFFF400
00009FFE5000009FFD00
0005FFD20000000BFF60
001EFF3000000003FFB0
006FF90000000000EFE0
00DFF20000000000CFF1
03FFB00000000000BFF2
07FF700000000000CFF2
0AFF400000000000DFF1
0CFF100000000000FFE0
0EFE000000000002FFB0
0FFD000000000006FF80
1FFD00000000000AFF40
0EFE00000000001EFE00
0CFF10000000007FF800
09FF5000000002EFE200
04FFC00000001CFF7000
00BFFA100004DFFB0000
002EFFEA89CFFFB10000
0003DFFFFFFFF8000000
000016BDFEC720000000
ENDCHAR
STARTCHAR P
ENCODING 80
SWIDTH 616 0
DWIDTH 20 0
BBX 19 23 1 0
BITMAP
0003FFFFFFFFEB710000
0006FFFFFFFFFFFE5000
0008FFA777779DFFF500
000BFF300000008FFD00
000EFF100000000CFF40
001FFD0000000007FF70
004FFB0000000005FF80
006FF80000000007FF70
009FF6000000000BFF40
00BFF3000000003FFE10
00EFF100000002DFF800
02FFE00000037EFFC100
04FFFFFFFFFFFFFC1000
07FFFFFFFFFFFD600000
09FFA777776520000000
0CFF3000000000000000
0EFF1000000000000000
2FFD0000000000000000
5FFA0000000000000000
7FF70000000000000000
AFF50000000000000000
CFF20000000000000000
FFE00000000000000000
ENDCHAR
STARTCHAR Q
ENCODING 81
SWIDTH 671 0
DWIDTH 22 0
BBX 19 27 1 -4
BITMAP
000000028CEFDB600000
0000008FFFFFFFFD3000
00001BFFFDA9AEFFE200
0000BFFD400001AFFB00
0007FFC10000000CFF30
002FFE2000000005FF80
009FF70000000001FFC0
01EFE10000000000EFE0
05FF900000000000EFF0
09FF500000000000EFE0
0CFF200000000000FFE0
0EFE000000000002FFC0
1FFD000000000004FF90
2FFB000000000008FF60
2FFB00000000000CFF20
1FFC00000000002FFD00
0EFE00000000009FF600
0BFF4000000003FFE100
06FFB00000002DFF5000
01DFF9100004DFF80000
004FFFEA89DFFF700000
0004EFFFFFFFF7000000
000017CEEDDFFE400000
00000000001BFFE40000
000000000001BFFF4000
0000000000000AFA0000
00000000000000500000
ENDCHAR
STARTCHAR R
ENCODING 82
SWIDTH 602 0
DWIDTH 19 0
BBX 18 23 1 0
BITMAP
0003FFFFFFFEC94000
0006FFFFFFFFFFFA10
0009FFA77778BFFFB0
000BFF30000004EFF4
000EFF000000007FF9
001FFD000000003FFB
004FFA000000003FFB
006FF7000000006FF9
009FF500000000CFF4
00CFF20000000AFFC0
00EFE0000026DFFD20
02FFFFFFFFFFFFC100
04FFFFFFFFFFD50000
07FFA77778FFB00000
0AFF400000EFF10000
0CFF2000009FF70000
0FFE0000004FFC0000
2FFC0000000EFF2000
5FF900000009FF8000
7FF700000004FFD000
AFF400000000EFF300
DFF2000000009FF900
FFE0000000004FFE00
ENDCHAR
STARTCHAR S
ENCODING 83
SWIDTH 580 0
DWIDTH 19 0
BBX 19 23 0 0
BITMAP
000000038CEFDB500000
000002AFFFFFFFFD3000
00002DFFFB879DFFE200
0000CFFB2000009FFB00
0005FFC00000000DFF20
0009FF6000000009FF50
000BFF3000000007EE60
000AFF60000000000000
0006FFE3000000000000
0000CFFFA40000000000
00001CFFFFD820000000
0000007EFFFFF9100000
000000016BFFFFD20000
000000000028EFFC0000
0000000000003EFF5000
00000000000007FF9000
4EE90000000005FFA000
3FFC0000000007FF7000
0EFF200000001DFF4000
08FFD2000002CFFB0000
00BFFFB878BFFFD20000
0019FFFFFFFFFA100000
000038CEFEC830000000
ENDCHAR
STARTCHAR T
ENCODING 84
SWIDTH 583 0
DWIDTH 19 0
BBX 19 23 2 0
BITMAP
1FFFFFFFFFFFFFFFFF10
3FFFFFFFFFFFFFFFFD00
2777777AFFC777777500
00000007FF7000000000
0000000AFF4000000000
0000000CFF2000000000
0000000FFE0000000000
0000002FFB0000000000
0000005FF90000000000
0000008FF60000000000
000000AFF40000000000
000000DFF10000000000
000000FFE00000000000
000003FFB00000000000
000005FF800000000000
000008FF600000000000
00000BFF300000000000
00000DFF100000000000
00001FFD000000000000
00003FFB000000000000
00006FF8000000000000
00008FF5000000000000
0000BFF3000000000000
ENDCHAR
STARTCHAR U
ENCODING 85
SWIDTH 633 0
DWIDTH 20 0
BBX 20 23 1 0
BITMAP
0009FF50000000008FF6
000BFF2000000000BFF4
000EFE0000000000DFF1
002FFC0000000001FFE0
004FF90000000003FFB0
007FF70000000006FF80
009FF40000000008FF60
00CFF2000000000BFF30
00EFE0000000000EFF10
02FFC0000000001FFD00
04FF90000000004FFB00
07FF70000000006FF800
0AFF40000000009FF500
0CFF1000000000BFF300
0FFE0000000000EFF000
2FFC0000000002FFD000
3FFB0000000006FF9000
2FFD000000000CFF4000
0DFF400000007FFC0000
07FFD2000008FFF30000
00CFFFA879EFFF500000
001BFFFFFFFFC3000000
00004ADFEDA500000000
ENDCHAR
STARTCHAR V
ENCODING 86
SWIDTH 622 0
DWIDTH 20 0
BBX 20 23 2 0
BITMAP
5FFB000000000001EFF4
2FFE000000000008FFB0
0EFF10000000001EFF40
0BFF40000000008FFB00
08FF6000000001EFF300
05FF9000000007FFB000
02FFC00000001EFF3000
00EFE00000007FFA0000
00BFF2000001EFF30000
008FF5000006FFA00000
005FF700000DFF200000
002FFA00006FFA000000
000EFD0000DFF2000000
000BFF0006FF90000000
0008FF300DFF20000000
0005FF505FF900000000
0002FF80DFF200000000
0000EFB5FF9000000000
0000BFDCFE1000000000
00008FFFF80000000000
00005FFFE10000000000
00002FFF800000000000
00000EFE100000000000
ENDCHAR
STARTCHAR W
ENCODING 87
SWIDTH 865 0
DWIDTH 28 0
BBX 26 23 3 0
BITMAP
EFE000000007FF500000003FFC
DFF00000000DFF600000008FF6
BFF10000004FFF80000000EFF1
AFF2000000BFFFA0000005FFA0
9FF3000002FFEFB000000AFF40
8FF4000009FFAFD000001FFD00
7FF500001EFA7FF000006FF700
6FF600006FF46FF10000CFF200
4FF70000DFC04FF30002FFB000
3FF80004FF602FF50008FF5000
2FF9000BFE000FF6000DFE0000
1FFA002FF8000EF8004FF80000
0FFB008FF1000CFA00AFF30000
0EFC01EFA0000AFB01FFC00000
0DFD06FF300008FD06FF600000
0BFE0CFC000007FF0BFE100000
0AFE4FF5000005FF2FF9000000
09FEAFD0000003FF8FF4000000
08FEEF70000001FFDFD0000000
07FFFE10000000FFFF70000000
06FFF900000000DFFF10000000
04FFF200000000BFFA00000000
03FFB0000000009FF500000000
ENDCHAR
STARTCHAR X
ENCODING 88
SWIDTH 612 0
DWIDTH 20 0
BBX 22 23 -1 0
BITMAP
00009FFA0000000005FFF4
00002FFF200000002EFF80
00000AFF90000000CFFB00
000003FFE1000009FFD100
000000BFF700005FFF4000
0000004FFE0002EFF70000
0000000CFF601CFFA00000
00000005FFC09FFD100000
00000000DFF9FFE3000000
000000007FFFFF60000000
000000001EFFF900000000
000000000DFFE100000000
000000009FFFF400000000
00000005FFFFFB00000000
0000003EFF7EFF30000000
000001DFFA09FFA0000000
00000AFFD102FFF2000000
00007FFE3000AFF8000000
0004FFF600003FFE100000
001DFF9000000CFF700000
00BFFC00000005FFE10000
08FFE200000000DFF60000
5FFF50000000006FFD0000
ENDCHAR
STARTCHAR Y
ENCODING 89
SWIDTH 587 0
DWIDTH 19 0
BBX 19 23 2 0
BITMAP
3FFE00000000002EFF60
0DFF4000000000BFFB00
07FF9000000006FFE200
02FFE00000002EFF5000
00CFF4000000BFF90000
006FF9000006FFD10000
001FFE00002EFF400000
000BFF4000BFF8000000
0005FF8006FFC0000000
0001EFD02EFF20000000
0000AFF3BFF600000000
00004FFDFFB000000000
00000EFFFE2000000000
000009FFF50000000000
000005FFA00000000000
000008FF600000000000
00000AFF400000000000
00000DFF100000000000
00001FFE000000000000
00003FFB000000000000
00006FF8000000000000
00008FF6000000000000
0000BFF3000000000000
ENDCHAR
STARTCHAR Z
ENCODING 90
SWIDTH 585 0
DWIDTH 19 0
BBX 21 23 -1 0
BITMAP
00004FFFFFFFFFFFFFFF20
00007FFFFFFFFFFFFFFE00
0000477777777778FFFA00
000000000000000AFFC100
000000000000008FFE2000
00000000000005FFF30000
0000000000003EFF500000
000000000002DFF8000000
00000000001CFFA0000000
0000000000AFFC10000000
0000000008FFE200000000
000000005FFF3000000000
00000003EFF50000000000
0000002DFF800000000000
000001CFFA000000000000
00000AFFC1000000000000
00007FFE20000000000000
0005FFF300000000000000
003EFF5000000000000000
02DFF80000000000000000
0CFFE77777777777710000
1FFFFFFFFFFFFFFFF00000
4FFFFFFFFFFFFFFFD00000
ENDCHAR
STARTCHAR bracketleft
ENCODING 91
SWIDTH 262 0
DWIDTH 8 0
BBX 11 31 0 -5
BITMAP
00004FFFFF70
00007FFFFF40
00009FF86610
0000BFF10000
0000EFE00000
0001FFC00000
0003FF900000
0006FF700000
0008FF500000
000AFF200000
000DFF000000
000FFD000000
002FFA000000
005FF8000000
007FF6000000
009FF3000000
00CFF1000000
00EFE0000000
01FFB0000000
03FF90000000
06FF70000000
08FF40000000
0BFF20000000
0DFF00000000
0FFC00000000
2FFA00000000
5FF800000000
7FF500000000
9FF866000000
CFFFFE000000
EFFFFC000000
ENDCHAR
STARTCHAR backslash
ENCODING 92
SWIDTH 402 0
DWIDTH 13 0
BBX 8 25 3 -2
BITMAP
EFA00000
BFD00000
8FF10000
5FF40000
2FF60000
0EF90000
0BFC0000
08FF1000
05FF3000
02FF6000
00EF9000
00BFC000
008FF000
005FF300
002FF600
000EF900
000BFC00
0008FF00
0005FF30
0002FF60
0000EF90
0000CFC0
00009FE0
00006FF3
00003FF6
ENDCHAR
STARTCHAR bracketright
ENCODING 93
SWIDTH 262 0
DWIDTH 8 0
BBX 11 31 -2 -5
BITMAP
00005FFFFF60
00008FFFFF40
0000466DFF10
0000000DFE00
0000001FFC00
0000003FF900
0000005FF700
0000008FF500
000000AFF200
000000CFF000
000000FFD000
000002FFA000
000004FF8000
000007FF6000
000009FF3000
00000BFF1000
00000EFE0000
00001FFB0000
00003FF90000
00006FF70000
00008FF40000
0000AFF20000
0000DFF00000
0000FFC00000
0002FFA00000
0005FF800000
0007FF500000
0009FF300000
466DFF100000
DFFFFD000000
FFFFFB000000
ENDCHAR
STARTCHAR asciicircum
ENCODING 94
SWIDTH 410 0
DWIDTH 13 0
BBX 12 11 1 12
BITMAP
0000008FC000
000002FFF100
00000BFFF400
00005FFFF700
0001DFCAFB00
0008FF37FE00
002FFA03FF30
00AFE100FF60
04FF7000CFA0
0DFD00009FD0
7FF400005FF2
ENDCHAR
STARTCHAR underscore
ENCODING 95
SWIDTH 442 0
DWIDTH 14 0
BBX 15 3 -2 -3
BITMAP
AFFFFFFFFFFFFF40
DFFFFFFFFFFFFF10
5555555555555500
ENDCHAR
STARTCHAR grave
ENCODING 96
SWIDTH 304 0
DWIDTH 10 0
BBX 6 5 3 19
BITMAP
6FFB00
0CFF30
03FFA0
008FF3
000CC5
ENDCHAR
STARTCHAR a
ENCODING 97
SWIDTH 532 0
DWIDTH 17 0
BBX 15 17 0 0
BITMAP
0000016BEFEB5000
00004EFFFFFFF900
0004FFFB769FFF60
001EFF500005FFC0
004FFA000000DFF0
000000000000DFF0
000000000000EFD0
000038BEFFFFFFA0
001AFFFFFFFFFF80
01DFFC631117FF50
09FF80000009FF30
0EFE0000000CFF00
1FFD0000004FFD00
0FFF400006FFFA00
0AFFFA89EFFFF900
01DFFFFFFD7FF900
0018DFEC703FFA00
ENDCHAR
STARTCHAR b
ENCODING 98
SWIDTH 549 0
DWIDTH 18 0
BBX 16 24 0 0
BITMAP
00006FF600000000
00009FF300000000
0000CFF000000000
0000EFC000000000
0002FFA000000000
0005FF7000000000
0007FF4000000000
000AFF13ADFEA300
000CFD8FFFFFFF40
000FFFFEA78DFFE1
003FFFB10000BFF7
005FFC1000003FFB
008FF50000000EFD
00AFF20000000DFE
00DFE00000000EFD
01FFC00000000FFC
03FF900000003FF9
06FF600000007FF6
08FF40000000DFF2
0BFF60000007FFA0
0EFFE300006FFF30
1FFFFFA78CFFF700
4FF7AFFFFFFF7000
6FF305BEFDA30000
ENDCHAR
STARTCHAR c
ENCODING 99
SWIDTH 512 0
DWIDTH 16 0
BBX 15 17 1 0
BITMAP
000006BEFEB50000
0002CFFFFFFFA000
002EFFC768EFF900
01DFF700001DFF20
07FF80000005FF60
0EFE10000002EE80
4FF9000000000000
7FF5000000000000
AFF2000000000000
AFF1000000000000
AFF1000000000000
9FF3000000177400
5FF70000007FF500
1EFE200005FFD000
06FFE967BFFE3000
008FFFFFFFD30000
0003ADFEB6000000
ENDCHAR
STARTCHAR d
ENCODING 100
SWIDTH 551 0
DWIDTH 18 0
BBX 17 24 1 0
BITMAP
00000000000001FFB0
00000000000004FF90
00000000000007FF60
0000000000000AFF30
0000000000000CFF10
0000000000000FFD00
0000000000003FFB00
000028DFEC705FF800
0005EFFFFFFC9FF500
004FFFD879EFFFF300
01EFF900001CFFF000
08FFA0000003FFD000
0EFF10000002FFA000
4FF900000005FF7000
7FF500000008FF5000
AFF20000000AFF2000
CFF10000000DFE0000
CFF10000001FFC0000
AFF20000004FF90000
8FF7000000AFF70000
3FFD100019FFF40000
0BFFE879EFFFF20000
02DFFFFFFABFE00000
0018DFEB50DFB00000
ENDCHAR
STARTCHAR e
ENCODING 101
SWIDTH 518 0
DWIDTH 17 0
BBX 15 17 1 0
BITMAP
000004AEFEB40000
0001AFFFFFFF9000
001DFFD768EFF600
00AFF800002EFD00
05FFA0000007FF30
0CFF20000004FF60
2FFA00000004FF70
5FFFFFFFFFFFFF60
8FFFFFFFFFFFFF50
AFF7555555555510
AFF2000000000000
8FF4000000000000
5FF9000000040000
0DFF5000008FB100
04FFFA668DFFA000
006FFFFFFFF80000
00029DEEC8300000
ENDCHAR
STARTCHAR f
ENCODING 102
SWIDTH 341 0
DWIDTH 11 0
BBX 13 24 1 0
BITMAP
00000017CEFD20
000002DFFFFF10
00001DFFE97800
00007FFC100000
0000CFF3000000
0000FFD0000000
0002FFB0000000
0DFFFFFFFF1000
1FFFFFFFFD0000
144BFF54430000
000CFF00000000
000EFD00000000
002FFA00000000
005FF700000000
007FF500000000
00AFF200000000
00DFF000000000
00FFC000000000
03FFA000000000
05FF7000000000
08FF4000000000
0BFF2000000000
0DFE0000000000
1FFC0000000000
ENDCHAR
STARTCHAR g
ENCODING 103
SWIDTH 549 0
DWIDTH 18 0
BBX 17 24 0 -7
BITMAP
0000018CEEC701FF80
00005EFFFFFFC6FF60
0004FFFD979EFFFF30
001EFF900001CFFF10
007FFA0000003FFD00
00EFF10000002FFB00
04FFA00000005FF800
07FF500000008FF600
0AFF30000000AFF300
0BFF10000000DFF100
0CFF10000001FFD000
0AFF30000003FFB000
08FF7000000AFF8000
03FFD200019FFF6000
00BFFE979EFFFF3000
002DFFFFFFADFF1000
00018DFEB50EFD0000
00000000003FFA0000
00000000009FF60000
1C20000002FFF10000
AFD200002DFF800000
5FFF966AFFFB000000
05EFFFFFFFA1000000
0028CEFDA300000000
ENDCHAR
STARTCHAR h
ENCODING 104
SWIDTH 539 0
DWIDTH 17 0
BBX 16 24 0 0
BITMAP
00006FF600000000
00009FF300000000
0000CFF000000000
0000EFD000000000
0002FFA000000000
0005FF7000000000
0007FF4000000000
000AFF128DFEB300
000CFE5EFFFFFF40
000FFEFFA78DFFD0
003FFFC20001EFF2
005FFD1000009FF4
008FF50000008FF4
00AFF2000000AFF3
00DFF0000000CFF0
01FFC0000000FFD0
03FF90000002FFA0
06FF70000005FF70
08FF40000007FF50
0BFF2000000AFF20
0EFE0000000CFF00
1FFB0000000FFC00
4FF90000003FFA00
6FF60000005FF700
ENDCHAR
STARTCHAR i
ENCODING 105
SWIDTH 240 0
DWIDTH 8 0
BBX 8 24 0 0
BITMAP
00000430
00008FF5
0000BFF7
00005EC2
00000000
00000000
00000000
0006FF60
0009FF30
000BFF10
000EFD00
002FFB00
004FF800
007FF500
009FF300
00CFF000
00EFD000
02FFA000
05FF7000
07FF5000
0AFF2000
0DFF0000
0FFC0000
3FFA0000
ENDCHAR
STARTCHAR j
ENCODING 106
SWIDTH 236 0
DWIDTH 8 0
BBX 12 31 -4 -7
BITMAP
000000001520
00000000BFF2
00000000EFF4
000000007EA0
000000000000
000000000000
000000000000
00000009FF40
0000000BFF10
0000000EFE00
0000001FFB00
0000004FF900
0000006FF600
0000009FF400
000000BFF100
000000EFE000
000001FFB000
000004FF9000
000006FF6000
000009FF4000
00000CFF1000
00000EFE0000
00002FFB0000
00004FF90000
00007FF60000
00009FF40000
0000DFF10000
0004FFC00000
489EFF600000
8FFFFB000000
7DFD70000000
ENDCHAR
STARTCHAR k
ENCODING 107
SWIDTH 496 0
DWIDTH 16 0
BBX 17 24 0 0
BITMAP
00006FF60000000000
00009FF40000000000
0000BFF10000000000
0000EFD00000000000
0002FFB00000000000
0004FF800000000000
0007FF500000000000
000AFF300001BFFC10
000CFF00001CFFB100
000FFD0002DFFA0000
002FFA003DFFA00000
005FF703EFF9000000
008FF54EFF80000000
00AFF6EFF700000000
00DFFEFFC000000000
00FFFFFFF500000000
03FFFE7FFD00000000
06FFD20BFF60000000
08FF4003FFE1000000
0BFF10009FF8000000
0DFE00001EFE200000
1FFB000007FF900000
4FF9000001DFF30000
6FF60000006FFB0000
ENDCHAR
STARTCHAR l
ENCODING 108
SWIDTH 240 0
DWIDTH 8 0
BBX 8 24 0 0
BITMAP
00003FF9
00006FF7
00008FF4
0000BFF2
0000DFE0
0001FFB0
0004FF90
0006FF60
0009FF40
000BFF10
000EFD00
002FFB00
004FF800
007FF600
009FF300
00CFF000
00EFD000
02FFA000
05FF8000
07FF5000
0AFF2000
0DFF0000
0FFC0000
3FFA0000
ENDCHAR
STARTCHAR m
ENCODING 109
SWIDTH 854 0
DWIDTH 27 0
BBX 26 17 0 0
BITMAP
000AFE039DFEB400039DFEA300
000DFC8FFFFFFF609FFFFFFF40
001FFFFE979EFFEAFE978DFFD0
003FFF900002FFFFC10001DFF3
006FFB000000AFFD1000008FF6
008FF50000009FF70000007FF5
00BFF2000000AFF30000008FF4
00DFE0000000CFF1000000BFF1
01FFC0000000FFD0000000EFE0
04FF90000003FFA0000001FFB0
06FF70000005FF80000004FF90
09FF40000008FF50000006FF60
0BFF1000000AFF30000009FF40
0EFE0000000DFF0000000BFF10
2FFB0000001FFC0000000EFE00
4FF80000003FFA0000001FFB00
7FF60000006FF70000004FF900
ENDCHAR
STARTCHAR n
ENCODING 110
SWIDTH 540 0
DWIDTH 17 0
BBX 16 17 0 0
BITMAP
000AFF028DEEB300
000DFD5EFFFFFF40
000FFEFFA78DFFD0
003FFFC20001EFF2
005FFD1000009FF4
008FF50000008FF4
00BFF2000000AFF3
00DFF0000000CFF0
01FFC0000000FFD0
03FF90000002FFA0
06FF70000005FF80
09FF40000007FF50
0BFF2000000AFF20
0EFE0000000CFF00
1FFB0000000FFC00
4FF90000003FFA00
6FF60000005FF700
ENDCHAR
STARTCHAR o
ENCODING 111
SWIDTH 558 0
DWIDTH 18 0
BBX 16 17 1 0
BITMAP
000005AEFEC70000
0001BFFFFFFFC100
002DFFD868DFFC00
00BFF900001BFF60
06FFA0000002FFD0
0DFE10000000BFF1
4FF9000000009FF4
7FF5000000008FF4
AFF2000000009FF3
BFF200000000CFF1
BFF200000001FFC0
8FF400000008FF70
5FF90000002EFE10
0DFF400003DFF500
05FFF966AFFF8000
006FFFFFFFF60000
00039DFEC8200000
ENDCHAR
STARTCHAR p
ENCODING 112
SWIDTH 549 0
DWIDTH 18 0
BBX 17 24 -1 -7
BITMAP
0000AFE03ADFEA2000
0000DFC8FFFFFFE400
0000FFFFE979EFFE10
0003FFFA10001DFF60
0005FFA0000005FFA0
0008FF50000001FFD0
000AFF20000000EFE0
000DFE00000000EFD0
000FFC00000001FFC0
003FF900000004FF90
005FF600000008FF60
008FF30000000EFF10
00AFF30000008FFA00
00DFFB100007FFE200
01FFFFD867CFFF6000
03FFABFFFFFFF60000
06FF706BEFDA300000
08FF40000000000000
0BFF20000000000000
0DFE00000000000000
1FFC00000000000000
3FF900000000000000
6FF700000000000000
8FF400000000000000
ENDCHAR
STARTCHAR q
ENCODING 113
SWIDTH 556 0
DWIDTH 18 0
BBX 16 24 1 -7
BITMAP
000017CEEC812FF8
0004EFFFFFFD8FF6
003FFFD867DFFFF3
01DFF900000AFFF1
07FFA0000001FFD0
0DFF20000002FFA0
4FFA00000004FF80
7FF600000007FF50
AFF30000000AFF30
BFF10000000DFF00
BFF20000001FFD00
AFF30000003FFA00
8FF70000008FF800
3FFE100007FFF500
0BFFD767CFFFF300
02DFFFFFFCDFF000
0018DFEB60EFC000
0000000002FFA000
0000000004FF7000
0000000007FF5000
000000000AFF2000
000000000CFF0000
000000000FFC0000
000000002FFA0000
ENDCHAR
STARTCHAR r
ENCODING 114
SWIDTH 333 0
DWIDTH 11 0
BBX 12 17 0 0
BITMAP
000AFF15BEE3
000DFD8FFFF2
000FFFFFECD1
003FFFD40000
005FFD100000
008FF5000000
00BFF2000000
00DFF0000000
01FFC0000000
03FF90000000
06FF70000000
09FF40000000
0BFF20000000
0EFE00000000
1FFB00000000
4FF900000000
6FF600000000
ENDCHAR
STARTCHAR s
ENCODING 115
SWIDTH 504 0
DWIDTH 16 0
BBX 15 17 0 0
BITMAP
0000039DEED82000
00009FFFFFFFE400
0009FFE977CFFE20
003FFD200009FF80
007FF6000002FFB0
006FF60000002220
003FFE7100000000
0007FFFFC8200000
00004CFFFFFA1000
00000026BFFFD100
0000000001BFF800
15530000002FFB00
2FFC0000003FFA00
0DFF500001BFF600
06FFFA768EFFC000
007FFFFFFFFB1000
00039DFEDA500000
ENDCHAR
STARTCHAR t
ENCODING 116
SWIDTH 321 0
DWIDTH 10 0
BBX 10 21 1 0
BITMAP
0000EFD000
0002FFA000
0005FF8000
0007FF5000
AFFFFFFFF3
CFFFFFFFF1
344FFD4430
003FFA0000
005FF70000
008FF50000
00AFF20000
00DFE00000
00FFC00000
03FF900000
05FF700000
08FF400000
0AFF200000
0BFF200000
09FFC87000
03FFFFA000
005DFE7000
ENDCHAR
STARTCHAR u
ENCODING 117
SWIDTH 539 0
DWIDTH 17 0
BBX 16 17 1 0
BITMAP
008FF40000007FF6
00BFF20000009FF3
00DFE0000000CFF1
01FFC0000000EFD0
03FF90000002FFA0
06FF60000005FF80
08FF40000008FF50
0BFF1000000AFF30
0EFE0000000DFF00
1FFB0000001FFC00
3FF90000003FFA00
5FF80000006FF700
5FF9000000CFF500
2FFD10001BFFF200
0DFFD88AEFFFE000
04FFFFFFFCEFC000
003AEFEB61FF9000
ENDCHAR
STARTCHAR v
ENCODING 118
SWIDTH 474 0
DWIDTH 15 0
BBX 15 17 1 0
BITMAP
3FF900000008FF70
0FFB0000001EFE10
0CFE0000007FF700
09FF100000DFE100
06FF300006FF7000
03FF60000DFE1000
00FF80005FF70000
00CFB000CFE10000
009FD004FF700000
007FF10BFE100000
004FF33FF7000000
001FF6AFE1000000
000DFAFF70000000
000AFFFE10000000
0007FFF700000000
0004FFE100000000
0001FF7000000000
ENDCHAR
STARTCHAR w
ENCODING 119
SWIDTH 733 0
DWIDTH 23 0
BBX 22 17 2 0
BITMAP
EFB0000008FF1000002FFB
DFC000001EFF3000009FF4
BFE000007FFF500001EFD0
9FF00000EFFF700006FF60
8FF10006FECF90000CFE00
6FF2000DF99FB0004FF700
5FF3005FF27FD000AFE100
3FF500CF905FE001FF9000
1FF604FF203FF107FF2000
0FF70CFA001FF30DFA0000
0DF84FF3000EF55FF30000
0CFABFB0000CF7BFB00000
0AFDFF40000AFBFF500000
08FFFC000008FFFD000000
07FFF5000006FFF6000000
05FFC0000004FFE0000000
03FF50000001FF70000000
ENDCHAR
STARTCHAR x
ENCODING 120
SWIDTH 485 0
DWIDTH 16 0
BBX 17 17 -1 0
BITMAP
000BFF5000002EFF60
0003FFC00000BFF900
0000BFF30008FFC000
00004FF9004FFE2000
00000CFE11EFF40000
000004FF7BFF700000
000000CFFFFA000000
0000005FFFC1000000
0000003FFF30000000
000001DFFF70000000
00000BFFEFE1000000
00008FFA5FF7000000
0005FFD10DFE100000
003EFE3007FF700000
01DFF60001EFE00000
0BFFA000009FF60000
8FFD1000002FFD0000
ENDCHAR
STARTCHAR y
ENCODING 121
SWIDTH 463 0
DWIDTH 15 0
BBX 18 24 -2 -7
BITMAP
0003FFB0000000AFF7
0001FFD0000002FFD0
0000DFF0000009FF60
0000AFF300002FFD00
00008FF500008FF600
00005FF70001EFD000
00002FF90008FF6000
00000FFC001EFD0000
00000CFE007FF60000
00000AFF10DFD00000
000007FF36FF600000
000004FF6DFD000000
000002FFCFF6000000
000000EFFFD0000000
000000BFFF60000000
0000009FFD00000000
0000007FF600000000
000000CFD000000000
000005FF5000000000
00001DFD0000000000
0001BFF50000000000
29AEFFA00000000000
4FFFFB100000000000
4EFD70000000000000
ENDCHAR
STARTCHAR z
ENCODING 122
SWIDTH 485 0
DWIDTH 16 0
BBX 17 17 -1 0
BITMAP
0005FFFFFFFFFFFF20
0007FFFFFFFFFFFE00
000466666667FFF800
00000000001CFFA000
0000000000BFFB0000
0000000009FFC10000
000000008FFD100000
00000006FFE2000000
0000005FFE30000000
000004FFF400000000
00003EFF6000000000
0002DFF70000000000
001DFF900000000000
00CFFA000000000000
0AFFE6555555551000
1FFFFFFFFFFFFF0000
3FFFFFFFFFFFFC0000
ENDCHAR
STARTCHAR braceleft
ENCODING 123
SWIDTH 333 0
DWIDTH 11 0
BBX 13 31 0 -6
BITMAP
00000000017D10
000000005EFF30
00000007FFC300
0000004FFC1000
000000CFF30000
000003FFB00000
000007FF700000
000009FF300000
00000BFF100000
00000DFE000000
00001FFC000000
00005FF8000000
0000DFF2000000
014CFF80000000
0EFFF700000000
1FFFC100000000
06CFF900000000
001DFF10000000
0009FF30000000
0009FF40000000
000AFF30000000
000BFF10000000
000DFE00000000
000FFC00000000
001FFB00000000
000FFB00000000
000CFE00000000
0007FF40000000
0001DFE3000000
00003DFE000000
00000199000000
ENDCHAR
STARTCHAR bar
ENCODING 124
SWIDTH 241 0
DWIDTH 8 0
BBX 7 27 0 -4
BITMAP
00005FE0
00008FC0
0000AF90
0000CF70
0000EF50
0002FF20
0004FF00
0007FD00
0009FA00
000BF800
000EF600
001FF300
003FF100
006FE000
008FB000
00AF9000
00DF7000
00FF4000
02FF2000
05FE0000
07FC0000
09FA0000
0CF80000
0EF50000
1FF30000
4FF10000
6FD00000
ENDCHAR
STARTCHAR braceright
ENCODING 125
SWIDTH 333 0
DWIDTH 11 0
BBX 12 31 -2 -6
BITMAP
00001C600000
00006FFA0000
000006FF9000
000000AFF200
0000005FF600
0000003FF800
0000003FF900
0000005FF700
0000007FF600
0000009FF400
000000AFF200
000000AFF200
0000008FF500
0000003FFD41
00000007FFF9
00000006EFF8
0000009FFC72
000006FFA000
00000DFE1000
00002FFB0000
00005FF70000
00007FF50000
00009FF30000
0000BFF10000
0000EFD00000
0004FF900000
000BFF300000
007FFA000000
19FFC1000000
BFFA10000000
7A4000000000
ENDCHAR
STARTCHAR asciitilde
ENCODING 126
SWIDTH 664 0
DWIDTH 21 0
BBX 19 7 1 6
BITMAP
0004BEEB400000007940
006FFFFFF8000001FF40
03FFE9AEFF900008FE10
0BFE2002DFFA217FF900
1FF700002DFFFFFFD100
4FE3000001BFFFFC2000
00000000000378500000
ENDCHAR
STARTCHAR uni00A0
ENCODING 160
SWIDTH 245 0
DWIDTH 8 0
BBX 1 1 0 0
BITMAP
00
ENDCHAR
STARTCHAR exclamdown
ENCODING 161
SWIDTH 241 0
DWIDTH 8 0
BBX 8 23 -1 -6
BITMAP
00005ED2
0000CFF7
00009FF4
00000420
00000000
00000000
00000000
0004FF40
0007FF20
000AFE00
000DFC00
001FF900
004FF700
007FF500
009FF200
00CFE000
00FFC000
03FFA000
06FF7000
09FF5000
0BFF2000
0EFF0000
2FFC0000
ENDCHAR
STARTCHAR cent
ENCODING 162
SWIDTH 535 0
DWIDTH 17 0
BBX 15 25 1 -4
BITMAP
0000000068810000
00000000DFE00000
00000001FFB00000
00000004FF800000
000004AEFFEA2000
0001BFFFFFFFE300
001DFFC635BFFD00
00BFF800000AFF60
05FFA0000002FFA0
0CFF20000000EFB0
1FFB000000000000
5FF7000000000000
7FF5000000000000
8FF3000000000000
8FF3000000000000
7FF5000000188500
4FF80000006FF700
1EFE200004EFE100
07FFD6459FFF4000
00AFFFFFFFD40000
0006CFFFB6100000
00004FF800000000
00007FF500000000
0000AFF200000000
00008A9000000000
ENDCHAR
STARTCHAR sterling
ENCODING 163
SWIDTH 568 0
DWIDTH 18 0
BBX 19 23 -1 0
BITMAP
00000000017CEFDA3000
000000004EFFFFFFF600
00000004FFFC88CFFF30
0000001EFF600009FFA0
0000008FFA000001FFE0
000000EFF2000000EFF0
000002FFD00000001110
000004FFA00000000000
000006FF800000000000
000008FF600000000000
00000AFF400000000000
003FFFFFFFFFE0000000
006FFFFFFFFFC0000000
00478FFE777750000000
00003FFB000000000000
00005FF9000000000000
00007FF7000000000000
0000AFF4000000000000
0000EFE0000000000000
0007FF70000000000000
058FFE66666667776000
0EFFFFFFFFFFFFFFB000
2FFFFFFFFFFFFFFF8000
ENDCHAR
STARTCHAR currency
ENCODING 164
SWIDTH 696 0
DWIDTH 22 0
BBX 23 21 0 0
BITMAP
000013000000000000003000
0001BD1016BEFEB61009F300
000BFFB6EFFFFFFFD4BFFD10
0004FFFFFFEBBDFFFFFFF700
00008FFFD500003CFFFE5000
00007FFB10000001CFF90000
0003FFC1000000003FFD0000
000BFF20000000000CFF1000
002FF9000000000008FF3000
008FF2000000000007FF3000
00BFE0000000000007FF3000
00DFB0000000000009FF0000
00DFB000000000000DFC0000
00DFD000000000004FF70000
00BFF10000000000CFE10000
008FF80000000008FF700000
005FFE300000007FFD000000
04EFFFE600003BFFFF400000
5FFFFFFFEBADFFFFFFE10000
3FFB2BFFFFFFFF92EFD20000
07A0004ADFEC82004C100000
ENDCHAR
STARTCHAR yen
ENCODING 165
SWIDTH 514 0
DWIDTH 16 0
BBX 18 23 1 0
BITMAP
03FFD000000004FFF3
00DFF20000000CFF70
008FF70000007FFB00
003FFB000002EFE200
000DFE00000BFF6000
0009FF40005FFB0000
0004FF8001DFE20000
0000EFC008FF500000
00009FF13FFA000000
00004FF6CFE1000000
00000EFEFF50000000
0EFFFFFFFFFFFB0000
1EEEEFFFFEEEE80000
000006FF8000000000
000009FF5000000000
00000BFF3000000000
BFFFFFFFFFFFE00000
CEEEEFFFEEEEB00000
00003FFB0000000000
00006FF80000000000
00009FF60000000000
0000BFF30000000000
0000EFF00000000000
ENDCHAR
STARTCHAR brokenbar
ENCODING 166
SWIDTH 237 0
DWIDTH 8 0
BBX 9 27 -1 -4
BITMAP
000008FF50
00000BFF20
00000DFE00
00001FFC00
00003FF900
00006FF700
00009FF400
0000BFF200
0000EFE000
0001FFB000
0004FF9000
0006FF6000
0000000000
0000000000
0000000000
001FFC0000
004FF90000
007FF60000
009FF30000
00CFF10000
00EFD00000
02FFA00000
05FF800000
08FF500000
0AFF200000
0DFE000000
1FFC000000
ENDCHAR
STARTCHAR section
ENCODING 167
SWIDTH 599 0
DWIDTH 19 0
BBX 20 31 -1 -8
BITMAP
0000000038CEFEC81000
0000001AFFFFFFFFE500
000001DFFFA767CFFF40
00000AFFB1000008FFC0
00002FFD10000000DFF2
00005FF8000000008FF4
00007FF7000000005BB3
00005FFC000000000000
00002FFFA10000000000
000008FFFEA500000000
000019FFFFFFE9300000
0002DFFC9EFFFFF91000
000CFF600049EFFFB000
005FFA00000017FFF700
008FF5000000006FFD00
009FF4000000000EFF00
007FFA000000000EFE00
002FFFA20000005FFA00
0006FFFFB61003EFF300
00005EFFFFFAAFFF6000
0000017DFFFFFFC30000
0000000038EFFFD10000
000000000007FFF70000
0000000000006FFB0000
4CC5000000001FFC0000
5FF8000000002FFB0000
2FFD000000009FF80000
0CFF90000008FFE20000
03FFFD8679EFFF500000
004EFFFFFFFFD4000000
00017BEFEDA610000000
ENDCHAR
STARTCHAR dieresis
ENCODING 168
SWIDTH 410 0
DWIDTH 13 0
BBX 11 4 3 20
BITMAP
034000004100
5FF7000CFE10
8FFA001FFF30
3DD40009EA00
ENDCHAR
STARTCHAR copyright
ENCODING 169
SWIDTH 767 0
DWIDTH 25 0
BBX 23 23 1 0
BITMAP
0000000016ADEFDA50000000
00000007EFFFEEFFFD400000
000002CFF9410004AFF60000
00003EFB2000000004EF5000
0002EF7000000000004FE100
000CF70006BEFD810008F700
006FA000AFFFFFFC1001ED00
00EE2009FE6115EF7000AF20
06F8002FF500009FB0007F50
0BF2007FC000004970005F60
0ED000AF8000000000005F60
2FA000CF6000000000006F50
3F8000EF4000000000009F30
3F9000EF400002990000EE00
1FB000CF800008FD0005F900
0EE0006FF6117FF7000CF300
09F4000BFFFFFFB0007FA000
04FB00007DFEC60004FE2000
00BF7000000000004EF40000
002EF70000000018FF500000
0003EFC5100038EFE4000000
00002BFFFEDEFFF910000000
00000049DEFEB72000000000
ENDCHAR
STARTCHAR ordfeminine
ENCODING 170
SWIDTH 438 0
DWIDTH 14 0
BBX 11 12 3 11
BITMAP
0028CEEC5000
02EFFFFFF500
08EE744CFD00
00000007FF10
00000007FF00
017CEFFFFD00
2DFFECCEFB00
9FF6000EF800
DFB0002FF600
CFD436EFF400
6FFFFFFFF300
06CFD94FF300
ENDCHAR
STARTCHAR guillemotleft
ENCODING 171
SWIDTH 459 0
DWIDTH 15 0
BBX 13 13 1 2
BITMAP
000009FC009FC0
00007FE207FE20
0004FF404FF400
003EF803EF8000
02DFB02DFB0000
1CFD11CFD10000
8FF408FF400000
2FF702FF700000
09FD009FD00000
01EF501EF50000
007FB007FB0000
001DF301DF3000
0006FA006FA000
ENDCHAR
STARTCHAR logicalnot
ENCODING 172
SWIDTH 541 0
DWIDTH 17 0
BBX 13 7 2 6
BITMAP
9FFFFFFFFFFFF0
CFFFFFFFFFFFC0
7888888889FFA0
0000000005FF70
0000000008FF50
000000000AFF30
000000000DFF00
ENDCHAR
STARTCHAR uni00AD
ENCODING 173
SWIDTH 272 0
DWIDTH 9 0
BBX 9 3 0 8
BITMAP
4FFFFFFF20
7FFFFFFE00
3555555500
ENDCHAR
STARTCHAR registered
ENCODING 174
SWIDTH 767 0
DWIDTH 25 0
BBX 23 23 1 0
BITMAP
0000000016ADFFDA50000000
00000007EFFFEEFFFD400000
000002CFE9410014AFF60000
00003EFA2000000005EF4000
0002EF7000000000004FE100
000CF700CFFFED810008F700
007FA000EFFFFFFD1001FD00
01EE1001FF1003CF8000AF20
06F80004FE00006FB0007F50
0BF20006FB00009F90005F60
0EC00009F90028FE30005F60
2FA0000BFFFFFFD400007F50
3F80000DFFFFFFC10000AF20
3F80001FF2003DF80000EE00
2FA0003FE00007FA0005F900
0EE0006FC00008F9000DF300
0AF4008FA00009F8007F9000
04FB00AF70000AF804FE1000
00BF7000000000004EF40000
002EF70000000018FF500000
0003EFC5100038EFE4000000
00002BFFFEDEFFF910000000
00000049DEFEB72000000000
ENDCHAR
STARTCHAR macron
ENCODING 175
SWIDTH 449 0
DWIDTH 14 0
BBX 11 3 4 20
BITMAP
DFFFFFFFFF50
FFFFFFFFFF30
444444444400
ENDCHAR
STARTCHAR degree
ENCODING 176
SWIDTH 367 0
DWIDTH 12 0
BBX 9 8 3 15
BITMAP
003BFE8000
04FFFFF900
0DF913EF20
3FC0009F50
4F9000BF40
2FE318FE00
09FFFFF500
008EFC4000
ENDCHAR
STARTCHAR plusminus
ENCODING 177
SWIDTH 522 0
DWIDTH 17 0
BBX 16 20 0 0
BITMAP
0000000017730000
000000003FF50000
000000006FF30000
000000008FF00000
00000000AFD00000
00000000DFB00000
00000000FF800000
00FFFFFFFFFFFFFE
02FFFFFFFFFFFFFB
0155555AFF655553
0000000AFE000000
0000000CFB000000
0000000EF9000000
0000002FF6000000
0000004FF4000000
0000004881000000
0000000000000000
0666666666666300
3FFFFFFFFFFFF700
5FFFFFFFFFFFF500
ENDCHAR
STARTCHAR uni00B2
ENCODING 178
SWIDTH 360 0
DWIDTH 12 0
BBX 11 13 1 10
BITMAP
00029EFD8100
003EFFFFFC00
00CFE405FF50
03FF5000FF70
01440004FF50
0000001DFE10
000001CFF400
00002DFF5000
0004EFE40000
005FFC200000
07FF90000000
4FFFFFFFFC00
7FFFFFFFF900
ENDCHAR
STARTCHAR uni00B3
ENCODING 179
SWIDTH 360 0
DWIDTH 12 0
BBX 11 13 1 10
BITMAP
0003ADED9200
005FFFFFFE20
00EFC314EF80
00441000EF80
00000029FE20
0000AFFFB200
0000ADFFC200
0000001CFA00
00000007FD00
3BB2000AFC00
1FFA118FF700
08FFFFFFC100
005CEFC70000
ENDCHAR
STARTCHAR acute
ENCODING 180
SWIDTH 309 0
DWIDTH 10 0
BBX 8 5 3 19
BITMAP
0006FFE3
004FFE30
02EFE400
1CFF4000
4BE50000
ENDCHAR
STARTCHAR mu
ENCODING 181
SWIDTH 554 0
DWIDTH 18 0
BBX 18 24 -1 -7
BITMAP
00007FF60000005FF7
00009FF30000008FF5
0000CFF1000000BFF2
0000EFD0000000DFE0
0002FFB0000001FFC0
0004FF80000004FF90
0007FF60000006FF70
0009FF30000009FF40
000CFF1000000CFF20
000EFD0000000EFE00
002FFC0000002FFB00
005FFB0000004FF900
007FFD0000009FF600
00AFFF300007FFF400
00CFFFE867CFFFF100
00FFFFFFFFFDCFE000
02FFA5BEFD81CFB000
05FF70000000000000
07FF50000000000000
0AFF20000000000000
0CFF00000000000000
0FFC00000000000000
3FFA00000000000000
5FF700000000000000
ENDCHAR
STARTCHAR paragraph
ENCODING 182
SWIDTH 479 0
DWIDTH 15 0
BBX 13 23 2 0
BITMAP
000016BDFFFFF0
0005EFFFFFFFD0
007FFFFFFFFFA0
05FFFFFFFFFF70
0DFFFFFFFFFF50
5FFFFFFFFFFF20
8FFFFFFFFFFF00
BFFFFFFFFFFC00
CFFFFFFFFFFA00
BFFFFFFFFFF700
8FFFFFFFFFF400
2FFFFFFFFFF200
07FFFFFFFFE000
006EFFFFFFC000
00016ABDFF9000
00000006FF7000
00000008FF4000
0000000BFF1000
0000000EFE0000
0000001FFB0000
0000004FF90000
0000006FF60000
0000009FF40000
ENDCHAR
STARTCHAR periodcentered
ENCODING 183
SWIDTH 257 0
DWIDTH 8 0
BBX 4 4 2 9
BITMAP
1BE8
5FFF
4FFD
0471
ENDCHAR
STARTCHAR cedilla
ENCODING 184
SWIDTH 245 0
DWIDTH 8 0
BBX 6 7 -1 -7
BITMAP
09F700
0EFF70
038FF1
000FF3
007FF1
9DFF60
CD9300
ENDCHAR
STARTCHAR uni00B9
ENCODING 185
SWIDTH 360 0
DWIDTH 12 0
BBX 7 13 3 10
BITMAP
00005A90
049EFF70
4FFFFF50
6D96FF30
0005FF00
0007FD00
000AFB00
000CF800
000FF600
002FF400
005FF100
007FE000
00AFC000
ENDCHAR
STARTCHAR ordmasculine
ENCODING 186
SWIDTH 445 0
DWIDTH 14 0
BBX 11 12 3 11
BITMAP
0006CEEC6000
01BFFFFFF800
09FFA44CFF30
2FF90001FF90
7FF10000CFB0
AFD00000CFB0
CFB00000EF90
CFB00002FF60
AFE0000AFF10
5FFB44AFF800
0AFFFFFFA000
006CFEC50000
ENDCHAR
STARTCHAR guillemotright
ENCODING 187
SWIDTH 459 0
DWIDTH 15 0
BBX 14 13 0 2
BITMAP
003FC000DF2000
000BF6007FA000
0005FD101EF300
0000DF7009FC00
00007FE102FF50
00001EF900BFD0
00000CFE008FF4
00008FF504FF90
0005FF702EFB00
002EF900CFC100
00CFB008FE2000
09FC105FE30000
6FE202EF500000
ENDCHAR
STARTCHAR onequarter
ENCODING 188
SWIDTH 715 0
DWIDTH 23 0
BBX 18 23 3 0
BITMAP
00028D100000000000
17CFFE000000000000
CFFFFB000000009700
EB7CF900000006FE10
000DF70000003FF400
001FF4000001DF7000
003FF200000AFB0000
006FE000007FD10000
008FC00004FF300000
00BFA0002EF6000000
00DF8000CF90007FF6
01FF5008FC1005FFF4
03FF305FE2003EFFF1
000002EF5002EFDFE0
00001CF8001CFA9FB0
0000AFB000AFB0BF90
0006FE1008FC10EF60
003FF4006FD102FF40
01DF7001FFFFFFFFFB
0BFA0003FFFFFFFFF8
04B1000000000AFB00
0000000000000CF900
0000000000000EF700
ENDCHAR
STARTCHAR onehalf
ENCODING 189
SWIDTH 757 0
DWIDTH 24 0
BBX 20 23 2 0
BITMAP
000038D0000000000000
027CFFD0000000000000
0EFFFFA00000004A1000
1EA6DF80000002EF5000
0000EF6000000CF90000
0002FF3000009FC00000
0004FF100006FE200000
0007FD00003EF4000000
0009FB0001DF70000000
000CF9000AFB00000000
000EF6007FD117DFDA20
002FF404FF31CFFFFFE3
004FF21EF608FF612EFA
000000BFA00EF9000AFC
000008FC100221001EFA
00005FE2000000009FF4
0002EF5000000009FF90
001CF800000001BFF900
009FB00000001CFF7000
06FE20000002DFE40000
01B40000004EFC200000
0000000000FFFFFFFFF1
0000000003FFFFFFFFE0
ENDCHAR
STARTCHAR threequarters
ENCODING 190
SWIDTH 759 0
DWIDTH 24 0
BBX 21 23 2 0
BITMAP
0004BEEC71000000000000
008FFFFFFC000000000000
02FFB217FF4000000A6000
02771002FF4000007FD100
0000003CFC000004FF3000
0000EFFF9100002EF60000
0000CDFFA00000BF900000
0000002EF60008FC100000
0000000BF9005FE2000000
5A90000EF802EF50000000
5FF612AFF41CF8002EFC00
0CFFFFFF80AFB001DFFA00
017CEEB506FE100BFFF700
000000003FF4009FDFF500
00000001DF7007FE5FF200
0000000BFA005FE35FF000
0000007FD103EF408FC000
000004FE302DF500BFA000
00002EF600AFFFFFFFFF10
0000CF9000CFFFFFFFFE00
00004B0000000004FF2000
0000000000000006FF0000
0000000000000009FC0000
ENDCHAR
STARTCHAR questiondown
ENCODING 191
SWIDTH 463 0
DWIDTH 15 0
BBX 13 23 -1 -6
BITMAP
000000008EA000
00000001FFF300
00000000DFD100
00000000141000
00000000000000
00000000000000
00000000000000
0000000BFF1000
0000001FFC0000
0000009FF60000
000007FFC00000
00009FFD200000
000AFFD2000000
00AFFC20000000
06FFC100000000
0DFF2000000000
4FFA0000000000
7FF7000001BB80
7FF7000006FF90
4FFD10004EFF30
0DFFE98BFFF800
03EFFFFFFF8000
0018CEFDA30000
ENDCHAR
STARTCHAR Agrave
ENCODING 192
SWIDTH 637 0
DWIDTH 20 0
BBX 21 29 -2 0
BITMAP
00000000000CFF50000000
000000000003FFC0000000
0000000000008FF5000000
0000000000000DFC000000
00000000000003EA200000
0000000000000000000000
0000000000003FFC000000
000000000000BFFE000000
000000000004FFFF200000
00000000000CFFFF500000
00000000005FF8FF800000
0000000000DFD1CFB00000
0000000006FF609FE00000
000000001DFC007FF20000
000000007FF4004FF50000
00000001EFB0001FF80000
00000008FF30000DFB0000
0000002FFA00000BFE0000
0000009FF2000008FF2000
000003FF80000005FF5000
00000BFFFFFFFFFFFF8000
00004FFFFFFFFFFFFFB000
0000CFE777777777DFE000
0005FF70000000009FF100
000DFE10000000007FF400
006FF800000000004FF700
00DFF100000000002FFA00
07FF9000000000000EFD00
1EFF2000000000000CFF10
ENDCHAR
STARTCHAR Aacute
ENCODING 193
SWIDTH 637 0
DWIDTH 20 0
BBX 21 29 -2 0
BITMAP
00000000000000009FFD10
0000000000000007FFD100
000000000000004FFD2000
00000000000002EFE20000
00000000000006CD200000
0000000000000000000000
0000000000003FFC000000
000000000000BFFE000000
000000000004FFFF200000
00000000000CFFFF500000
00000000005FF8FF800000
0000000000DFD1CFB00000
0000000006FF609FE00000
000000001DFC007FF20000
000000007FF4004FF50000
00000001EFB0001FF80000
00000008FF30000DFB0000
0000002FFA00000BFE0000
0000009FF2000008FF2000
000003FF80000005FF5000
00000BFFFFFFFFFFFF8000
00004FFFFFFFFFFFFFB000
0000CFE777777777DFE000
0005FF70000000009FF100
000DFE10000000007FF400
006FF800000000004FF700
00DFF100000000002FFA00
07FF9000000000000EFD00
1EFF2000000000000CFF10
ENDCHAR
STARTCHAR Acircumflex
ENCODING 194
SWIDTH 637 0
DWIDTH 20 0
BBX 21 29 -2 0
BITMAP
00000000000004DFB10000
0000000000008FFEFC1000
00000000003CFF82EFC100
0000000000BFE4004EF700
0000000000000000000000
0000000000000000000000
0000000000003FFC000000
000000000000BFFE000000
000000000004FFFF200000
00000000000CFFFF500000
00000000005FF8FF800000
0000000000DFD1CFB00000
0000000006FF609FE00000
000000001DFC007FF20000
000000007FF4004FF50000
00000001EFB0001FF80000
00000008FF30000DFB0000
0000002FFA00000BFE0000
0000009FF2000008FF2000
000003FF80000005FF5000
00000BFFFFFFFFFFFF8000
00004FFFFFFFFFFFFFB000
0000CFE777777777DFE000
0005FF70000000009FF100
000DFE10000000007FF400
006FF800000000004FF700
00DFF100000000002FFA00
07FF9000000000000EFD00
1EFF2000000000000CFF10
ENDCHAR
STARTCHAR Atilde
ENCODING 195
SWIDTH 637 0
DWIDTH 20 0
BBX 21 30 -2 0
BITMAP
0000000000002200001630
00000000002CFF91006F80
0000000000BFFFFD55EF40
0000000003FE417FFFFC00
0000000006E80004DEA100
0000000000000000000000
0000000000000000000000
0000000000003FFC000000
000000000000BFFE000000
000000000004FFFF200000
00000000000CFFFF500000
00000000005FF8FF800000
0000000000DFD1CFB00000
0000000006FF609FE00000
000000001DFC007FF20000
000000007FF4004FF50000
00000001EFB0001FF80000
00000008FF30000DFB0000
0000002FFA00000BFE0000
0000009FF2000008FF2000
000003FF80000005FF5000
00000BFFFFFFFFFFFF8000
00004FFFFFFFFFFFFFB000
0000CFE777777777DFE000
0005FF70000000009FF100
000DFE10000000007FF400
006FF800000000004FF700
00DFF100000000002FFA00
07FF9000000000000EFD00
1EFF2000000000000CFF10
ENDCHAR
STARTCHAR Adieresis
ENCODING 196
SWIDTH 637 0
DWIDTH 20 0
BBX 21 29 -2 0
BITMAP
0000000000043000014100
00000000007FF4001EFC00
0000000000BFF7004FFF00
00000000005EC2000BE700
0000000000000000000000
0000000000000000000000
0000000000003FFC000000
000000000000BFFE000000
000000000004FFFF200000
00000000000CFFFF500000
00000000005FF8FF800000
0000000000DFD1CFB00000
0000000006FF609FE00000
000000001DFC007FF20000
000000007FF4004FF50000
00000001EFB0001FF80000
00000008FF30000DFB0000
0000002FFA00000BFE0000
0000009FF2000008FF2000
000003FF80000005FF5000
00000BFFFFFFFFFFFF8000
00004FFFFFFFFFFFFFB000
0000CFE777777777DFE000
0005FF70000000009FF100
000DFE10000000007FF400
006FF800000000004FF700
00DFF100000000002FFA00
07FF9000000000000EFD00
1EFF2000000000000CFF10
ENDCHAR
STARTCHAR Aring
ENCODING 197
SWIDTH 637 0
DWIDTH 20 0
BBX 21 31 -2 0
BITMAP
0000000000000036300000
0000000000001BFFF80000
0000000000009F617F4000
000000000000DA000F7000
000000000000D9005F5000
0000000000008F88ED1000
00000000000008DEA10000
0000000000000000000000
0000000000003FFC000000
000000000000BFFE000000
000000000004FFFF200000
00000000000CFFFF500000
00000000005FF8FF800000
0000000000DFD1CFB00000
0000000006FF609FE00000
000000001DFC007FF20000
000000007FF4004FF50000
00000001EFB0001FF80000
00000008FF30000DFB0000
0000002FFA00000BFE0000
0000009FF2000008FF2000
000003FF80000005FF5000
00000BFFFFFFFFFFFF8000
00004FFFFFFFFFFFFFB000
0000CFE777777777DFE000
0005FF70000000009FF100
000DFE10000000007FF400
006FF800000000004FF700
00DFF100000000002FFA00
07FF9000000000000EFD00
1EFF2000000000000CFF10
ENDCHAR
STARTCHAR AE
ENCODING 198
SWIDTH 911 0
DWIDTH 29 0
BBX 32 23 -2 0
BITMAP
00000000000000002EFFFFFFFFFFFFFC
0000000000000000CFFFFFFFFFFFFFF9
0000000000000008FFFFE66666666663
000000000000004FFDFFD00000000000
00000000000002EFF5FFB00000000000
0000000000000CFF73FF900000000000
0000000000008FFB05FF700000000000
000000000004FFE207FF500000000000
00000000002EFF5009FF300000000000
0000000000CFFA000BFF100000000000
0000000008FFD1000DFFFFFFFFFFD000
000000005FFF40000FFFFFFFFFFFB000
00000002EFF800002FFC555555553000
0000000CFFC000004FF8000000000000
0000008FFE2000006FF6000000000000
000005FFFFFFFFFFFFF4000000000000
00002EFFFFFFFFFFFFF2000000000000
0000CFFEBBBBBBBBEFF0000000000000
0008FFF300000000EFD0000000000000
005FFF6000000001FFB0000000000000
02EFF90000000003FFB5555555555100
0CFFC00000000005FFFFFFFFFFFFF200
8FFE200000000007FFFFFFFFFFFFE000
ENDCHAR
STARTCHAR Ccedilla
ENCODING 199
SWIDTH 636 0
DWIDTH 20 0
BBX 19 30 1 -7
BITMAP
000000017BEFEC810000
0000007EFFFFFFFE5000
00001AFFFC878CFFF400
0000AFFD4000007FFD00
0007FFC10000000BFF50
001EFE2000000005FF90
008FF80000000002FFC0
00EFF100000000008870
04FFB000000000000000
07FF7000000000000000
0AFF4000000000000000
0DFF1000000000000000
0FFE0000000000000000
1FFD0000000000000000
1FFC0000000000000000
1FFC0000000000466100
0EFE0000000000DFF100
0BFF3000000006FFA000
06FF900000002EFF3000
01DFF6000003DFF80000
004FFFC878CFFFA00000
0005EFFFFFFFE7000000
000018CEFEB710000000
0000008F700000000000
000000DFF70000000000
00000038FF2000000000
00000000FF3000000000
00000007FF1000000000
000009DFF70000000000
00000CD9300000000000
ENDCHAR
STARTCHAR Egrave
ENCODING 200
SWIDTH 556 0
DWIDTH 18 0
BBX 18 29 1 0
BITMAP
00000009FF80000000
00000001DFE1000000
000000004FF8000000
000000000AFE100000
0000000001DB400000
000000000000000000
0003FFFFFFFFFFFFFA
0006FFFFFFFFFFFFF7
0008FFA77777777773
000BFF300000000000
000EFF100000000000
001FFD000000000000
004FFA000000000000
006FF8000000000000
009FF5000000000000
00BFF3000000000000
00EFFFFFFFFFFF9000
02FFFFFFFFFFFF6000
04FFC7777777772000
07FF80000000000000
09FF50000000000000
0CFF20000000000000
0EFF00000000000000
2FFC00000000000000
5FFA00000000000000
7FF700000000000000
AFF977777777772000
CFFFFFFFFFFFFF4000
FFFFFFFFFFFFFF1000
ENDCHAR
STARTCHAR Eacute
ENCODING 201
SWIDTH 556 0
DWIDTH 18 0
BBX 18 29 1 0
BITMAP
0000000000006FFE30
000000000004FFE300
00000000002EFE4000
0000000001CFF40000
0000000004BE500000
000000000000000000
0003FFFFFFFFFFFFFA
0006FFFFFFFFFFFFF7
0008FFA77777777773
000BFF300000000000
000EFF100000000000
001FFD000000000000
004FFA000000000000
006FF8000000000000
009FF5000000000000
00BFF3000000000000
00EFFFFFFFFFFF9000
02FFFFFFFFFFFF6000
04FFC7777777772000
07FF80000000000000
09FF50000000000000
0CFF20000000000000
0EFF00000000000000
2FFC00000000000000
5FFA00000000000000
7FF700000000000000
AFF977777777772000
CFFFFFFFFFFFFF4000
FFFFFFFFFFFFFF1000
ENDCHAR
STARTCHAR Ecircumflex
ENCODING 202
SWIDTH 556 0
DWIDTH 18 0
BBX 18 29 1 0
BITMAP
0000000002CFD20000
000000006EFEFD3000
0000001BFFA1CFE300
0000008FF7002DFA00
000000000000000000
000000000000000000
0003FFFFFFFFFFFFFA
0006FFFFFFFFFFFFF7
0008FFA77777777773
000BFF300000000000
000EFF100000000000
001FFD000000000000
004FFA000000000000
006FF8000000000000
009FF5000000000000
00BFF3000000000000
00EFFFFFFFFFFF9000
02FFFFFFFFFFFF6000
04FFC7777777772000
07FF80000000000000
09FF50000000000000
0CFF20000000000000
0EFF00000000000000
2FFC00000000000000
5FFA00000000000000
7FF700000000000000
AFF977777777772000
CFFFFFFFFFFFFF4000
FFFFFFFFFFFFFF1000
ENDCHAR
STARTCHAR Edieresis
ENCODING 203
SWIDTH 556 0
DWIDTH 18 0
BBX 18 29 1 0
BITMAP
000000024000004100
0000004FF7000BFE10
0000008FFA000FFF30
0000003DD40009EA00
000000000000000000
000000000000000000
0003FFFFFFFFFFFFFA
0006FFFFFFFFFFFFF7
0008FFA77777777773
000BFF300000000000
000EFF100000000000
001FFD000000000000
004FFA000000000000
006FF8000000000000
009FF5000000000000
00BFF3000000000000
00EFFFFFFFFFFF9000
02FFFFFFFFFFFF6000
04FFC7777777772000
07FF80000000000000
09FF50000000000000
0CFF20000000000000
0EFF00000000000000
2FFC00000000000000
5FFA00000000000000
7FF700000000000000
AFF977777777772000
CFFFFFFFFFFFFF4000
FFFFFFFFFFFFFF1000
ENDCHAR
STARTCHAR Igrave
ENCODING 204
SWIDTH 268 0
DWIDTH 9 0
BBX 8 29 1 0
BITMAP
00BFF600
002EFD00
0006FF60
0000CFD0
00003EB2
00000000
0000FFE0
0002FFB0
0005FF90
0008FF60
000AFF40
000DFF10
000FFE00
003FFB00
006FF800
008FF600
00BFF300
00DFF100
01FFD000
03FFA000
06FF8000
09FF5000
0BFF3000
0EFF0000
1FFD0000
4FFA0000
6FF70000
9FF50000
CFF20000
ENDCHAR
STARTCHAR Iacute
ENCODING 205
SWIDTH 268 0
DWIDTH 9 0
BBX 12 29 1 0
BITMAP
00000008FFD2
0000006FFD20
000003FFE200
00002EFE3000
00006CE30000
000000000000
0000FFE00000
0002FFB00000
0005FF900000
0008FF600000
000AFF400000
000DFF100000
000FFE000000
003FFB000000
006FF8000000
008FF6000000
00BFF3000000
00DFF1000000
01FFD0000000
03FFA0000000
06FF80000000
09FF50000000
0BFF30000000
0EFF00000000
1FFD00000000
4FFA00000000
6FF700000000
9FF500000000
CFF200000000
ENDCHAR
STARTCHAR Icircumflex
ENCODING 206
SWIDTH 268 0
DWIDTH 9 0
BBX 11 29 1 0
BITMAP
00003DFC1000
0008FFEFC100
02CFF81DFD20
0AFE5003EF80
000000000000
000000000000
0000FFE00000
0002FFB00000
0005FF900000
0008FF600000
000AFF400000
000DFF100000
000FFE000000
003FFB000000
006FF8000000
008FF6000000
00BFF3000000
00DFF1000000
01FFD0000000
03FFA0000000
06FF80000000
09FF50000000
0BFF30000000
0EFF00000000
1FFD00000000
4FFA00000000
6FF700000000
9FF500000000
CFF200000000
ENDCHAR
STARTCHAR Idieresis
ENCODING 207
SWIDTH 268 0
DWIDTH 9 0
BBX 12 29 1 0
BITMAP
003300001410
06FF5000DFD0
0AFF8002FFF1
04ED2000AE80
000000000000
000000000000
0000FFE00000
0002FFB00000
0005FF900000
0008FF600000
000AFF400000
000DFF100000
000FFE000000
003FFB000000
006FF8000000
008FF6000000
00BFF3000000
00DFF1000000
01FFD0000000
03FFA0000000
06FF80000000
09FF50000000
0BFF30000000
0EFF00000000
1FFD00000000
4FFA00000000
6FF700000000
9FF500000000
CFF200000000
ENDCHAR
STARTCHAR Eth
ENCODING 208
SWIDTH 655 0
DWIDTH 21 0
BBX 20 23 0 0
BITMAP
00000BFFFFFFEB600000
00000EFFFFFFFFFD3000
00001FFD77779EFFF400
00004FFA0000008FFE10
00007FF700000008FF90
00009FF500000001EFE0
0000CFF2000000009FF4
0000EFE0000000006FF6
0002FFC0000000006FF8
0005FF90000000006FF8
6FFFFFFFFF4000007FF7
9FFFFFFFFF1000009FF5
455EFF6555000000BFF3
000FFE0000000000EFE0
003FFB0000000003FFB0
005FF9000000000AFF50
008FF6000000003FFE10
00AFF400000001CFF600
00DFF10000001BFFB000
00FFE0000005DFFC1000
03FFD7778AEFFFB10000
05FFFFFFFFFFE6000000
08FFFFFFEC9500000000
ENDCHAR
STARTCHAR Ntilde
ENCODING 209
SWIDTH 696 0
DWIDTH 22 0
BBX 21 30 1 0
BITMAP
0000000000310000262000
000000003DFF70009F6000
00000001DFFFFB47FF2000
00000006FD219FFFF90000
00000008E50005DE900000
0000000000000000000000
0000000000000000000000
0003FFE00000000002FFC0
0006FFF60000000005FF90
0008FFFD0000000007FF60
000BFFFF500000000AFF40
000EFFFFB00000000DFF10
001FFDDFF30000000FFE00
004FFB7FFA0000003FFB00
006FF81EFF2000005FF900
009FF508FF9000008FF600
00BFF302FFE10000AFF300
00EFF0009FF70000DFF100
02FFD0003FFE0001FFD000
04FFA0000BFF6003FFB000
07FF800004FFD006FF8000
09FF500000CFF508FF6000
0CFF2000005FFB0BFF3000
0EFF0000000DFF3EFF0000
2FFC00000007FFBFFD0000
5FFA00000001EFFFFA0000
7FF7000000008FFFF80000
AFF5000000002FFFF50000
CFF20000000009FFF20000
FFE00000000003FFF00000
ENDCHAR
STARTCHAR Ograve
ENCODING 210
SWIDTH 671 0
DWIDTH 22 0
BBX 20 29 1 0
BITMAP
000000004FFD00000000
000000000AFF50000000
0000000001EFC0000000
00000000005FF5000000
00000000000AC6000000
00000000000000000000
000000017BEFEC710000
0000006EFFFFFFFE4000
000009FFFDA9AEFFF400
00009FFE5000009FFD00
0005FFD20000000BFF60
001EFF3000000003FFB0
006FF90000000000EFE0
00DFF20000000000CFF1
03FFB00000000000BFF2
07FF700000000000CFF2
0AFF400000000000DFF1
0CFF100000000000FFE0
0EFE000000000002FFB0
0FFD000000000006FF80
1FFD00000000000AFF40
0EFE00000000001EFE00
0CFF10000000007FF800
09FF5000000002EFE200
04FFC00000001CFF7000
00BFFA100004DFFB0000
002EFFEA89CFFFB10000
0003DFFFFFFFF8000000
000016BDFEC720000000
ENDCHAR
STARTCHAR Oacute
ENCODING 211
SWIDTH 671 0
DWIDTH 22 0
BBX 20 29 1 0
BITMAP
00000000000002EFF600
0000000000001DFF7000
000000000000BFF80000
000000000008FF800000
00000000001AD9000000
00000000000000000000
000000017BEFEC710000
0000006EFFFFFFFE4000
000009FFFDA9AEFFF400
00009FFE5000009FFD00
0005FFD20000000BFF60
001EFF3000000003FFB0
006FF90000000000EFE0
00DFF20000000000CFF1
03FFB00000000000BFF2
07FF700000000000CFF2
0AFF400000000000DFF1
0CFF100000000000FFE0
0EFE000000000002FFB0
0FFD000000000006FF80
1FFD00000000000AFF40
0EFE00000000001EFE00
0CFF10000000007FF800
09FF5000000002EFE200
04FFC00000001CFF7000
00BFFA100004DFFB0000
002EFFEA89CFFFB10000
0003DFFFFFFFF8000000
000016BDFEC720000000
ENDCHAR
STARTCHAR Ocircumflex
ENCODING 212
SWIDTH 671 0
DWIDTH 22 0
BBX 20 29 1 0
BITMAP
000000000019FF500000
0000000003DFEFF60000
000000008FFD28FF7000
00000004FFA100AFE000
00000000000000000000
00000000000000000000
000000017BEFEC710000
0000006EFFFFFFFE4000
000009FFFDA9AEFFF400
00009FFE5000009FFD00
0005FFD20000000BFF60
001EFF3000000003FFB0
006FF90000000000EFE0
00DFF20000000000CFF1
03FFB00000000000BFF2
07FF700000000000CFF2
0AFF400000000000DFF1
0CFF100000000000FFE0
0EFE000000000002FFB0
0FFD000000000006FF80
1FFD00000000000AFF40
0EFE00000000001EFE00
0CFF10000000007FF800
09FF5000000002EFE200
04FFC00000001CFF7000
00BFFA100004DFFB0000
002EFFEA89CFFFB10000
0003DFFFFFFFF8000000
000016BDFEC720000000
ENDCHAR
STARTCHAR Otilde
ENCODING 213
SWIDTH 671 0
DWIDTH 22 0
BBX 20 30 1 0
BITMAP
00000000013100004510
000000006FFE4000DF10
00000003FFFFF849FC00
0000000AFA13CFFFF400
0000000DE10008ED6000
00000000000000000000
00000000000000000000
000000017BEFEC710000
0000006EFFFFFFFE4000
000009FFFDA9AEFFF400
00009FFE5000009FFD00
0005FFD20000000BFF60
001EFF3000000003FFB0
006FF90000000000EFE0
00DFF20000000000CFF1
03FFB00000000000BFF2
07FF700000000000CFF2
0AFF400000000000DFF1
0CFF100000000000FFE0
0EFE000000000002FFB0
0FFD000000000006FF80
1FFD00000000000AFF40
0EFE00000000001EFE00
0CFF10000000007FF800
09FF5000000002EFE200
04FFC00000001CFF7000
00BFFA100004DFFB0000
002EFFEA89CFFFB10000
0003DFFFFFFFF8000000
000016BDFEC720000000
ENDCHAR
STARTCHAR Odieresis
ENCODING 214
SWIDTH 671 0
DWIDTH 22 0
BBX 20 29 1 0
BITMAP
00000000141000033000
00000001EFC0007FF500
00000004FFF000BFF800
00000000BE70005ED200
00000000000000000000
00000000000000000000
000000017BEFEC710000
0000006EFFFFFFFE4000
000009FFFDA9AEFFF400
00009FFE5000009FFD00
0005FFD20000000BFF60
001EFF3000000003FFB0
006FF90000000000EFE0
00DFF20000000000CFF1
03FFB00000000000BFF2
07FF700000000000CFF2
0AFF400000000000DFF1
0CFF100000000000FFE0
0EFE000000000002FFB0
0FFD000000000006FF80
1FFD00000000000AFF40
0EFE00000000001EFE00
0CFF10000000007FF800
09FF5000000002EFE200
04FFC00000001CFF7000
00BFFA100004DFFB0000
002EFFEA89CFFFB10000
0003DFFFFFFFF8000000
000016BDFEC720000000
ENDCHAR
STARTCHAR multiply
ENCODING 215
SWIDTH 521 0
DWIDTH 17 0
BBX 16 15 0 3
BITMAP
0003B000000003B0
003EF90000003EF8
002EFF500004EFF9
0005FFE2005FFF90
00009FFC06FFF800
00000CFFCFFF7000
000002EFFFF60000
000000BFFF600000
00000AFFFFC00000
0001BFFEDFF80000
001CFFD32EFF4000
01CFFD2006FFE200
2DFFC100009FFB00
1DFC1000001DFC10
03A100000002A100
ENDCHAR
STARTCHAR Oslash
ENCODING 216
SWIDTH 671 0
DWIDTH 22 0
BBX 23 26 0 -2
BITMAP
000000000000000000019920
0000000016BDFEC8200CF800
00000006EFFFFFFFF79FA000
000000AFFFDA9ADFFFFC1000
000009FFE5000006FFF50000
00006FFD20000001DFF90000
0001EFF30000000BFFFD0000
0007FF800000008FBCFF1000
000DFF10000005FD1BFF2000
004FFB0000003EF30AFF2000
007FF7000001DF600CFF2000
00BFF300000BF9000DFF0000
00DFF100008FC0000FFD0000
00FFE00005FE20003FFB0000
01FFC0002EF400006FF80000
02FFB001DF700000AFF40000
01FFB00AFA000001FFE00000
00FFD07FC1000008FF800000
00CFF5FE2000002EFE100000
007FFFF4000001CFF7000000
002FFFB000004DFFA0000000
000BFFFDA89DFFFB10000000
005FEFFFFFFFFF7000000000
03FE328CEFEB710000000000
2DF500000000000000000000
121000000000000000000000
ENDCHAR
STARTCHAR Ugrave
ENCODING 217
SWIDTH 633 0
DWIDTH 20 0
BBX 20 29 1 0
BITMAP
00000000DFF400000000
000000003FFB00000000
0000000009FF40000000
0000000001DFB0000000
00000000005DA1000000
00000000000000000000
0009FF50000000008FF6
000BFF2000000000BFF4
000EFE0000000000DFF1
002FFC0000000001FFE0
004FF90000000003FFB0
007FF70000000006FF80
009FF40000000008FF60
00CFF2000000000BFF30
00EFE0000000000EFF10
02FFC0000000001FFD00
04FF90000000004FFB00
07FF70000000006FF800
0AFF40000000009FF500
0CFF1000000000BFF300
0FFE0000000000EFF000
2FFC0000000002FFD000
3FFB0000000006FF9000
2FFD000000000CFF4000
0DFF400000007FFC0000
07FFD2000008FFF30000
00CFFFA879EFFF500000
001BFFFFFFFFC3000000
00004ADFEDA500000000
ENDCHAR
STARTCHAR Uacute
ENCODING 218
SWIDTH 633 0
DWIDTH 20 0
BBX 20 29 1 0
BITMAP
0000000000000AFFC100
0000000000008FFC1000
000000000005FFD10000
00000000003EFD200000
00000000007CD2000000
00000000000000000000
0009FF50000000008FF6
000BFF2000000000BFF4
000EFE0000000000DFF1
002FFC0000000001FFE0
004FF90000000003FFB0
007FF70000000006FF80
009FF40000000008FF60
00CFF2000000000BFF30
00EFE0000000000EFF10
02FFC0000000001FFD00
04FF90000000004FFB00
07FF70000000006FF800
0AFF40000000009FF500
0CFF1000000000BFF300
0FFE0000000000EFF000
2FFC0000000002FFD000
3FFB0000000006FF9000
2FFD000000000CFF4000
0DFF400000007FFC0000
07FFD2000008FFF30000
00CFFFA879EFFF500000
001BFFFFFFFFC3000000
00004ADFEDA500000000
ENDCHAR
STARTCHAR Ucircumflex
ENCODING 219
SWIDTH 633 0
DWIDTH 20 0
BBX 20 29 1 0
BITMAP
00000000004EFA000000
0000000019FFEFB10000
00000004DFF73EFC1000
0000000CFD4005FF6000
00000000000000000000
00000000000000000000
0009FF50000000008FF6
000BFF2000000000BFF4
000EFE0000000000DFF1
002FFC0000000001FFE0
004FF90000000003FFB0
007FF70000000006FF80
009FF40000000008FF60
00CFF2000000000BFF30
00EFE0000000000EFF10
02FFC0000000001FFD00
04FF90000000004FFB00
07FF70000000006FF800
0AFF40000000009FF500
0CFF1000000000BFF300
0FFE0000000000EFF000
2FFC0000000002FFD000
3FFB0000000006FF9000
2FFD000000000CFF4000
0DFF400000007FFC0000
07FFD2000008FFF30000
00CFFFA879EFFF500000
001BFFFFFFFFC3000000
00004ADFEDA500000000
ENDCHAR
STARTCHAR Udieresis
ENCODING 220
SWIDTH 633 0
DWIDTH 20 0
BBX 20 29 1 0
BITMAP
00000000420000140000
00000009FF3002EFB000
0000000CFF6005FFE000
00000006EC1001CE6000
00000000000000000000
00000000000000000000
0009FF50000000008FF6
000BFF2000000000BFF4
000EFE0000000000DFF1
002FFC0000000001FFE0
004FF90000000003FFB0
007FF70000000006FF80
009FF40000000008FF60
00CFF2000000000BFF30
00EFE0000000000EFF10
02FFC0000000001FFD00
04FF90000000004FFB00
07FF70000000006FF800
0AFF40000000009FF500
0CFF1000000000BFF300
0FFE0000000000EFF000
2FFC0000000002FFD000
3FFB0000000006FF9000
2FFD000000000CFF4000
0DFF400000007FFC0000
07FFD2000008FFF30000
00CFFFA879EFFF500000
001BFFFFFFFFC3000000
00004ADFEDA500000000
ENDCHAR
STARTCHAR Yacute
ENCODING 221
SWIDTH 587 0
DWIDTH 19 0
BBX 19 29 2 0
BITMAP
000000000007FFE20000
00000000004FFE300000
0000000002EFE3000000
000000001DFE40000000
000000005BE400000000
00000000000000000000
3FFE00000000002EFF60
0DFF4000000000BFFB00
07FF9000000006FFE200
02FFE00000002EFF5000
00CFF4000000BFF90000
006FF9000006FFD10000
001FFE00002EFF400000
000BFF4000BFF8000000
0005FF8006FFC0000000
0001EFD02EFF20000000
0000AFF3BFF600000000
00004FFDFFB000000000
00000EFFFE2000000000
000009FFF50000000000
000005FFA00000000000
000008FF600000000000
00000AFF400000000000
00000DFF100000000000
00001FFE000000000000
00003FFB000000000000
00006FF8000000000000
00008FF6000000000000
0000BFF3000000000000
ENDCHAR
STARTCHAR Thorn
ENCODING 222
SWIDTH 578 0
DWIDTH 19 0
BBX 18 23 0 0
BITMAP
00004FF90000000000
00006FF60000000000
00009FF40000000000
0000CFF20000000000
0000EFE00000000000
0002FFFFFFFEC81000
0004FFFFFFFFFFE500
0007FFA66667BFFF40
000AFF40000006FFD0
000CFF10000000BFF3
000FFE000000008FF4
002FFB000000009FF4
005FF800000000DFF1
007FF500000006FFB0
00AFF30000006FFF30
00DFF655568DFFF600
00FFFFFFFFFFFD5000
03FFFFFFFEDA610000
05FF70000000000000
08FF50000000000000
0AFF20000000000000
0DFF00000000000000
1FFC00000000000000
ENDCHAR
STARTCHAR germandbls
ENCODING 223
SWIDTH 581 0
DWIDTH 19 0
BBX 17 24 0 0
BITMAP
00000006BEFD920000
000002CFFFFFFE4000
00000CFFC76BFFE000
00007FFA0000AFF400
0000EFE100006FF500
0004FF8000006FF400
0007FF500000BFE000
000AFF200005FF7000
000DFE00001EFC0000
000FFC0000AFF40000
003FF90002FFB00000
006FF70005FF800000
008FF40003FF900000
00BFF20000BFE20000
00DFE000002DFD1000
01FFB0000003EFC100
04FF900000004FFA00
06FF600000000AFF20
09FF4000000007FF50
0BFF100000000AFF30
0EFE005000005FFE00
1FFB03FD867BFFF600
4FF808FFFFFFFF7000
7FF6016BEFFD930000
ENDCHAR
STARTCHAR agrave
ENCODING 224
SWIDTH 532 0
DWIDTH 17 0
BBX 15 24 0 0
BITMAP
0000001EFF200000
00000006FF900000
00000000BFF20000
000000002EF90000
0000000007D90000
0000000000000000
0000000000000000
0000016BEFEB5000
00004EFFFFFFF900
0004FFFB769FFF60
001EFF500005FFC0
004FFA000000DFF0
000000000000DFF0
000000000000EFD0
000038BEFFFFFFA0
001AFFFFFFFFFF80
01DFFC631117FF50
09FF80000009FF30
0EFE0000000CFF00
1FFD0000004FFD00
0FFF400006FFFA00
0AFFFA89EFFFF900
01DFFFFFFD7FF900
0018DFEC703FFA00
ENDCHAR
STARTCHAR aacute
ENCODING 225
SWIDTH 532 0
DWIDTH 17 0
BBX 16 24 0 0
BITMAP
000000000001CFFA
00000000000AFFB0
00000000007FFB00
0000000004FFC100
0000000008CC1000
0000000000000000
0000000000000000
0000016BEFEB5000
00004EFFFFFFF900
0004FFFB769FFF60
001EFF500005FFC0
004FFA000000DFF0
000000000000DFF0
000000000000EFD0
000038BEFFFFFFA0
001AFFFFFFFFFF80
01DFFC631117FF50
09FF80000009FF30
0EFE0000000CFF00
1FFD0000004FFD00
0FFF400006FFFA00
0AFFFA89EFFFF900
01DFFFFFFD7FF900
0018DFEC703FFA00
ENDCHAR
STARTCHAR acircumflex
ENCODING 226
SWIDTH 532 0
DWIDTH 17 0
BBX 16 24 0 0
BITMAP
0000000006EF8000
00000001BFFEF900
0000005EFE54FFA0
000000EFD2007FF4
0000000000000000
0000000000000000
0000000000000000
0000016BEFEB5000
00004EFFFFFFF900
0004FFFB769FFF60
001EFF500005FFC0
004FFA000000DFF0
000000000000DFF0
000000000000EFD0
000038BEFFFFFFA0
001AFFFFFFFFFF80
01DFFC631117FF50
09FF80000009FF30
0EFE0000000CFF00
1FFD0000004FFD00
0FFF400006FFFA00
0AFFFA89EFFFF900
01DFFFFFFD7FF900
0018DFEC703FFA00
ENDCHAR
STARTCHAR atilde
ENCODING 227
SWIDTH 532 0
DWIDTH 17 0
BBX 17 25 0 0
BITMAP
000000003100003620
0000003EFF7000AF50
000001DFFFFB47FF20
000006FD22AFFFF800
000009F50006EE8000
000000000000000000
000000000000000000
000000000000000000
0000016BEFEB500000
00004EFFFFFFF90000
0004FFFB769FFF6000
001EFF500005FFC000
004FFA000000DFF000
000000000000DFF000
000000000000EFD000
000038BEFFFFFFA000
001AFFFFFFFFFF8000
01DFFC631117FF5000
09FF80000009FF3000
0EFE0000000CFF0000
1FFD0000004FFD0000
0FFF400006FFFA0000
0AFFFA89EFFFF90000
01DFFFFFFD7FF90000
0018DFEC703FFA0000
ENDCHAR
STARTCHAR adieresis
ENCODING 228
SWIDTH 532 0
DWIDTH 17 0
BBX 16 24 0 0
BITMAP
0000000420000240
000000BFE2003FF9
000000FFF4007FFC
0000008EA0002DE5
0000000000000000
0000000000000000
0000000000000000
0000016BEFEB5000
00004EFFFFFFF900
0004FFFB769FFF60
001EFF500005FFC0
004FFA000000DFF0
000000000000DFF0
000000000000EFD0
000038BEFFFFFFA0
001AFFFFFFFFFF80
01DFFC631117FF50
09FF80000009FF30
0EFE0000000CFF00
1FFD0000004FFD00
0FFF400006FFFA00
0AFFFA89EFFFF900
01DFFFFFFD7FF900
0018DFEC703FFA00
ENDCHAR
STARTCHAR aring
ENCODING 229
SWIDTH 532 0
DWIDTH 17 0
BBX 15 26 0 0
BITMAP
0000000000452000
000000002DFFF500
00000000CE41AE10
00000002F6003F40
00000002F6008F20
00000000BE79FA00
000000001AED8100
0000000000000000
0000000000000000
0000016BEFEB5000
00004EFFFFFFF900
0004FFFB769FFF60
001EFF500005FFC0
004FFA000000DFF0
000000000000DFF0
000000000000EFD0
000038BEFFFFFFA0
001AFFFFFFFFFF80
01DFFC631117FF50
09FF80000009FF30
0EFE0000000CFF00
1FFD0000004FFD00
0FFF400006FFFA00
0AFFFA89EFFFF900
01DFFFFFFD7FF900
0018DFEC703FFA00
ENDCHAR
STARTCHAR ae
ENCODING 230
SWIDTH 823 0
DWIDTH 26 0
BBX 26 17 0 0
BITMAP
000004ADFFD930004ADFDA4000
0001BFFFFFFFF51AFFFFFFF800
000CFFF977CFFECFFC768EFF50
006FFD20000BFFFF700002EFD0
00AFF4000006FFF80000008FF2
000020000005FFE10000007FF4
000000000006FF700000007FF4
00028BEFFFFFFFFFFFFFFFFFF3
008FFFFFFFFFFFFFFFFFFFFFF1
08FFFB64333EFF444444444430
2FFF4000002FFE000000000000
7FF80000004FFF100000000000
8FF50000008FFF600000000000
7FF9000018FFFFE3000004A100
2FFFA669EFFCAFFF9668CFF600
07FFFFFFFF910AFFFFFFFFE400
004BEFEC8200004ADFEDA61000
ENDCHAR
STARTCHAR ccedilla
ENCODING 231
SWIDTH 512 0
DWIDTH 16 0
BBX 15 24 1 -7
BITMAP
000006BEFEB50000
0002CFFFFFFFA000
002EFFC768EFF900
01DFF700001DFF20
07FF80000005FF60
0EFE10000002EE80
4FF9000000000000
7FF5000000000000
AFF2000000000000
AFF1000000000000
AFF1000000000000
9FF3000000177400
5FF70000007FF500
1EFE200005FFD000
06FFE967BFFE3000
008FFFFFFFD30000
0003ADFEB6000000
00009F6000000000
0000EFE600000000
000039FF10000000
000001FF30000000
000008FE10000000
0009EFF600000000
000DC93000000000
ENDCHAR
STARTCHAR egrave
ENCODING 232
SWIDTH 518 0
DWIDTH 17 0
BBX 15 24 1 0
BITMAP
000006FFB0000000
000000CFF3000000
0000003FFA000000
00000008FF300000
00000000CC500000
0000000000000000
0000000000000000
000004AEFEB40000
0001AFFFFFFF9000
001DFFD768EFF600
00AFF800002EFD00
05FFA0000007FF30
0CFF20000004FF60
2FFA00000004FF70
5FFFFFFFFFFFFF60
8FFFFFFFFFFFFF50
AFF7555555555510
AFF2000000000000
8FF4000000000000
5FF9000000040000
0DFF5000008FB100
04FFFA668DFFA000
006FFFFFFFF80000
00029DEEC8300000
ENDCHAR
STARTCHAR eacute
ENCODING 233
SWIDTH 518 0
DWIDTH 17 0
BBX 15 24 1 0
BITMAP
00000000004FFF40
0000000002EFF500
000000001DFF5000
00000000AFF60000
00000003BE700000
0000000000000000
0000000000000000
000004AEFEB40000
0001AFFFFFFF9000
001DFFD768EFF600
00AFF800002EFD00
05FFA0000007FF30
0CFF20000004FF60
2FFA00000004FF70
5FFFFFFFFFFFFF60
8FFFFFFFFFFFFF50
AFF7555555555510
AFF2000000000000
8FF4000000000000
5FF9000000040000
0DFF5000008FB100
04FFFA668DFFA000
006FFFFFFFF80000
00029DEEC8300000
ENDCHAR
STARTCHAR ecircumflex
ENCODING 234
SWIDTH 518 0
DWIDTH 17 0
BBX 15 24 1 0
BITMAP
00000001AFE30000
0000005EFEFE4000
000019FFB1AFF500
00006FF9001CFC00
0000000000000000
0000000000000000
0000000000000000
000004AEFEB40000
0001AFFFFFFF9000
001DFFD768EFF600
00AFF800002EFD00
05FFA0000007FF30
0CFF20000004FF60
2FFA00000004FF70
5FFFFFFFFFFFFF60
8FFFFFFFFFFFFF50
AFF7555555555510
AFF2000000000000
8FF4000000000000
5FF9000000040000
0DFF5000008FB100
04FFFA668DFFA000
006FFFFFFFF80000
00029DEEC8300000
ENDCHAR
STARTCHAR edieresis
ENCODING 235
SWIDTH 518 0
DWIDTH 17 0
BBX 15 24 1 0
BITMAP
0000024000004200
00003FFA0009FF30
00006FFD000DFF50
00001CE50007EB10
0000000000000000
0000000000000000
0000000000000000
000004AEFEB40000
0001AFFFFFFF9000
001DFFD768EFF600
00AFF800002EFD00
05FFA0000007FF30
0CFF20000004FF60
2FFA00000004FF70
5FFFFFFFFFFFFF60
8FFFFFFFFFFFFF50
AFF7555555555510
AFF2000000000000
8FF4000000000000
5FF9000000040000
0DFF5000008FB100
04FFFA668DFFA000
006FFFFFFFF80000
00029DEEC8300000
ENDCHAR
STARTCHAR igrave
ENCODING 236
SWIDTH 244 0
DWIDTH 8 0
BBX 7 24 0 0
BITMAP
01EFF200
005FF900
000BFF20
0002EF90
00006D90
00000000
00000000
0006FF60
0009FF30
000CFF10
000EFD00
002FFB00
004FF800
007FF500
00AFF300
00CFF000
00FFD000
02FFA000
05FF7000
08FF5000
0AFF2000
0DFF0000
0FFC0000
3FFA0000
ENDCHAR
STARTCHAR iacute
ENCODING 237
SWIDTH 244 0
DWIDTH 8 0
BBX 11 24 0 0
BITMAP
0000001CFFA0
000000AFFB00
000007FFB000
00004FFC1000
00008CC10000
000000000000
000000000000
0006FF600000
0009FF300000
000CFF100000
000EFD000000
002FFB000000
004FF8000000
007FF5000000
00AFF3000000
00CFF0000000
00FFD0000000
02FFA0000000
05FF70000000
08FF50000000
0AFF20000000
0DFF00000000
0FFC00000000
3FFA00000000
ENDCHAR
STARTCHAR icircumflex
ENCODING 238
SWIDTH 244 0
DWIDTH 8 0
BBX 11 24 0 0
BITMAP
00006EF90000
001AFFEF9000
05EFE54FFA00
0EFD3006FF40
000000000000
000000000000
000000000000
0006FF600000
0009FF300000
000CFF100000
000EFD000000
002FFB000000
004FF8000000
007FF5000000
00AFF3000000
00CFF0000000
00FFD0000000
02FFA0000000
05FF70000000
08FF50000000
0AFF20000000
0DFF00000000
0FFC00000000
3FFA00000000
ENDCHAR
STARTCHAR idieresis
ENCODING 239
SWIDTH 244 0
DWIDTH 8 0
BBX 11 24 0 0
BITMAP
004200002400
0BFE2003FF90
0EFF4007FFC0
08EB0002DE50
000000000000
000000000000
000000000000
0006FF600000
0009FF300000
000CFF100000
000EFD000000
002FFB000000
004FF8000000
007FF5000000
00AFF3000000
00CFF0000000
00FFD0000000
02FFA0000000
05FF70000000
08FF50000000
0AFF20000000
0DFF00000000
0FFC00000000
3FFA00000000
ENDCHAR
STARTCHAR eth
ENCODING 240
SWIDTH 573 0
DWIDTH 18 0
BBX 17 24 1 0
BITMAP
000000CA4000000000
000005FFFD40018A00
000005BFFFF95DFE20
00000003AFFFFF9100
000000001BFFFA0000
00000005DFEEFF2000
0000006FFA27FF9000
0000001B4000EFE000
0000000000009FF300
000005BEFDA35FF600
0001BFFFFFFFAFF800
001DFFE9669EFFF900
00BFFB100001CFF800
04FFC00000005FF700
0BFF300000007FF600
0FFD000000009FF400
3FF900000000CFF100
4FF800000001FFC000
4FF900000007FF6000
1FFE0000002EFD0000
0AFF900002CFF50000
02EFFB668EFF800000
003EFFFFFFF6000000
00018CEFD820000000
ENDCHAR
STARTCHAR ntilde
ENCODING 241
SWIDTH 540 0
DWIDTH 17 0
BBX 17 25 0 0
BITMAP
000000013100003520
0000005EFE5000CF30
000002EFFFF948FE00
000008FB12BFFFF600
00000BF30007EE7000
000000000000000000
000000000000000000
000000000000000000
000AFF028DEEB30000
000DFD5EFFFFFF4000
000FFEFFA78DFFD000
003FFFC20001EFF200
005FFD1000009FF400
008FF50000008FF400
00BFF2000000AFF300
00DFF0000000CFF000
01FFC0000000FFD000
03FF90000002FFA000
06FF70000005FF8000
09FF40000007FF5000
0BFF2000000AFF2000
0EFE0000000CFF0000
1FFB0000000FFC0000
4FF90000003FFA0000
6FF60000005FF70000
ENDCHAR
STARTCHAR ograve
ENCODING 242
SWIDTH 558 0
DWIDTH 18 0
BBX 16 24 1 0
BITMAP
000004FFC0000000
000000AFF5000000
0000001EFC000000
00000006FF500000
00000000BC600000
0000000000000000
0000000000000000
000005AEFEC70000
0001BFFFFFFFC100
002DFFD868DFFC00
00BFF900001BFF60
06FFA0000002FFD0
0DFE10000000BFF1
4FF9000000009FF4
7FF5000000008FF4
AFF2000000009FF3
BFF200000000CFF1
BFF200000001FFC0
8FF400000008FF70
5FF90000002EFE10
0DFF400003DFF500
05FFF966AFFF8000
006FFFFFFFF60000
00039DFEC8200000
ENDCHAR
STARTCHAR oacute
ENCODING 243
SWIDTH 558 0
DWIDTH 18 0
BBX 16 24 1 0
BITMAP
00000000003EFF60
0000000001DFF700
000000000BFF7000
000000008FF80000
00000001AD900000
0000000000000000
0000000000000000
000005AEFEC70000
0001BFFFFFFFC100
002DFFD868DFFC00
00BFF900001BFF60
06FFA0000002FFD0
0DFE10000000BFF1
4FF9000000009FF4
7FF5000000008FF4
AFF2000000009FF3
BFF200000000CFF1
BFF200000001FFC0
8FF400000008FF70
5FF90000002EFE10
0DFF400003DFF500
05FFF966AFFF8000
006FFFFFFFF60000
00039DFEC8200000
ENDCHAR
STARTCHAR ocircumflex
ENCODING 244
SWIDTH 558 0
DWIDTH 18 0
BBX 16 24 1 0
BITMAP
000000019FF50000
0000003DFEFF5000
000008FFD28FF600
00004FFA100BFE00
0000000000000000
0000000000000000
0000000000000000
000005AEFEC70000
0001BFFFFFFFC100
002DFFD868DFFC00
00BFF900001BFF60
06FFA0000002FFD0
0DFE10000000BFF1
4FF9000000009FF4
7FF5000000008FF4
AFF2000000009FF3
BFF200000000CFF1
BFF200000001FFC0
8FF400000008FF70
5FF90000002EFE10
0DFF400003DFF500
05FFF966AFFF8000
006FFFFFFFF60000
00039DFEC8200000
ENDCHAR
STARTCHAR otilde
ENCODING 245
SWIDTH 558 0
DWIDTH 18 0
BBX 16 25 1 0
BITMAP
0000001310000451
000007FFE4000DF1
00003FFFFF84AFC0
0000BFA13CFFFF40
0000DE10009ED600
0000000000000000
0000000000000000
0000000000000000
000005AEFEC70000
0001BFFFFFFFC100
002DFFD868DFFC00
00BFF900001BFF60
06FFA0000002FFD0
0DFE10000000BFF1
4FF9000000009FF4
7FF5000000008FF4
AFF2000000009FF3
BFF200000000CFF1
BFF200000001FFC0
8FF400000008FF70
5FF90000002EFE10
0DFF400003DFF500
05FFF966AFFF8000
006FFFFFFFF60000
00039DFEC8200000
ENDCHAR
STARTCHAR odieresis
ENCODING 246
SWIDTH 558 0
DWIDTH 18 0
BBX 16 24 1 0
BITMAP
0000014100003300
00001EFC0007FF50
00004FFF000BFF70
00000BE70005EC20
0000000000000000
0000000000000000
0000000000000000
000005AEFEC70000
0001BFFFFFFFC100
002DFFD868DFFC00
00BFF900001BFF60
06FFA0000002FFD0
0DFE10000000BFF1
4FF9000000009FF4
7FF5000000008FF4
AFF2000000009FF3
BFF200000000CFF1
BFF200000001FFC0
8FF400000008FF70
5FF90000002EFE10
0DFF400003DFF500
05FFF966AFFF8000
006FFFFFFFF60000
00039DFEC8200000
ENDCHAR
STARTCHAR divide
ENCODING 247
SWIDTH 558 0
DWIDTH 18 0
BBX 16 17 1 2
BITMAP
0000000189200000
00000008FFB00000
00000009FFB00000
00000002BB200000
0000000000000000
0000000000000000
0000000000000000
8FFFFFFFFFFFFFF9
AFFFFFFFFFFFFFF7
BDDDDDDDDDDDDDD4
0000000000000000
0000000000000000
0000000000000000
000004CC20000000
00000CFF80000000
00000BFF60000000
0000028600000000
ENDCHAR
STARTCHAR oslash
ENCODING 248
SWIDTH 554 0
DWIDTH 18 0
BBX 16 21 1 -2
BITMAP
0000000000000694
0000000000003FD1
000004ADEEC7DF30
0001BFFFFFFFF900
001DFFD866BFFE20
00CFF91000CFFF90
07FFA00008F8DFE0
0EFE10003FD19FF2
4FF90000DF308FF3
8FF40008F8009FF3
BFF1004FC000AFF2
CFE001DF3000DFE0
DFE009F70003FFB0
CFE04FC0000AFF50
9FF4DF20004FFC00
4FFEF70004EFF300
0BFFF756BFFF6000
02FFFFFFFFE40000
08FABEFEB7100000
4FC0000000000000
9B20000000000000
ENDCHAR
STARTCHAR ugrave
ENCODING 249
SWIDTH 539 0
DWIDTH 17 0
BBX 16 24 1 0
BITMAP
000003FFD0000000
0000009FF6000000
0000001DFD000000
00000005FF600000
00000000AC700000
0000000000000000
0000000000000000
008FF40000007FF6
00BFF20000009FF3
00DFE0000000CFF1
01FFC0000000EFD0
03FF90000002FFA0
06FF60000005FF80
08FF40000008FF50
0BFF1000000AFF30
0EFE0000000DFF00
1FFB0000001FFC00
3FF90000003FFA00
5FF80000006FF700
5FF9000000CFF500
2FFD10001BFFF200
0DFFD88AEFFFE000
04FFFFFFFCEFC000
003AEFEB61FF9000
ENDCHAR
STARTCHAR uacute
ENCODING 250
SWIDTH 539 0
DWIDTH 17 0
BBX 16 24 1 0
BITMAP
00000000002EFF70
0000000001CFF800
000000000AFF8000
000000008FF90000
00000001ADA00000
0000000000000000
0000000000000000
008FF40000007FF6
00BFF20000009FF3
00DFE0000000CFF1
01FFC0000000EFD0
03FF90000002FFA0
06FF60000005FF80
08FF40000008FF50
0BFF1000000AFF30
0EFE0000000DFF00
1FFB0000001FFC00
3FF90000003FFA00
5FF80000006FF700
5FF9000000CFF500
2FFD10001BFFF200
0DFFD88AEFFFE000
04FFFFFFFCEFC000
003AEFEB61FF9000
ENDCHAR
STARTCHAR ucircumflex
ENCODING 251
SWIDTH 539 0
DWIDTH 17 0
BBX 16 24 1 0
BITMAP
000000008FF50000
0000003CFFFF6000
000007FFD37FF700
00003FFB100AFF00
0000000000000000
0000000000000000
0000000000000000
008FF40000007FF6
00BFF20000009FF3
00DFE0000000CFF1
01FFC0000000EFD0
03FF90000002FFA0
06FF60000005FF80
08FF40000008FF50
0BFF1000000AFF30
0EFE0000000DFF00
1FFB0000001FFC00
3FF90000003FFA00
5FF80000006FF700
5FF9000000CFF500
2FFD10001BFFF200
0DFFD88AEFFFE000
04FFFFFFFCEFC000
003AEFEB61FF9000
ENDCHAR
STARTCHAR udieresis
ENCODING 252
SWIDTH 539 0
DWIDTH 17 0
BBX 16 24 1 0
BITMAP
0000014100003300
00001DFD0006FF50
00003FFF100AFF80
00000BE80004ED20
0000000000000000
0000000000000000
0000000000000000
008FF40000007FF6
00BFF20000009FF3
00DFE0000000CFF1
01FFC0000000EFD0
03FF90000002FFA0
06FF60000005FF80
08FF40000008FF50
0BFF1000000AFF30
0EFE0000000DFF00
1FFB0000001FFC00
3FF90000003FFA00
5FF80000006FF700
5FF9000000CFF500
2FFD10001BFFF200
0DFFD88AEFFFE000
04FFFFFFFCEFC000
003AEFEB61FF9000
ENDCHAR
STARTCHAR yacute
ENCODING 253
SWIDTH 463 0
DWIDTH 15 0
BBX 18 31 -2 -7
BITMAP
0000000000001DFF90
000000000000BFF900
000000000009FFA000
00000000006FFA0000
00000000009DB00000
000000000000000000
000000000000000000
0003FFB0000000AFF7
0001FFD0000002FFD0
0000DFF0000009FF60
0000AFF300002FFD00
00008FF500008FF600
00005FF70001EFD000
00002FF90008FF6000
00000FFC001EFD0000
00000CFE007FF60000
00000AFF10DFD00000
000007FF36FF600000
000004FF6DFD000000
000002FFCFF6000000
000000EFFFD0000000
000000BFFF60000000
0000009FFD00000000
0000007FF600000000
000000CFD000000000
000005FF5000000000
00001DFD0000000000
0001BFF50000000000
29AEFFA00000000000
4FFFFB100000000000
4EFD70000000000000
ENDCHAR
STARTCHAR thorn
ENCODING 254
SWIDTH 563 0
DWIDTH 18 0
BBX 18 31 -1 -7
BITMAP
000004FF8000000000
000007FF5000000000
00000AFF2000000000
00000CFE0000000000
00000EFC0000000000
00002FF90000000000
00005FF60000000000
00007FF429DFEA3000
0000AFF7FFFFFFF500
0000CFFFEA78DFFE20
0000FFFB10001CFF80
0003FFC0000003FFC0
0005FF70000000EFF0
0008FF40000000CFF1
000AFF10000000CFF0
000DFE00000000EFE0
000FFB00000001FFB0
003FF800000006FF80
006FF60000000CFF30
008FF50000006FFC00
00BFFD200005FFF400
00DFFFE967BFFF9000
01FFC9FFFFFFF90000
03FF905BEFEA400000
06FF60000000000000
08FF40000000000000
0BFF10000000000000
0EFE00000000000000
1FFB00000000000000
4FF900000000000000
6FF600000000000000
ENDCHAR
STARTCHAR ydieresis
ENCODING 255
SWIDTH 463 0
DWIDTH 15 0
BBX 18 31 -2 -7
BITMAP
000000014100002300
0000000CFE1005FF70
0000001FFF2008FFA0
00000009E90003DD40
000000000000000000
000000000000000000
000000000000000000
0003FFB0000000AFF7
0001FFD0000002FFD0
0000DFF0000009FF60
0000AFF300002FFD00
00008FF500008FF600
00005FF70001EFD000
00002FF90008FF6000
00000FFC001EFD0000
00000CFE007FF60000
00000AFF10DFD00000
000007FF36FF600000
000004FF6DFD000000
000002FFCFF6000000
000000EFFFD0000000
000000BFFF60000000
0000009FFD00000000
0000007FF600000000
000000CFD000000000
000005FF5000000000
00001DFD0000000000
0001BFF50000000000
29AEFFA00000000000
4FFFFB100000000000
4EFD70000000000000
ENDCHAR
STARTCHAR Amacron
ENCODING 256
SWIDTH 637 0
DWIDTH 20 0
BBX 21 29 -2 0
BITMAP
0000000000344444444420
0000000000DFFFFFFFFF50
0000000000FFFFFFFFFF30
0000000000000000000000
0000000000000000000000
0000000000000000000000
0000000000003FFC000000
000000000000BFFE000000
000000000004FFFF200000
00000000000CFFFF500000
00000000005FF8FF800000
0000000000DFD1CFB00000
0000000006FF609FE00000
000000001DFC007FF20000
000000007FF4004FF50000
00000001EFB0001FF80000
00000008FF30000DFB0000
0000002FFA00000BFE0000
0000009FF2000008FF2000
000003FF80000005FF5000
00000BFFFFFFFFFFFF8000
00004FFFFFFFFFFFFFB000
0000CFE777777777DFE000
0005FF70000000009FF100
000DFE10000000007FF400
006FF800000000004FF700
00DFF100000000002FFA00
07FF9000000000000EFD00
1EFF2000000000000CFF10
ENDCHAR
STARTCHAR amacron
ENCODING 257
SWIDTH 532 0
DWIDTH 17 0
BBX 17 24 0 0
BITMAP
000000344444444410
000001FFFFFFFFFF20
000003FFFFFFFFFF00
000000000000000000
000000000000000000
000000000000000000
000000000000000000
0000016BEFEB500000
00004EFFFFFFF90000
0004FFFB769FFF6000
001EFF500005FFC000
004FFA000000DFF000
000000000000DFF000
000000000000EFD000
000038BEFFFFFFA000
001AFFFFFFFFFF8000
01DFFC631117FF5000
09FF80000009FF3000
0EFE0000000CFF0000
1FFD0000004FFD0000
0FFF400006FFFA0000
0AFFFA89EFFFF90000
01DFFFFFFD7FF90000
0018DFEC703FFA0000
ENDCHAR
STARTCHAR Abreve
ENCODING 258
SWIDTH 637 0
DWIDTH 20 0
BBX 21 28 -2 0
BITMAP
00000000002FF30008FC00
00000000000DF9004EF700
000000000005FFEEFFC000
0000000000004BEFD81000
0000000000000000000000
0000000000003FFC000000
000000000000BFFE000000
000000000004FFFF200000
00000000000CFFFF500000
00000000005FF8FF800000
0000000000DFD1CFB00000
0000000006FF609FE00000
000000001DFC007FF20000
000000007FF4004FF50000
00000001EFB0001FF80000
00000008FF30000DFB0000
0000002FFA00000BFE0000
0000009FF2000008FF2000
000003FF80000005FF5000
00000BFFFFFFFFFFFF8000
00004FFFFFFFFFFFFFB000
0000CFE777777777DFE000
0005FF70000000009FF100
000DFE10000000007FF400
006FF800000000004FF700
00DFF100000000002FFA00
07FF9000000000000EFD00
1EFF2000000000000CFF10
ENDCHAR
STARTCHAR abreve
ENCODING 259
SWIDTH 532 0
DWIDTH 17 0
BBX 16 23 0 0
BITMAP
0000005FF0000BF9
0000002FF6007FF4
00000008FFEEFF90
000000006CFFC600
0000000000000000
0000000000000000
0000016BEFEB5000
00004EFFFFFFF900
0004FFFB769FFF60
001EFF500005FFC0
004FFA000000DFF0
000000000000DFF0
000000000000EFD0
000038BEFFFFFFA0
001AFFFFFFFFFF80
01DFFC631117FF50
09FF80000009FF30
0EFE0000000CFF00
1FFD0000004FFD00
0FFF400006FFFA00
0AFFFA89EFFFF900
01DFFFFFFD7FF900
0018DFEC703FFA00
ENDCHAR
STARTCHAR Aogonek
ENCODING 260
SWIDTH 637 0
DWIDTH 20 0
BBX 21 30 -2 -7
BITMAP
0000000000003FFC000000
000000000000BFFE000000
000000000004FFFF200000
00000000000CFFFF500000
00000000005FF8FF800000
0000000000DFD1CFB00000
0000000006FF609FE00000
000000001DFC007FF20000
000000007FF4004FF50000
00000001EFB0001FF80000
00000008FF30000DFB0000
0000002FFA00000BFE0000
0000009FF2000008FF2000
000003FF80000005FF5000
00000BFFFFFFFFFFFF8000
00004FFFFFFFFFFFFFB000
0000CFE777777777DFE000
0005FF7000000000AFF100
000DFE10000000007FF400
006FF800000000005FF700
00DFF100000000002FFA00
07FF9000000000000FFD00
1EFF2000000000000DFF10
00000000000000008FD300
000000000000000AFC1000
000000000000007FE20000
00000000000000CFA00000
00000000000000DFC36000
00000000000000AFFFF100
000000000000001AED9000
ENDCHAR
STARTCHAR aogonek
ENCODING 261
SWIDTH 532 0
DWIDTH 17 0
BBX 15 24 0 -7
BITMAP
0000016BEFEB5000
00004EFFFFFFF900
0004FFFB769FFF60
001EFF500005FFC0
004FFA000000DFF0
000000000000DFF0
000000000000EFD0
000038BEFFFFFFA0
001AFFFFFFFFFF80
01DFFC631117FF50
09FF80000009FF30
0EFE0000000CFF00
1FFD0000004FFD00
0FFF400006FFFA00
0AFFFA89EFFFF900
01DFFFFFFD7FF900
0018DFEC704FFA00
0000000003CF8000
000000004EF60000
00000001EF800000
00000005FF200000
00000006FF644000
00000003FFFF8000
000000006DEC4000
ENDCHAR
STARTCHAR Cacute
ENCODING 262
SWIDTH 636 0
DWIDTH 20 0
BBX 19 29 1 0
BITMAP
00000000000007FFE300
0000000000004FFE3000
000000000002EFE30000
00000000001CFF400000
00000000004BE4000000
00000000000000000000
000000017BEFEC810000
0000007EFFFFFFFE5000
00001AFFFC878CFFF400
0000AFFD4000007FFD00
0007FFC10000000BFF50
001EFE2000000005FF90
008FF80000000002FFC0
00EFF100000000008870
04FFB000000000000000
07FF7000000000000000
0AFF4000000000000000
0DFF1000000000000000
0FFE0000000000000000
1FFD0000000000000000
1FFC0000000000000000
1FFC0000000000466100
0EFE0000000000DFF100
0BFF3000000006FFA000
06FF900000002EFF3000
01DFF6000003DFF80000
004FFFC878CFFFA00000
0005EFFFFFFFE7000000
000018CEFEB710000000
ENDCHAR
STARTCHAR cacute
ENCODING 263
SWIDTH 512 0
DWIDTH 16 0
BBX 15 24 1 0
BITMAP
0000000000BFFB00
0000000009FFC100
000000006FFC1000
00000003FFC10000
00000008CC100000
0000000000000000
0000000000000000
000006BEFEB50000
0002CFFFFFFFA000
002EFFC768EFF900
01DFF700001DFF20
07FF80000005FF60
0EFE10000002EE80
4FF9000000000000
7FF5000000000000
AFF2000000000000
AFF1000000000000
AFF1000000000000
9FF3000000177400
5FF70000007FF500
1EFE200005FFD000
06FFE967BFFE3000
008FFFFFFFD30000
0003ADFEB6000000
ENDCHAR
STARTCHAR Ccircumflex
ENCODING 264
SWIDTH 636 0
DWIDTH 20 0
BBX 19 29 1 0
BITMAP
00000000002CFD200000
0000000006EFEFD20000
00000002BFFA1CFE3000
00000008FE7002EFA000
00000000000000000000
00000000000000000000
000000017BEFEC810000
0000007EFFFFFFFE5000
00001AFFFC878CFFF400
0000AFFD4000007FFD00
0007FFC10000000BFF50
001EFE2000000005FF90
008FF80000000002FFC0
00EFF100000000008870
04FFB000000000000000
07FF7000000000000000
0AFF4000000000000000
0DFF1000000000000000
0FFE0000000000000000
1FFD0000000000000000
1FFC0000000000000000
1FFC0000000000466100
0EFE0000000000DFF100
0BFF3000000006FFA000
06FF900000002EFF3000
01DFF6000003DFF80000
004FFFC878CFFFA00000
0005EFFFFFFFE7000000
000018CEFEB710000000
ENDCHAR
STARTCHAR ccircumflex
ENCODING 265
SWIDTH 512 0
DWIDTH 16 0
BBX 15 24 1 0
BITMAP
00000005EF900000
000001AFFEFA0000
00004DFF63FFB100
0000DFD3006FF500
0000000000000000
0000000000000000
0000000000000000
000006BEFEB50000
0002CFFFFFFFA000
002EFFC768EFF900
01DFF700001DFF20
07FF80000005FF60
0EFE10000002EE80
4FF9000000000000
7FF5000000000000
AFF2000000000000
AFF1000000000000
AFF1000000000000
9FF3000000177400
5FF70000007FF500
1EFE200005FFD000
06FFE967BFFE3000
008FFFFFFFD30000
0003ADFEB6000000
ENDCHAR
STARTCHAR Cdotaccent
ENCODING 266
SWIDTH 636 0
DWIDTH 20 0
BBX 19 29 1 0
BITMAP
00000000000241000000
00000000002EFB000000
00000000005FFE000000
00000000001CE6000000
00000000000000000000
00000000000000000000
000000017BEFEC810000
0000007EFFFFFFFE5000
00001AFFFC878CFFF400
0000AFFD4000007FFD00
0007FFC10000000BFF50
001EFE2000000005FF90
008FF80000000002FFC0
00EFF100000000008870
04FFB000000000000000
07FF7000000000000000
0AFF4000000000000000
0DFF1000000000000000
0FFE0000000000000000
1FFD0000000000000000
1FFC0000000000000000
1FFC0000000000466100
0EFE0000000000DFF100
0BFF3000000006FFA000
06FF900000002EFF3000
01DFF6000003DFF80000
004FFFC878CFFFA00000
0005EFFFFFFFE7000000
000018CEFEB710000000
ENDCHAR
STARTCHAR cdotaccent
ENCODING 267
SWIDTH 512 0
DWIDTH 16 0
BBX 15 24 1 0
BITMAP
0000000033000000
00000006FF600000
0000000AFF900000
00000004ED300000
0000000000000000
0000000000000000
0000000000000000
000006BEFEB50000
0002CFFFFFFFA000
002EFFC768EFF900
01DFF700001DFF20
07FF80000005FF60
0EFE10000002EE80
4FF9000000000000
7FF5000000000000
AFF2000000000000
AFF1000000000000
AFF1000000000000
9FF3000000177400
5FF70000007FF500
1EFE200005FFD000
06FFE967BFFE3000
008FFFFFFFD30000
0003ADFEB6000000
ENDCHAR
STARTCHAR Ccaron
ENCODING 268
SWIDTH 636 0
DWIDTH 20 0
BBX 19 29 1 0
BITMAP
00000000BFA0009ED200
000000001DF71BFC1000
0000000002EFDFA00000
00000000004FF8000000
00000000000000000000
00000000000000000000
000000017BEFEC810000
0000007EFFFFFFFE5000
00001AFFFC878CFFF400
0000AFFD4000007FFD00
0007FFC10000000BFF50
001EFE2000000005FF90
008FF80000000002FFC0
00EFF100000000008870
04FFB000000000000000
07FF7000000000000000
0AFF4000000000000000
0DFF1000000000000000
0FFE0000000000000000
1FFD0000000000000000
1FFC0000000000000000
1FFC0000000000466100
0EFE0000000000DFF100
0BFF3000000006FFA000
06FF900000002EFF3000
01DFF6000003DFF80000
004FFFC878CFFFA00000
0005EFFFFFFFE7000000
000018CEFEB710000000
ENDCHAR
STARTCHAR ccaron
ENCODING 269
SWIDTH 512 0
DWIDTH 16 0
BBX 15 24 1 0
BITMAP
00002EF6002CFA00
000004FE33EF8000
0000006FDFF60000
00000008FE400000
0000000000000000
0000000000000000
0000000000000000
000006BEFEB50000
0002CFFFFFFFA000
002EFFC768EFF900
01DFF700001DFF20
07FF80000005FF60
0EFE10000002EE80
4FF9000000000000
7FF5000000000000
AFF2000000000000
AFF1000000000000
AFF1000000000000
9FF3000000177400
5FF70000007FF500
1EFE200005FFD000
06FFE967BFFE3000
008FFFFFFFD30000
0003ADFEB6000000
ENDCHAR
STARTCHAR Dcaron
ENCODING 270
SWIDTH 641 0
DWIDTH 21 0
BBX 19 29 1 0
BITMAP
0000000CF9001AFC1000
00000002EF52CFA10000
000000003FEEF8000000
0000000005FF60000000
00000000000000000000
00000000000000000000
0003FFFFFFEC93000000
0006FFFFFFFFFF900000
0008FFA7778BFFFB0000
000BFF3000003DFF8000
000EFF00000001EFF200
001FFD000000006FF800
004FFA000000001FFC00
006FF8000000000DFE00
009FF5000000000DFF10
00BFF3000000000DFF10
00EFF0000000000EFF00
02FFC0000000001FFD00
04FFA0000000003FFB00
07FF70000000006FF700
09FF5000000000AFF400
0CFF2000000002FFD000
0EFE000000000AFF7000
2FFC000000005FFD1000
5FF900000005FFF40000
7FF70000029FFF600000
AFF97778BFFFE6000000
CFFFFFFFFFFB30000000
FFFFFFEDB73000000000
ENDCHAR
STARTCHAR dcaron
ENCODING 271
SWIDTH 625 0
DWIDTH 20 0
BBX 22 24 1 0
BITMAP
00000000000001FFB03FF8
00000000000004FF906FF5
00000000000007FF60BFF1
0000000000000AFF33FF90
0000000000000CFF1CFD10
0000000000000FFD05C200
0000000000003FFB000000
000028DFEC705FF8000000
0005EFFFFFFC9FF5000000
004FFFD879EFFFF3000000
01EFF900001CFFF0000000
08FFA0000003FFD0000000
0EFF10000002FFA0000000
4FF900000005FF70000000
7FF500000008FF50000000
AFF20000000AFF20000000
CFF10000000DFE00000000
CFF10000001FFC00000000
AFF20000004FF900000000
8FF7000000AFF700000000
3FFD100019FFF400000000
0BFFE879EFFFF200000000
02DFFFFFFABFE000000000
0018DFEB50DFB000000000
ENDCHAR
STARTCHAR Dcroat
ENCODING 272
SWIDTH 655 0
DWIDTH 21 0
BBX 20 23 0 0
BITMAP
00000BFFFFFFDA600000
00000EFFFFFFFFFD3000
00001FFD7778AEFFF400
00004FFA0000008FFE10
00007FF700000008FF90
00009FF500000001EFE0
0000CFF2000000009FF4
0000EFE0000000006FF6
0002FFC0000000006FF8
0005FF90000000006FF8
6FFFFFFFFF4000007FF7
9FFFFFFFFF1000009FF5
455EFF6555000000BFF3
000FFE0000000000EFE0
003FFB0000000003FFB0
005FF9000000000AFF50
008FF6000000003FFE10
00AFF400000001CFF600
00DFF10000001BFFB000
00FFE0000005DFFC1000
03FFD7778AEFFFB10000
05FFFFFFFFFFE6000000
08FFFFFFEC9500000000
ENDCHAR
STARTCHAR dcroat
ENCODING 273
SWIDTH 583 0
DWIDTH 19 0
BBX 20 24 1 0
BITMAP
00000000000002FFB000
00000000000005FF8000
0000000007FFFFFFFFF3
000000000AFFFFFFFFF0
0000000004555EFF5550
0000000000000FFC0000
0000000000003FFA0000
000028DFEC716FF70000
0005EFFFFFFDAFF40000
004FFFD979EFFFF20000
01EFF900001CFFE00000
08FFA0000003FFC00000
0EFF10000002FF900000
4FF900000005FF700000
8FF500000008FF400000
BFF20000000AFF200000
CFF10000000DFE000000
CFF00000001FFC000000
AFF10000003FF9000000
8FF50000009FF6000000
3FFD100019FFF4000000
0BFFD879EFFFF1000000
02DFFFFFFDCFE0000000
0018DFEB60CFB0000000
ENDCHAR
STARTCHAR Emacron
ENCODING 274
SWIDTH 556 0
DWIDTH 18 0
BBX 18 29 1 0
BITMAP
000000244444444420
0000009FFFFFFFFF90
000000CFFFFFFFFF60
000000000000000000
000000000000000000
000000000000000000
0003FFFFFFFFFFFFFA
0006FFFFFFFFFFFFF7
0008FFA77777777773
000BFF300000000000
000EFF100000000000
001FFD000000000000
004FFA000000000000
006FF8000000000000
009FF5000000000000
00BFF3000000000000
00EFFFFFFFFFFF9000
02FFFFFFFFFFFF6000
04FFC7777777772000
07FF80000000000000
09FF50000000000000
0CFF20000000000000
0EFF00000000000000
2FFC00000000000000
5FFA00000000000000
7FF700000000000000
AFF977777777772000
CFFFFFFFFFFFFF4000
FFFFFFFFFFFFFF1000
ENDCHAR
STARTCHAR emacron
ENCODING 275
SWIDTH 518 0
DWIDTH 17 0
BBX 15 24 1 0
BITMAP
0000144444444430
00007FFFFFFFFFB0
0000AFFFFFFFFF80
0000000000000000
0000000000000000
0000000000000000
0000000000000000
000004AEFEB40000
0001AFFFFFFF9000
001DFFD768EFF600
00AFF800002EFD00
05FFA0000007FF30
0CFF20000004FF60
2FFA00000004FF70
5FFFFFFFFFFFFF60
8FFFFFFFFFFFFF50
AFF7555555555510
AFF2000000000000
8FF4000000000000
5FF9000000040000
0DFF5000008FB100
04FFFA668DFFA000
006FFFFFFFF80000
00029DEEC8300000
ENDCHAR
STARTCHAR Ebreve
ENCODING 276
SWIDTH 556 0
DWIDTH 18 0
BBX 18 28 1 0
BITMAP
0000000DF60005FF10
0000000AFC102DFB00
00000003EFFDFFE200
000000002AEFE91000
000000000000000000
0003FFFFFFFFFFFFFA
0006FFFFFFFFFFFFF7
0008FFA77777777773
000BFF300000000000
000EFF100000000000
001FFD000000000000
004FFA000000000000
006FF8000000000000
009FF5000000000000
00BFF3000000000000
00EFFFFFFFFFFF9000
02FFFFFFFFFFFF6000
04FFC7777777772000
07FF80000000000000
09FF50000000000000
0CFF20000000000000
0EFF00000000000000
2FFC00000000000000
5FFA00000000000000
7FF700000000000000
AFF977777777772000
CFFFFFFFFFFFFF4000
FFFFFFFFFFFFFF1000
ENDCHAR
STARTCHAR ebreve
ENCODING 277
SWIDTH 518 0
DWIDTH 17 0
BBX 15 23 1 0
BITMAP
00000BF80003FF30
000008FD101CFD00
000001DFFDFFE300
00000029EFEA2000
0000000000000000
0000000000000000
000004AEFEB40000
0001AFFFFFFF9000
001DFFD768EFF600
00AFF800002EFD00
05FFA0000007FF30
0CFF20000004FF60
2FFA00000004FF70
5FFFFFFFFFFFFF60
8FFFFFFFFFFFFF50
AFF7555555555510
AFF2000000000000
8FF4000000000000
5FF9000000040000
0DFF5000008FB100
04FFFA668DFFA000
006FFFFFFFF80000
00029DEEC8300000
ENDCHAR
STARTCHAR Edotaccent
ENCODING 278
SWIDTH 556 0
DWIDTH 18 0
BBX 18 29 1 0
BITMAP
000000000024100000
0000000002EFB00000
0000000004FFE00000
0000000001CE600000
000000000000000000
000000000000000000
0003FFFFFFFFFFFFFA
0006FFFFFFFFFFFFF7
0008FFA77777777773
000BFF300000000000
000EFF100000000000
001FFD000000000000
004FFA000000000000
006FF8000000000000
009FF5000000000000
00BFF3000000000000
00EFFFFFFFFFFF9000
02FFFFFFFFFFFF6000
04FFC7777777772000
07FF80000000000000
09FF50000000000000
0CFF20000000000000
0EFF00000000000000
2FFC00000000000000
5FFA00000000000000
7FF700000000000000
AFF977777777772000
CFFFFFFFFFFFFF4000
FFFFFFFFFFFFFF1000
ENDCHAR
STARTCHAR edotaccent
ENCODING 279
SWIDTH 518 0
DWIDTH 17 0
BBX 15 24 1 0
BITMAP
0000000014100000
00000000DFD00000
00000002FFF10000
00000000AE800000
0000000000000000
0000000000000000
0000000000000000
000004AEFEB40000
0001AFFFFFFF9000
001DFFD768EFF600
00AFF800002EFD00
05FFA0000007FF30
0CFF20000004FF60
2FFA00000004FF70
5FFFFFFFFFFFFF60
8FFFFFFFFFFFFF50
AFF7555555555510
AFF2000000000000
8FF4000000000000
5FF9000000040000
0DFF5000008FB100
04FFFA668DFFA000
006FFFFFFFF80000
00029DEEC8300000
ENDCHAR
STARTCHAR Eogonek
ENCODING 280
SWIDTH 556 0
DWIDTH 18 0
BBX 18 30 1 -7
BITMAP
0003FFFFFFFFFFFFFA
0006FFFFFFFFFFFFF7
0008FFA77777777773
000BFF300000000000
000EFF100000000000
001FFD000000000000
004FFA000000000000
006FF8000000000000
009FF5000000000000
00BFF3000000000000
00EFFFFFFFFFFF9000
02FFFFFFFFFFFF6000
04FFC7777777772000
07FF80000000000000
09FF50000000000000
0CFF20000000000000
0EFF00000000000000
2FFC00000000000000
5FFA00000000000000
7FF700000000000000
AFF977777777772000
CFFFFFFFFFFFFF4000
FFFFFFFFFFFFFF1000
0000000009FE500000
00000000AFE3000000
00000005FF40000000
00000009FD00000000
0000000AFE45200000
00000006FFFF400000
000000008EEA200000
ENDCHAR
STARTCHAR eogonek
ENCODING 281
SWIDTH 518 0
DWIDTH 17 0
BBX 15 23 1 -6
BITMAP
000005BEFEA40000
0002CFFFFFFF7000
002EFFC768EFF400
00CFF700003FFC00
06FF90000009FF20
0DFE10000005FF40
4FF800000005FF50
7FFFFFFFFFFFFF40
AFFFFFFFFFFFFF30
BFF6555555555510
BFF0000000000000
9FF2000000000000
6FF8000000040000
1EFE3000018FA000
06FFF9668EFFA000
007FFFFFFFF80000
00039DFFFA200000
000005FF70000000
00002FF700000000
00008FE000000000
00009FF443000000
00005FFFF6000000
000008EEB3000000
ENDCHAR
STARTCHAR Ecaron
ENCODING 282
SWIDTH 556 0
DWIDTH 18 0
BBX 18 29 1 0
BITMAP
0000000AFB0009ED20
00000001CF71BFC100
000000002EFDFA1000
0000000003EF800000
000000000000000000
000000000000000000
0003FFFFFFFFFFFFFA
0006FFFFFFFFFFFFF7
0008FFA77777777773
000BFF300000000000
000EFF100000000000
001FFD000000000000
004FFA000000000000
006FF8000000000000
009FF5000000000000
00BFF3000000000000
00EFFFFFFFFFFF9000
02FFFFFFFFFFFF6000
04FFC7777777772000
07FF80000000000000
09FF50000000000000
0CFF20000000000000
0EFF00000000000000
2FFC00000000000000
5FFA00000000000000
7FF700000000000000
AFF977777777772000
CFFFFFFFFFFFFF4000
FFFFFFFFFFFFFF1000
ENDCHAR
STARTCHAR ecaron
ENCODING 283
SWIDTH 518 0
DWIDTH 17 0
BBX 15 24 1 0
BITMAP
000008FC1007EE40
000000BF909FD200
0000001CFDFC1000
00000002EFA00000
0000000000000000
0000000000000000
0000000000000000
000004AEFEB40000
0001AFFFFFFF9000
001DFFD768EFF600
00AFF800002EFD00
05FFA0000007FF30
0CFF20000004FF60
2FFA00000004FF70
5FFFFFFFFFFFFF60
8FFFFFFFFFFFFF50
AFF7555555555510
AFF2000000000000
8FF4000000000000
5FF9000000040000
0DFF5000008FB100
04FFFA668DFFA000
006FFFFFFFF80000
00029DEEC8300000
ENDCHAR
STARTCHAR Gcircumflex
ENCODING 284
SWIDTH 665 0
DWIDTH 21 0
BBX 18 29 2 0
BITMAP
0000000003DFC10000
000000008FFEFC1000
0000002CFF82DFD200
000000AFE5003EF800
000000000000000000
000000000000000000
00000027BEFEC82000
000008FFFFFFFFF700
0001BFFFC978CFFF70
000BFFD4000005FFF2
007FFD100000009FF9
01EFF3000000002FFD
07FF90000000000CDD
0DFF20000000000000
2FFC00000000000000
6FF800000000000000
9FF500000000000000
CFF300000000000000
EFF100000DFFFFFFF2
FFE000001FFFFFFFE0
FFE00000177778FFC0
EFF00000000005FFA0
CFF30000000008FF70
8FF7000000000BFF50
2FFE100000000EFF20
0AFFB1000002AFFE00
01DFFEA779CFFFF500
001CFFFFFFFFFC3000
00004ADFEDB8300000
ENDCHAR
STARTCHAR gcircumflex
ENCODING 285
SWIDTH 549 0
DWIDTH 18 0
BBX 17 31 0 -7
BITMAP
000000001AFE400000
00000004DFEFE40000
0000019FFC2AFF5000
000005FF9000CFD000
000000000000000000
000000000000000000
000000000000000000
0000018CEEC701FF80
00005EFFFFFFC6FF60
0004FFFD979EFFFF30
001EFF900001CFFF10
007FFA0000003FFD00
00EFF10000002FFB00
04FFA00000005FF800
07FF500000008FF600
0AFF30000000AFF300
0BFF10000000DFF100
0CFF10000001FFD000
0AFF30000003FFB000
08FF7000000AFF8000
03FFD200019FFF6000
00BFFE979EFFFF3000
002DFFFFFFADFF1000
00018DFEB50EFD0000
00000000003FFA0000
00000000009FF60000
1C20000002FFF10000
AFD200002DFF800000
5FFF966AFFFB000000
05EFFFFFFFA1000000
0028CEFDA300000000
ENDCHAR
STARTCHAR Gbreve
ENCODING 286
SWIDTH 665 0
DWIDTH 21 0
BBX 18 28 2 0
BITMAP
0000001FF40007FD00
0000000CFA003EF800
00000004FFEDFFC100
000000004BEFD81000
000000000000000000
00000027BEFEC82000
000008FFFFFFFFF700
0001BFFFC978CFFF70
000BFFD4000005FFF2
007FFD100000009FF9
01EFF3000000002FFD
07FF90000000000CDD
0DFF20000000000000
2FFC00000000000000
6FF800000000000000
9FF500000000000000
CFF300000000000000
EFF100000DFFFFFFF2
FFE000001FFFFFFFE0
FFE00000177778FFC0
EFF00000000005FFA0
CFF30000000008FF70
8FF7000000000BFF50
2FFE100000000EFF20
0AFFB1000002AFFE00
01DFFEA779CFFFF500
001CFFFFFFFFFC3000
00004ADFEDB8300000
ENDCHAR
STARTCHAR gbreve
ENCODING 287
SWIDTH 549 0
DWIDTH 18 0
BBX 17 30 0 -7
BITMAP
000000BF90002FF300
0000007FE201BFD000
0000001DFFDFFF4000
000000019DFEA30000
000000000000000000
000000000000000000
0000018CEEC701FF80
00005EFFFFFFC6FF60
0004FFFD979EFFFF30
001EFF900001CFFF10
007FFA0000003FFD00
00EFF10000002FFB00
04FFA00000005FF800
07FF500000008FF600
0AFF30000000AFF300
0BFF10000000DFF100
0CFF10000001FFD000
0AFF30000003FFB000
08FF7000000AFF8000
03FFD200019FFF6000
00BFFE979EFFFF3000
002DFFFFFFADFF1000
00018DFEB50EFD0000
00000000003FFA0000
00000000009FF60000
1C20000002FFF10000
AFD200002DFF800000
5FFF966AFFFB000000
05EFFFFFFFA1000000
0028CEFDA300000000
ENDCHAR
STARTCHAR Gdotaccent
ENCODING 288
SWIDTH 665 0
DWIDTH 21 0
BBX 18 29 2 0
BITMAP
000000000024000000
0000000003FF900000
0000000007FFC00000
0000000002DE500000
000000000000000000
000000000000000000
00000027BEFEC82000
000008FFFFFFFFF700
0001BFFFC978CFFF70
000BFFD4000005FFF2
007FFD100000009FF9
01EFF3000000002FFD
07FF90000000000CDD
0DFF20000000000000
2FFC00000000000000
6FF800000000000000
9FF500000000000000
CFF300000000000000
EFF100000DFFFFFFF2
FFE000001FFFFFFFE0
FFE00000177778FFC0
EFF00000000005FFA0
CFF30000000008FF70
8FF7000000000BFF50
2FFE100000000EFF20
0AFFB1000002AFFE00
01DFFEA779CFFFF500
001CFFFFFFFFFC3000
00004ADFEDB8300000
ENDCHAR
STARTCHAR gdotaccent
ENCODING 289
SWIDTH 549 0
DWIDTH 18 0
BBX 17 31 0 -7
BITMAP
000000000141000000
000000000DFE100000
000000001FFF200000
000000000AE9000000
000000000000000000
000000000000000000
000000000000000000
0000018CEEC701FF80
00005EFFFFFFC6FF60
0004FFFD979EFFFF30
001EFF900001CFFF10
007FFA0000003FFD00
00EFF10000002FFB00
04FFA00000005FF800
07FF500000008FF600
0AFF30000000AFF300
0BFF10000000DFF100
0CFF10000001FFD000
0AFF30000003FFB000
08FF7000000AFF8000
03FFD200019FFF6000
00BFFE979EFFFF3000
002DFFFFFFADFF1000
00018DFEB50EFD0000
00000000003FFA0000
00000000009FF60000
1C20000002FFF10000
AFD200002DFF800000
5FFF966AFFFB000000
05EFFFFFFFA1000000
0028CEFDA300000000
ENDCHAR
STARTCHAR uni0122
ENCODING 290
SWIDTH 665 0
DWIDTH 21 0
BBX 18 31 2 -8
BITMAP
00000027BEFEC82000
000008FFFFFFFFF700
0001BFFFC978CFFF70
000BFFD4000005FFF2
007FFD100000009FF9
01EFF3000000002FFD
07FF90000000000CDD
0DFF20000000000000
2FFC00000000000000
6FF800000000000000
9FF500000000000000
CFF300000000000000
EFF100000DFFFFFFF2
FFE000001FFFFFFFE0
FFE00000177778FFC0
EFF00000000005FFA0
CFF30000000008FF70
8FF7000000000BFF50
2FFE100000000EFF20
0AFFB1000002AFFE00
01DFFEA779CFFFF500
001CFFFFFFFFFC3000
00004ADFEDB8300000
000000000000000000
000000000000000000
000005FF5000000000
000008FF2000000000
00000DFD0000000000
00005FF70000000000
0001EFC00000000000
00006B100000000000
ENDCHAR
STARTCHAR uni0123
ENCODING 291
SWIDTH 549 0
DWIDTH 18 0
BBX 17 33 0 -7
BITMAP
00000000000A600000
00000000008FF30000
0000000003FFC00000
0000000009FF500000
000000000DFF100000
000000001FFC000000
000000003FF9000000
000000000000000000
000000000000000000
0000018CEEC701FF80
00005EFFFFFFC6FF60
0004FFFD979EFFFF30
001EFF900001CFFF10
007FFA0000003FFD00
00EFF10000002FFB00
04FFA00000005FF800
07FF500000008FF600
0AFF30000000AFF300
0BFF10000000DFF100
0CFF10000001FFD000
0AFF30000003FFB000
08FF7000000AFF8000
03FFD200019FFF6000
00BFFE979EFFFF3000
002DFFFFFFADFF1000
00018DFEB50EFD0000
00000000003FFA0000
00000000009FF60000
1C20000002FFF10000
AFD200002DFF800000
5FFF966AFFFB000000
05EFFFFFFFA1000000
0028CEFDA300000000
ENDCHAR
STARTCHAR Hcircumflex
ENCODING 292
SWIDTH 696 0
DWIDTH 22 0
BBX 21 29 1 0
BITMAP
000000000008FF60000000
0000000002CFFFF7000000
000000006EFE36FF800000
00000002FFB1009FF10000
0000000000000000000000
0000000000000000000000
0003FFB00000000003FFC0
0006FF800000000005FF90
0008FF600000000008FF60
000BFF30000000000AFF40
000EFF10000000000DFF10
001FFD00000000001FFE00
004FFB00000000003FFB00
006FF800000000006FF900
009FF500000000008FF600
00BFF30000000000BFF300
00EFFFFFFFFFFFFFFFF100
02FFFFFFFFFFFFFFFFD000
04FFC77777777779FFB000
07FF800000000006FF8000
09FF500000000008FF6000
0CFF20000000000BFF3000
0EFF00000000000EFF0000
2FFC00000000001FFD0000
5FFA00000000004FFA0000
7FF700000000006FF80000
AFF400000000009FF50000
CFF20000000000CFF20000
FFE00000000000EFF00000
ENDCHAR
STARTCHAR hcircumflex
ENCODING 293
SWIDTH 539 0
DWIDTH 17 0
BBX 16 29 0 0
BITMAP
000000001AFE4000
00000004DFEFF500
0000019FFC29FF50
000005FF9000CFD0
0000000000000000
00006FF600000000
00009FF300000000
0000CFF000000000
0000EFD000000000
0002FFA000000000
0005FF7000000000
0007FF4000000000
000AFF128DFEB300
000CFE5EFFFFFF40
000FFEFFA78DFFD0
003FFFC20001EFF2
005FFD1000009FF4
008FF50000008FF4
00AFF2000000AFF3
00DFF0000000CFF0
01FFC0000000FFD0
03FF90000002FFA0
06FF70000005FF70
08FF40000007FF50
0BFF2000000AFF20
0EFE0000000CFF00
1FFB0000000FFC00
4FF90000003FFA00
6FF60000005FF700
ENDCHAR
STARTCHAR Hbar
ENCODING 294
SWIDTH 684 0
DWIDTH 22 0
BBX 23 23 0 0
BITMAP
00004FFA00000000004FFA00
00007FF700000000006FF800
00009FF500000000009FF500
0000CFF30000000000BFF300
0000EFF00000000000DFF100
02FFFFFFFFFFFFFFFFFFFFE0
04FFFFFFFFFFFFFFFFFFFFB0
0139FF933333333338FF9320
0009FF500000000009FF5000
000CFF20000000000CFF3000
000EFFFFFFFFFFFFFFFF0000
002FFFFFFFFFFFFFFFFD0000
005FFB7777777777AFFA0000
007FF600000000007FF70000
00AFF40000000000AFF50000
00DFF10000000000CFF20000
01FFE00000000000FFE00000
03FFB00000000003FFC00000
06FF800000000005FF900000
08FF600000000008FF600000
0BFF30000000000AFF400000
0EFF10000000000DFF100000
1FFD00000000001FFE000000
ENDCHAR
STARTCHAR hbar
ENCODING 295
SWIDTH 553 0
DWIDTH 18 0
BBX 15 24 1 0
BITMAP
0000EFD000000000
0003FF9000000000
7FFFFFFFFF300000
9FFFFFFFFF100000
455DFF6555000000
000EFD0000000000
001FFB0000000000
004FF805BEFD7000
006FF7BFFFFFFB00
009FFEFC87AFFF50
00BFFF600008FF90
00EFF6000002FFB0
01FFC0000001FFB0
04FF90000003FFA0
06FF70000005FF70
09FF40000008FF50
0CFF1000000AFF20
0EFE0000000DFE00
2FFB0000000FFC00
4FF90000003FF900
7FF60000005FF700
9FF30000008FF400
CFF1000000BFF200
EFD0000000DFE000
ENDCHAR
STARTCHAR Itilde
ENCODING 296
SWIDTH 268 0
DWIDTH 9 0
BBX 12 30 1 0
BITMAP
000220000164
01BFFA1005FA
0AFFFFD55DF6
2FF417FFFFD0
5E90003CFB20
000000000000
000000000000
0000FFE00000
0002FFB00000
0005FF900000
0008FF600000
000AFF400000
000DFF100000
000FFE000000
003FFB000000
006FF8000000
008FF6000000
00BFF3000000
00DFF1000000
01FFD0000000
03FFA0000000
06FF80000000
09FF50000000
0BFF30000000
0EFF00000000
1FFD00000000
4FFA00000000
6FF700000000
9FF500000000
CFF200000000
ENDCHAR
STARTCHAR itilde
ENCODING 297
SWIDTH 244 0
DWIDTH 8 0
BBX 12 25 0 0
BITMAP
000310000262
03DFF70009F5
1DFFFFB47FF2
6FD22AFFFF90
9E50006EE900
000000000000
000000000000
000000000000
0006FF600000
0009FF300000
000CFF100000
000EFD000000
002FFB000000
004FF8000000
007FF5000000
00AFF3000000
00CFF0000000
00FFD0000000
02FFA0000000
05FF70000000
08FF50000000
0AFF20000000
0DFF00000000
0FFC00000000
3FFA00000000
ENDCHAR
STARTCHAR Imacron
ENCODING 298
SWIDTH 268 0
DWIDTH 9 0
BBX 12 29 1 0
BITMAP
024444444442
0BFFFFFFFFF7
0EFFFFFFFFF4
000000000000
000000000000
000000000000
0000FFE00000
0002FFB00000
0005FF900000
0008FF600000
000AFF400000
000DFF100000
000FFE000000
003FFB000000
006FF8000000
008FF6000000
00BFF3000000
00DFF1000000
01FFD0000000
03FFA0000000
06FF80000000
09FF50000000
0BFF30000000
0EFF00000000
1FFD00000000
4FFA00000000
6FF700000000
9FF500000000
CFF200000000
ENDCHAR
STARTCHAR imacron
ENCODING 299
SWIDTH 244 0
DWIDTH 8 0
BBX 12 24 0 0
BITMAP
034444444441
1FFFFFFFFFF2
3FFFFFFFFFF0
000000000000
000000000000
000000000000
000000000000
0006FF600000
0009FF300000
000CFF100000
000EFD000000
002FFB000000
004FF8000000
007FF5000000
00AFF3000000
00CFF0000000
00FFD0000000
02FFA0000000
05FF70000000
08FF50000000
0AFF20000000
0DFF00000000
0FFC00000000
3FFA00000000
ENDCHAR
STARTCHAR Ibreve
ENCODING 300
SWIDTH 268 0
DWIDTH 9 0
BBX 11 28 1 0
BITMAP
00FF40007FD0
00CFA003EF80
004FFEDFFD10
0004BEFD8100
000000000000
0000FFE00000
0002FFB00000
0005FF900000
0008FF600000
000AFF400000
000DFF100000
000FFE000000
003FFB000000
006FF8000000
008FF6000000
00BFF3000000
00DFF1000000
01FFD0000000
03FFA0000000
06FF80000000
09FF50000000
0BFF30000000
0EFF00000000
1FFD00000000
4FFA00000000
6FF700000000
9FF500000000
CFF200000000
ENDCHAR
STARTCHAR ibreve
ENCODING 301
SWIDTH 244 0
DWIDTH 8 0
BBX 11 23 0 0
BITMAP
05FF0000BF90
02FF6006FF40
008FFEEFF900
0006CFFC6000
000000000000
000000000000
0006FF600000
0009FF300000
000CFF100000
000EFD000000
002FFB000000
004FF8000000
007FF5000000
00AFF3000000
00CFF0000000
00FFD0000000
02FFA0000000
05FF70000000
08FF50000000
0AFF20000000
0DFF00000000
0FFC00000000
3FFA00000000
ENDCHAR
STARTCHAR Iogonek
ENCODING 302
SWIDTH 268 0
DWIDTH 9 0
BBX 10 30 -2 -7
BITMAP
0000000FFE
0000002FFB
0000005FF9
0000008FF6
000000AFF4
000000DFF1
000000FFE0
000003FFB0
000006FF80
000008FF60
00000BFF30
00000DFF10
00001FFD00
00003FFA00
00006FF800
00009FF500
0000BFF300
0000EFF000
0001FFD000
0004FFA000
0006FF7000
0009FF5000
000FFF2000
01AFE40000
0BFD200000
6FF3000000
AFD0000000
AFE3520000
6FFFF40000
08EEA20000
ENDCHAR
STARTCHAR iogonek
ENCODING 303
SWIDTH 240 0
DWIDTH 8 0
BBX 11 31 -3 -7
BITMAP
000000004300
00000008FF50
0000000BFF70
00000005EC20
000000000000
000000000000
000000000000
0000006FF600
0000009FF300
000000BFF100
000000EFD000
000002FFB000
000004FF8000
000007FF5000
000009FF3000
00000CFF0000
00000EFD0000
00002FFA0000
00005FF70000
00007FF50000
0000AFF20000
0000DFF00000
0000FFC00000
0004FFA00000
004EFA100000
04FF80000000
0DFB00000000
2FF500000000
2FF935000000
0DFFFC000000
03CED6000000
ENDCHAR
STARTCHAR Idotaccent
ENCODING 304
SWIDTH 268 0
DWIDTH 9 0
BBX 8 29 1 0
BITMAP
00000240
00003FF9
00007FFC
00002DE5
00000000
00000000
0000FFE0
0002FFB0
0005FF90
0008FF60
000AFF40
000DFF10
000FFE00
003FFB00
006FF800
008FF600
00BFF300
00DFF100
01FFD000
03FFA000
06FF8000
09FF5000
0BFF3000
0EFF0000
1FFD0000
4FFA0000
6FF70000
9FF50000
CFF20000
ENDCHAR
STARTCHAR dotlessi
ENCODING 305
SWIDTH 244 0
DWIDTH 8 0
BBX 7 17 0 0
BITMAP
0006FF60
0009FF30
000CFF10
000EFD00
002FFB00
004FF800
007FF500
00AFF300
00CFF000
00FFD000
02FFA000
05FF7000
08FF5000
0AFF2000
0DFF0000
0FFC0000
3FFA0000
ENDCHAR
STARTCHAR IJ
ENCODING 306
SWIDTH 808 0
DWIDTH 26 0
BBX 25 23 1 0
BITMAP
0000FFE000000000000004FFA0
0002FFB000000000000007FF70
0005FF9000000000000009FF50
0008FF600000000000000CFF20
000AFF400000000000000EFF00
000DFF100000000000002FFC00
000FFE000000000000005FFA00
003FFB000000000000007FF700
006FF800000000000000AFF500
008FF600000000000000CFF200
00BFF300000000000000FFE000
00DFF100000000000002FFC000
01FFD000000000000005FF9000
03FFA000000000000008FF7000
06FF800000000000000AFF4000
09FF500000000000000DFF2000
0BFF300199800000001FFE0000
0EFF0001FFD00000005FFA0000
1FFD0000EFF2000001DFF50000
4FFA00009FFA00001BFFB00000
6FF700002EFFD88AEFFD200000
9FF5000004EFFFFFFFC2000000
CFF200000018CEFEA500000000
ENDCHAR
STARTCHAR ij
ENCODING 307
SWIDTH 476 0
DWIDTH 15 0
BBX 15 31 0 -7
BITMAP
0000043000002510
00008FF50001EFC0
0000BFF70004FFE0
00005EC20000BE60
0000000000000000
0000000000000000
0000000000000000
0006FF60000DFE00
0009FF30001FFC00
000BFF10003FF900
000EFD00006FF700
002FFB00008FF400
004FF80000BFF200
007FF50000EFE000
009FF30001FFC000
00CFF00004FF9000
00EFD00006FF7000
02FFA00009FF4000
05FF70000BFF1000
07FF50000EFE0000
0AFF20001FFB0000
0DFF00004FF90000
0FFC00006FF60000
3FFA00009FF40000
00000000BFF10000
00000000EFE00000
00000002FFB00000
00000008FF800000
000077AFFF200000
0000DFFFF7000000
0000BEEB50000000
ENDCHAR
STARTCHAR Jcircumflex
ENCODING 308
SWIDTH 540 0
DWIDTH 17 0
BBX 21 29 0 0
BITMAP
000000000000007FF70000
0000000000002BFFFF8000
000000000006EFE45FF900
00000000001FFC2008FF20
0000000000000000000000
0000000000000000000000
00000000000000DFF10000
00000000000001FFE00000
00000000000003FFB00000
00000000000006FF800000
00000000000008FF600000
0000000000000BFF300000
0000000000000EFF100000
0000000000001FFD000000
0000000000004FFB000000
0000000000006FF8000000
0000000000009FF5000000
000000000000BFF3000000
000000000000EFF0000000
000000000001FFD0000000
000000000004FFA0000000
000000000007FF80000000
69920000000AFF50000000
AFF40000000EFF10000000
8FF80000007FFB00000000
3FFE300006FFF300000000
0BFFFA88CFFF6000000000
01BFFFFFFFE60000000000
0005BEFEC8100000000000
ENDCHAR
STARTCHAR jcircumflex
ENCODING 309
SWIDTH 249 0
DWIDTH 8 0
BBX 15 30 -4 -7
BITMAP
000000005EFA0000
00000019FFEFB000
000004DFF63EFB10
00000DFD3005FF50
0000000000000000
0000000000000000
00000003FFA00000
00000005FF700000
00000008FF500000
0000000AFF200000
0000000DFF000000
0000001FFC000000
0000003FFA000000
0000005FF7000000
0000008FF5000000
000000BFF2000000
000000DFE0000000
000001FFC0000000
000003FFA0000000
000006FF70000000
000008FF50000000
00000BFF20000000
00000DFE00000000
00001FFC00000000
00004FF900000000
00008FF600000000
0001EFF200000000
477DFF9000000000
9FFFFC1000000000
9EFC700000000000
ENDCHAR
STARTCHAR uni0136
ENCODING 310
SWIDTH 612 0
DWIDTH 20 0
BBX 20 29 1 -6
BITMAP
0003FFB000000002DFFB
0006FF800000003EFFA0
0008FF60000003EFFA00
000BFF3000003EFFA000
000EFF100004EFF90000
001FFD00004EFF900000
004FFA0004FFF9000000
006FF8005FFF80000000
009FF505FFF800000000
00BFF36FFF7000000000
00EFF6FFFD0000000000
02FFFFFFFF5000000000
04FFFFFAFFD000000000
07FFFE40DFF700000000
09FFE3004FFE10000000
0CFF30000BFF90000000
0EFE000003FFF2000000
2FFC0000009FFA000000
5FF90000001EFF400000
7FF700000007FFC00000
AFF400000001DFF50000
CFF2000000005FFD0000
FFE0000000000CFF7000
000002FF800000000000
000005FF500000000000
00000AFF200000000000
00002FFA000000000000
0000BFE1000000000000
00004C20000000000000
ENDCHAR
STARTCHAR uni0137
ENCODING 311
SWIDTH 496 0
DWIDTH 16 0
BBX 17 30 0 -6
BITMAP
00006FF60000000000
00009FF40000000000
0000BFF10000000000
0000EFD00000000000
0002FFB00000000000
0004FF800000000000
0007FF500000000000
000AFF300001BFFC10
000CFF00001CFFB100
000FFD0002DFFA0000
002FFA003DFFA00000
005FF703EFF9000000
008FF54EFF80000000
00AFF6EFF700000000
00DFFEFFC000000000
00FFFFFFF500000000
03FFFE7FFD00000000
06FFD20BFF60000000
08FF4003FFE1000000
0BFF10009FF8000000
0DFE00001EFE200000
1FFB000007FF900000
4FF9000001DFF30000
6FF60000006FFB0000
00003FF80000000000
00006FF50000000000
0000BFF10000000000
0003FF900000000000
000CFD100000000000
0005C2000000000000
ENDCHAR
STARTCHAR kgreenlandic
ENCODING 312
SWIDTH 544 0
DWIDTH 17 0
BBX 18 17 0 0
BITMAP
0007FF6000001BFFC1
0009FF300001CFFB10
000CFF10001CFFB100
000EFD0001CFFB1000
002FFA001DFFB00000
005FF702DFFA000000
007FF52DFFA0000000
00AFFFFFF900000000
00CFFFFFF300000000
00FFD8AFFC00000000
03FFA00CFF70000000
05FF7003FFF2000000
08FF40008FFC000000
0AFF20000DFF700000
0DFE000003FFE20000
1FFC0000008FFB0000
3FF90000001DFF6000
ENDCHAR
STARTCHAR Lacute
ENCODING 313
SWIDTH 526 0
DWIDTH 17 0
BBX 14 29 1 0
BITMAP
0000001CFFA000
000000AFFB0000
000007FFB00000
00004FFC100000
00008CC1000000
00000000000000
0003FFB0000000
0006FF90000000
0008FF60000000
000BFF30000000
000EFF10000000
001FFD00000000
004FFB00000000
006FF800000000
009FF600000000
00BFF300000000
00EFF000000000
02FFD000000000
04FFA000000000
07FF8000000000
09FF5000000000
0CFF2000000000
0EFF0000000000
2FFC0000000000
5FFA0000000000
7FF70000000000
AFFA7777777775
CFFFFFFFFFFFF9
FFFFFFFFFFFFF6
ENDCHAR
STARTCHAR lacute
ENCODING 314
SWIDTH 240 0
DWIDTH 8 0
BBX 12 30 0 0
BITMAP
00000000BFFB
00000009FFB1
0000006FFC10
000004FFC100
000008CC1000
000000000000
00003FF90000
00006FF70000
00008FF40000
0000BFF20000
0000DFE00000
0001FFB00000
0004FF900000
0006FF600000
0009FF400000
000BFF100000
000EFD000000
002FFB000000
004FF8000000
007FF6000000
009FF3000000
00CFF0000000
00EFD0000000
02FFA0000000
05FF80000000
07FF50000000
0AFF20000000
0DFF00000000
0FFC00000000
3FFA00000000
ENDCHAR
STARTCHAR uni013B
ENCODING 315
SWIDTH 526 0
DWIDTH 17 0
BBX 14 30 1 -7
BITMAP
0003FFB0000000
0006FF90000000
0008FF60000000
000BFF30000000
000EFF10000000
001FFD00000000
004FFB00000000
006FF800000000
009FF600000000
00BFF300000000
00EFF000000000
02FFD000000000
04FFA000000000
07FF8000000000
09FF5000000000
0CFF2000000000
0EFF0000000000
2FFC0000000000
5FFA0000000000
7FF70000000000
AFFA7777777775
CFFFFFFFFFFFF9
FFFFFFFFFFFFF6
00000000000000
00000EFB000000
00003FF8000000
00007FF4000000
0001EFC0000000
0009FF30000000
0003C400000000
ENDCHAR
STARTCHAR uni013C
ENCODING 316
SWIDTH 240 0
DWIDTH 8 0
BBX 10 31 -2 -7
BITMAP
0000003FF9
0000006FF7
0000008FF4
000000BFF2
000000DFE0
000001FFB0
000004FF90
000006FF60
000009FF40
00000BFF10
00000EFD00
00002FFB00
00004FF800
00007FF600
00009FF300
0000CFF000
0000EFD000
0002FFA000
0005FF8000
0007FF5000
000AFF2000
000DFF0000
000FFC0000
003FFA0000
0000000000
008FF20000
00BFE00000
01FFA00000
08FF400000
3FF9000000
0990000000
ENDCHAR
STARTCHAR Lcaron
ENCODING 317
SWIDTH 526 0
DWIDTH 17 0
BBX 14 23 1 0
BITMAP
0003FFB0002FF8
0006FF90005FF5
0008FF6000AFF2
000BFF3002FFA0
000EFF100BFE10
001FFD0004C200
004FFB00000000
006FF800000000
009FF600000000
00BFF300000000
00EFF000000000
02FFD000000000
04FFA000000000
07FF8000000000
09FF5000000000
0CFF2000000000
0EFF0000000000
2FFC0000000000
5FFA0000000000
7FF70000000000
AFFA7777777775
CFFFFFFFFFFFF9
FFFFFFFFFFFFF6
ENDCHAR
STARTCHAR lcaron
ENCODING 318
SWIDTH 313 0
DWIDTH 10 0
BBX 13 24 0 0
BITMAP
00003FF900DFD0
00006FF701FFA0
00008FF406FF60
0000BFF20DFD00
0000DFE07FF400
0001FFB02B5000
0004FF90000000
0006FF60000000
0009FF40000000
000BFF10000000
000EFD00000000
002FFB00000000
004FF800000000
007FF600000000
009FF300000000
00CFF000000000
00EFD000000000
02FFA000000000
05FF8000000000
07FF5000000000
0AFF2000000000
0DFF0000000000
0FFC0000000000
3FFA0000000000
ENDCHAR
STARTCHAR Ldot
ENCODING 319
SWIDTH 526 0
DWIDTH 17 0
BBX 14 23 1 0
BITMAP
0003FFB0000000
0006FF90000000
0008FF60000000
000BFF30000000
000EFF10000000
001FFD00000000
004FFB00000000
006FF800000000
009FF600034000
00BFF3005FF700
00EFF0008FFA00
02FFD0003DD300
04FFA000000000
07FF8000000000
09FF5000000000
0CFF2000000000
0EFF0000000000
2FFC0000000000
5FFA0000000000
7FF70000000000
AFFA7777777775
CFFFFFFFFFFFF9
FFFFFFFFFFFFF6
ENDCHAR
STARTCHAR ldot
ENCODING 320
SWIDTH 347 0
DWIDTH 11 0
BBX 11 24 0 0
BITMAP
00003FF90000
00006FF70000
00008FF40000
0000BFF20000
0000DFE00000
0001FFB00000
0004FF900000
0006FF600000
0009FF400000
000BFF103400
000EFD05FF70
002FFB09FF90
004FF803DD30
007FF6000000
009FF3000000
00CFF0000000
00EFD0000000
02FFA0000000
05FF80000000
07FF50000000
0AFF20000000
0DFF00000000
0FFC00000000
3FFA00000000
ENDCHAR
STARTCHAR Lslash
ENCODING 321
SWIDTH 527 0
DWIDTH 17 0
BBX 15 23 0 0
BITMAP
00003FFB00000000
00006FF800000000
00009FF500000000
0000BFF300000000
0000EFF000000000
0002FFC000000000
0004FFA000000000
0007FF7000000000
000AFF426B400000
000CFFDFFF100000
049FFFFD83000000
3FFFFC2000000000
5AAFF90000000000
008FF70000000000
00AFF40000000000
00DFF20000000000
00FFE00000000000
03FFC00000000000
05FF900000000000
08FF700000000000
0AFF977777777750
0DFFFFFFFFFFFF90
0FFFFFFFFFFFFF60
ENDCHAR
STARTCHAR lslash
ENCODING 322
SWIDTH 266 0
DWIDTH 9 0
BBX 9 24 0 0
BITMAP
00000DFE00
00001FFC00
00003FF900
00006FF600
00009FF400
0000BFF100
0000EFD000
0002FFB000
0005FF8000
0007FF7890
000AFFFF90
04AFFFC610
3FFFFD0000
596FFA0000
005FF80000
008FF50000
00AFF20000
00DFF00000
00FFC00000
03FFA00000
05FF700000
08FF500000
0AFF200000
0DFF000000
ENDCHAR
STARTCHAR Nacute
ENCODING 323
SWIDTH 696 0
DWIDTH 22 0
BBX 21 29 1 0
BITMAP
00000000000000CFFB0000
00000000000009FFB00000
0000000000007FFC100000
000000000004FFC1000000
000000000008CC10000000
0000000000000000000000
0003FFE00000000002FFC0
0006FFF60000000005FF90
0008FFFD0000000007FF60
000BFFFF500000000AFF40
000EFFFFB00000000DFF10
001FFDDFF30000000FFE00
004FFB7FFA0000003FFB00
006FF81EFF2000005FF900
009FF508FF9000008FF600
00BFF302FFE10000AFF300
00EFF0009FF70000DFF100
02FFD0003FFE0001FFD000
04FFA0000BFF6003FFB000
07FF800004FFD006FF8000
09FF500000CFF508FF6000
0CFF2000005FFB0BFF3000
0EFF0000000DFF3EFF0000
2FFC00000007FFBFFD0000
5FFA00000001EFFFFA0000
7FF7000000008FFFF80000
AFF5000000002FFFF50000
CFF20000000009FFF20000
FFE00000000003FFF00000
ENDCHAR
STARTCHAR nacute
ENCODING 324
SWIDTH 540 0
DWIDTH 17 0
BBX 16 24 0 0
BITMAP
000000000001DFF8
00000000000CFF90
00000000009FF900
0000000006FFA000
0000000019DB0000
0000000000000000
0000000000000000
000AFF028DEEB300
000DFD5EFFFFFF40
000FFEFFA78DFFD0
003FFFC20001EFF2
005FFD1000009FF4
008FF50000008FF4
00BFF2000000AFF3
00DFF0000000CFF0
01FFC0000000FFD0
03FF90000002FFA0
06FF70000005FF80
09FF40000007FF50
0BFF2000000AFF20
0EFE0000000CFF00
1FFB0000000FFC00
4FF90000003FFA00
6FF60000005FF700
ENDCHAR
STARTCHAR uni0145
ENCODING 325
SWIDTH 696 0
DWIDTH 22 0
BBX 21 30 1 -7
BITMAP
0003FFE00000000002FFC0
0006FFF60000000005FF90
0008FFFD0000000007FF60
000BFFFF500000000AFF40
000EFFFFB00000000DFF10
001FFDDFF30000000FFE00
004FFB7FFA0000003FFB00
006FF81EFF2000005FF900
009FF508FF9000008FF600
00BFF302FFE10000AFF300
00EFF0009FF70000DFF100
02FFD0003FFE0001FFD000
04FFA0000BFF6003FFB000
07FF800004FFD006FF8000
09FF500000CFF508FF6000
0CFF2000005FFB0BFF3000
0EFF0000000DFF3EFF0000
2FFC00000007FFBFFD0000
5FFA00000001EFFFFA0000
7FF7000000008FFFF80000
AFF5000000002FFFF50000
CFF20000000009FFF20000
FFE00000000003FFF00000
0000000000000000000000
0000007FF4000000000000
000000AFF1000000000000
000001EFC0000000000000
000007FF50000000000000
00002EFA00000000000000
000008A100000000000000
ENDCHAR
STARTCHAR uni0146
ENCODING 326
SWIDTH 540 0
DWIDTH 17 0
BBX 16 24 0 -7
BITMAP
000AFF028DEEB300
000DFD5EFFFFFF40
000FFEFFA78DFFD0
003FFFC20001EFF2
005FFD1000009FF4
008FF50000008FF4
00BFF2000000AFF3
00DFF0000000CFF0
01FFC0000000FFD0
03FF90000002FFA0
06FF70000005FF80
09FF40000007FF50
0BFF2000000AFF20
0EFE0000000CFF00
1FFB0000000FFC00
4FF90000003FFA00
6FF60000005FF700
0000000000000000
00000CFD00000000
00001FFA00000000
00005FF600000000
0000CFE100000000
0007FF5000000000
0002B60000000000
ENDCHAR
STARTCHAR Ncaron
ENCODING 327
SWIDTH 696 0
DWIDTH 22 0
BBX 21 29 1 0
BITMAP
000000002EF5002DF90000
0000000004FE24EF700000
00000000006FDFF5000000
000000000009FE30000000
0000000000000000000000
0000000000000000000000
0003FFE00000000002FFC0
0006FFF60000000005FF90
0008FFFD0000000007FF60
000BFFFF500000000AFF40
000EFFFFB00000000DFF10
001FFDDFF30000000FFE00
004FFB7FFA0000003FFB00
006FF81EFF2000005FF900
009FF508FF9000008FF600
00BFF302FFE10000AFF300
00EFF0009FF70000DFF100
02FFD0003FFE0001FFD000
04FFA0000BFF6003FFB000
07FF800004FFD006FF8000
09FF500000CFF508FF6000
0CFF2000005FFB0BFF3000
0EFF0000000DFF3EFF0000
2FFC00000007FFBFFD0000
5FFA00000001EFFFFA0000
7FF7000000008FFFF80000
AFF5000000002FFFF50000
CFF20000000009FFF20000
FFE00000000003FFF00000
ENDCHAR
STARTCHAR ncaron
ENCODING 328
SWIDTH 540 0
DWIDTH 17 0
BBX 16 24 0 0
BITMAP
0000004FE3004EF7
00000007FD16FF50
000000009FDFE300
000000000BFD2000
0000000000000000
0000000000000000
0000000000000000
000AFF028DEEB300
000DFD5EFFFFFF40
000FFEFFA78DFFD0
003FFFC20001EFF2
005FFD1000009FF4
008FF50000008FF4
00BFF2000000AFF3
00DFF0000000CFF0
01FFC0000000FFD0
03FF90000002FFA0
06FF70000005FF80
09FF40000007FF50
0BFF2000000AFF20
0EFE0000000CFF00
1FFB0000000FFC00
4FF90000003FFA00
6FF60000005FF700
ENDCHAR
STARTCHAR napostrophe
ENCODING 329
SWIDTH 540 0
DWIDTH 17 0
BBX 16 24 0 0
BITMAP
007FF40000000000
00AFF10000000000
01EFB00000000000
07FF500000000000
2EFA000000000000
08A1000000000000
0000000000000000
000AFF028DEEB300
000DFD5EFFFFFF40
000FFEFFA78DFFD0
003FFFC20001EFF2
005FFD1000009FF4
008FF50000008FF4
00BFF2000000AFF3
00DFF0000000CFF0
01FFC0000000FFD0
03FF90000002FFA0
06FF70000005FF80
09FF40000007FF50
0BFF2000000AFF20
0EFE0000000CFF00
1FFB0000000FFC00
4FF90000003FFA00
6FF60000005FF700
ENDCHAR
STARTCHAR Eng
ENCODING 330
SWIDTH 676 0
DWIDTH 22 0
BBX 22 30 0 -7
BITMAP
00005FFC00000000008FF6
00007FFF4000000000BFF4
0000AFFFA000000000DFF1
0000DFFFF200000001FFE0
0000FFFFF900000003FFB0
0003FFCEFE10000006FF90
0005FF98FF70000009FF60
0008FF62FFD000000BFF40
000AFF40AFF500000EFF10
000DFF103FFB00001FFE00
001FFE000CFF30004FFB00
003FFB0005FFA0006FF900
006FF80000EFF2009FF600
008FF600007FF800CFF400
00BFF300001FFE00EFF100
00DFF1000009FF62FFE000
01FFD0000003FFD4FFB000
03FFA0000000BFFBFF8000
06FF800000005FFFFF6000
09FF500000000DFFFF3000
0BFF3000000007FFFF1000
0EFF0000000001EFFD0000
1FFD00000000009FFB0000
000000000000006FF80000
000000000000009FF60000
00000000000000DFF20000
00000000000006FFC00000
0000000000879FFF500000
0000000000FFFFF8000000
0000000002DFEB50000000
ENDCHAR
STARTCHAR eng
ENCODING 331
SWIDTH 554 0
DWIDTH 18 0
BBX 16 24 0 -7
BITMAP
0009FE018DEEA300
000BFC3EFFFFFF40
000EFDEE978DFFD0
002FFFA10001DFF4
004FFB0000007FF7
007FF70000005FF8
009FF40000006FF7
00CFF10000008FF4
00EFE0000000BFF2
02FFB0000000DFE0
05FF80000001FFC0
07FF60000003FFA0
0AFF30000005FF70
0DFF10000008FF50
0FFD0000000AFF20
3FFA0000000DFF00
5FF70000000FFD00
00000000003FFA00
00000000005FF800
00000000009FF500
0000000002FFE100
000000799EFF7000
000000CFFFFA0000
000000CFEC600000
ENDCHAR
STARTCHAR Omacron
ENCODING 332
SWIDTH 671 0
DWIDTH 22 0
BBX 20 29 1 0
BITMAP
00000001444444444300
00000005FFFFFFFFFD00
00000007FFFFFFFFFB00
00000000000000000000
00000000000000000000
00000000000000000000
000000017BEFEC710000
0000006EFFFFFFFE4000
000009FFFDA9AEFFF400
00009FFE5000009FFD00
0005FFD20000000BFF60
001EFF3000000003FFB0
006FF90000000000EFE0
00DFF20000000000CFF1
03FFB00000000000BFF2
07FF700000000000CFF2
0AFF400000000000DFF1
0CFF100000000000FFE0
0EFE000000000002FFB0
0FFD000000000006FF80
1FFD00000000000AFF40
0EFE00000000001EFE00
0CFF10000000007FF800
09FF5000000002EFE200
04FFC00000001CFF7000
00BFFA100004DFFB0000
002EFFEA89CFFFB10000
0003DFFFFFFFF8000000
000016BDFEC720000000
ENDCHAR
STARTCHAR omacron
ENCODING 333
SWIDTH 558 0
DWIDTH 18 0
BBX 16 24 1 0
BITMAP
0000144444444430
00005FFFFFFFFFD0
00007FFFFFFFFFB0
0000000000000000
0000000000000000
0000000000000000
0000000000000000
000005AEFEC70000
0001BFFFFFFFC100
002DFFD868DFFC00
00BFF900001BFF60
06FFA0000002FFD0
0DFE10000000BFF1
4FF9000000009FF4
7FF5000000008FF4
AFF2000000009FF3
BFF200000000CFF1
BFF200000001FFC0
8FF400000008FF70
5FF90000002EFE10
0DFF400003DFF500
05FFF966AFFF8000
006FFFFFFFF60000
00039DFEC8200000
ENDCHAR
STARTCHAR Obreve
ENCODING 334
SWIDTH 671 0
DWIDTH 22 0
BBX 20 28 1 0
BITMAP
000000009FB0001EF500
000000006FE301AFE100
000000000CFFDFFF5000
00000000018DFEB40000
00000000000000000000
000000017BEFEC710000
0000006EFFFFFFFE4000
000009FFFDA9AEFFF400
00009FFE5000009FFD00
0005FFD20000000BFF60
001EFF3000000003FFB0
006FF90000000000EFE0
00DFF20000000000CFF1
03FFB00000000000BFF2
07FF700000000000CFF2
0AFF400000000000DFF1
0CFF100000000000FFE0
0EFE000000000002FFB0
0FFD000000000006FF80
1FFD00000000000AFF40
0EFE00000000001EFE00
0CFF10000000007FF800
09FF5000000002EFE200
04FFC00000001CFF7000
00BFFA100004DFFB0000
002EFFEA89CFFFB10000
0003DFFFFFFFF8000000
000016BDFEC720000000
ENDCHAR
STARTCHAR obreve
ENCODING 335
SWIDTH 558 0
DWIDTH 18 0
BBX 16 23 1 0
BITMAP
000009FB0001EF50
000006FE201AFE10
000000CFFDFFF500
00000018DFEB3000
0000000000000000
0000000000000000
000005AEFEC70000
0001BFFFFFFFC100
002DFFD868DFFC00
00BFF900001BFF60
06FFA0000002FFD0
0DFE10000000BFF1
4FF9000000009FF4
7FF5000000008FF4
AFF2000000009FF3
BFF200000000CFF1
BFF200000001FFC0
8FF400000008FF70
5FF90000002EFE10
0DFF400003DFF500
05FFF966AFFF8000
006FFFFFFFF60000
00039DFEC8200000
ENDCHAR
STARTCHAR Ohungarumlaut
ENCODING 336
SWIDTH 671 0
DWIDTH 22 0
BBX 21 29 1 0
BITMAP
000000000009FF908FFC10
00000000005FFB08FFC100
0000000002EFD17FFC1000
000000001CFE26FFC10000
000000004BE41ADC100000
0000000000000000000000
000000017BEFEC71000000
0000006EFFFFFFFE400000
000009FFFDA9AEFFF40000
00009FFE5000009FFD0000
0005FFD20000000BFF6000
001EFF3000000003FFB000
006FF90000000000EFE000
00DFF20000000000CFF100
03FFB00000000000BFF200
07FF700000000000CFF200
0AFF400000000000DFF100
0CFF100000000000FFE000
0EFE000000000002FFB000
0FFD000000000006FF8000
1FFD00000000000AFF4000
0EFE00000000001EFE0000
0CFF10000000007FF80000
09FF5000000002EFE20000
04FFC00000001CFF700000
00BFFA100004DFFB000000
002EFFEA89CFFFB1000000
0003DFFFFFFFF800000000
000016BDFEC72000000000
ENDCHAR
STARTCHAR ohungarumlaut
ENCODING 337
SWIDTH 558 0
DWIDTH 18 0
BBX 18 24 1 0
BITMAP
000000009FF908FFB1
00000005FFB08FFC10
0000002EFD17FFC100
000001DFE27FFC1000
000004BE41ADC10000
000000000000000000
000000000000000000
000005AEFEC7000000
0001BFFFFFFFC10000
002DFFD868DFFC0000
00BFF900001BFF6000
06FFA0000002FFD000
0DFE10000000BFF100
4FF9000000009FF400
7FF5000000008FF400
AFF2000000009FF300
BFF200000000CFF100
BFF200000001FFC000
8FF400000008FF7000
5FF90000002EFE1000
0DFF400003DFF50000
05FFF966AFFF800000
006FFFFFFFF6000000
00039DFEC820000000
ENDCHAR
STARTCHAR OE
ENCODING 338
SWIDTH 929 0
DWIDTH 30 0
BBX 29 23 1 0
BITMAP
000000049DEFFFFFFFFFFFFFFFFF70
000002CFFFFFFFFFFFFFFFFFFFFF50
00004EFFD86567DFF8777777777710
0003EFF6000000DFF0000000000000
000DFF50000000FFD0000000000000
007FF800000003FFA0000000000000
00DFE100000006FF80000000000000
03FFA000000009FF50000000000000
07FF600000000BFF30000000000000
0AFF300000000EFF00000000000000
0CFF000000002FFFFFFFFFFFF60000
0FFD000000005FFFFFFFFFFFF30000
2FFB000000007FFB77777777710000
5FF800000000AFF500000000000000
6FF700000000DFF200000000000000
7FF600000001FFE000000000000000
6FF700000003FFC000000000000000
3FFB00000006FF9000000000000000
0DFF20000009FF7000000000000000
05FFC100000BFF4000000000000000
00AFFE96667EFF8777777777710000
000AFFFFFFFFFFFFFFFFFFFFF10000
00004ADFFFFFFFFFFFFFFFFFD00000
ENDCHAR
STARTCHAR oe
ENCODING 339
SWIDTH 885 0
DWIDTH 28 0
BBX 27 17 1 0
BITMAP
000004ADFEC71000039DFDA30000
0001AFFFFFFFD3008FFFFFFF7000
001CFFD867DFFE1BFFD869FFF500
00BFFA10000BFFEFFA10003EFD00
05FFB0000003FFFFC0000009FF20
0CFF20000000DFFF30000007FF40
2FFB00000000CFFB00000007FF40
6FF600000000BFFFFFFFFFFFFF40
9FF400000000CFFFFFFFFFFFFF20
AFF300000000FFF7555555555500
AFF300000004FFF2000000000000
8FF40000000AFFF3000000000000
5FF80000004FFFF7000000000000
1EFF300004EFFFFE300000490000
06FFE856AFFF49FFF9668CFF3000
007FFFFFFFD401AFFFFFFFFB2000
0004AEFEB6100004ADFED9400000
ENDCHAR
STARTCHAR Racute
ENCODING 340
SWIDTH 602 0
DWIDTH 19 0
BBX 18 29 1 0
BITMAP
0000000000009FFD10
000000000006FFD200
00000000003FFE2000
0000000002EFE30000
0000000006CD300000
000000000000000000
0003FFFFFFFEC94000
0006FFFFFFFFFFFA10
0009FFA77778BFFFB0
000BFF30000004EFF4
000EFF000000007FF9
001FFD000000003FFB
004FFA000000003FFB
006FF7000000006FF9
009FF500000000CFF4
00CFF20000000AFFC0
00EFE0000026DFFD20
02FFFFFFFFFFFFC100
04FFFFFFFFFFD50000
07FFA77778FFB00000
0AFF400000EFF10000
0CFF2000009FF70000
0FFE0000004FFC0000
2FFC0000000EFF2000
5FF900000009FF8000
7FF700000004FFD000
AFF400000000EFF300
DFF2000000009FF900
FFE0000000004FFE00
ENDCHAR
STARTCHAR racute
ENCODING 341
SWIDTH 333 0
DWIDTH 11 0
BBX 14 24 0 0
BITMAP
0000000007FFE2
000000005FFE30
00000002EFE300
0000001DFE3000
0000005BE40000
00000000000000
00000000000000
000AFF15BEE300
000DFD8FFFF200
000FFFFFECD100
003FFFD4000000
005FFD10000000
008FF500000000
00BFF200000000
00DFF000000000
01FFC000000000
03FF9000000000
06FF7000000000
09FF4000000000
0BFF2000000000
0EFE0000000000
1FFB0000000000
4FF90000000000
6FF60000000000
ENDCHAR
STARTCHAR uni0156
ENCODING 342
SWIDTH 602 0
DWIDTH 19 0
BBX 18 30 1 -7
BITMAP
0003FFFFFFFEC94000
0006FFFFFFFFFFFA10
0009FFA77778BFFFB0
000BFF30000004EFF4
000EFF000000007FF9
001FFD000000003FFB
004FFA000000003FFB
006FF7000000006FF9
009FF500000000CFF4
00CFF20000000AFFC0
00EFE0000026DFFD20
02FFFFFFFFFFFFC100
04FFFFFFFFFFD50000
07FFA77778FFB00000
0AFF400000EFF10000
0CFF2000009FF70000
0FFE0000004FFC0000
2FFC0000000EFF2000
5FF900000009FF8000
7FF700000004FFD000
AFF400000000EFF300
DFF2000000009FF900
FFE0000000004FFE00
000000000000000000
00001FF90000000000
00005FF60000000000
00009FF20000000000
0002FFA00000000000
000BFE200000000000
0004C3000000000000
ENDCHAR
STARTCHAR uni0157
ENCODING 343
SWIDTH 333 0
DWIDTH 11 0
BBX 14 24 -2 -7
BITMAP
00000AFF15BEE3
00000DFD8FFFF2
00000FFFFFECD1
00003FFFD40000
00005FFD100000
00008FF5000000
0000BFF2000000
0000DFF0000000
0001FFC0000000
0003FF90000000
0006FF70000000
0009FF40000000
000BFF20000000
000EFE00000000
001FFB00000000
004FF900000000
006FF600000000
00000000000000
009FF100000000
00CFD000000000
02FF9000000000
09FF3000000000
4FF80000000000
19900000000000
ENDCHAR
STARTCHAR Rcaron
ENCODING 344
SWIDTH 602 0
DWIDTH 19 0
BBX 18 29 1 0
BITMAP
0000001CF8001BFC10
00000002EF52CFA100
000000003FEEF80000
0000000005FF600000
000000000000000000
000000000000000000
0003FFFFFFFED94000
0006FFFFFFFFFFFA10
0009FFA77778BFFFB0
000BFF30000004EFF4
000EFF000000007FF9
001FFD000000003FFB
004FFA000000003FFB
007FF7000000006FF9
009FF500000000CFF4
00CFF20000000AFFC0
00EFE0000026DFFD20
02FFFFFFFFFFFFC100
04FFFFFFFFFFD50000
07FFA66668FFB00000
0AFF400000EFF20000
0CFF2000009FF70000
0FFE0000004FFC0000
2FFC0000000EFF2000
5FF900000009FF8000
7FF700000004FFD000
AFF400000000EFF300
DFF2000000009FF900
FFE0000000004FFE00
ENDCHAR
STARTCHAR rcaron
ENCODING 345
SWIDTH 333 0
DWIDTH 11 0
BBX 14 24 0 0
BITMAP
0000BFA0009ED2
00001DF61BFB10
000002EFDFA000
0000004FF70000
00000000000000
00000000000000
00000000000000
000AFF15BEE300
000DFD8FFFF200
000FFFFFECD100
003FFFD4000000
005FFD10000000
008FF500000000
00BFF200000000
00DFF000000000
01FFC000000000
03FF9000000000
06FF7000000000
09FF4000000000
0BFF2000000000
0EFE0000000000
1FFB0000000000
4FF90000000000
6FF60000000000
ENDCHAR
STARTCHAR Sacute
ENCODING 346
SWIDTH 580 0
DWIDTH 19 0
BBX 19 29 0 0
BITMAP
00000000000006FFE300
0000000000003FFE3000
000000000002EFF40000
00000000000CFF400000
00000000004BE5000000
00000000000000000000
000000038CEFDB500000
000002AFFFFFFFFD3000
00002DFFFB879DFFE200
0000CFFB2000009FFB00
0005FFC00000000DFF20
0009FF6000000009FF50
000BFF3000000007EE60
000AFF60000000000000
0006FFE3000000000000
0000CFFFA40000000000
00001CFFFFD820000000
0000007EFFFFF9100000
000000016BFFFFD20000
000000000028EFFC0000
0000000000003EFF5000
00000000000007FF9000
4EE90000000005FFA000
3FFC0000000007FF7000
0EFF200000001DFF4000
08FFD2000002CFFB0000
00BFFFB878BFFFD20000
0019FFFFFFFFFA100000
000038CEFEC830000000
ENDCHAR
STARTCHAR sacute
ENCODING 347
SWIDTH 504 0
DWIDTH 16 0
BBX 16 24 0 0
BITMAP
000000000005FFF4
00000000003EFF40
0000000001DFF500
000000000BFF5000
000000003BE60000
0000000000000000
0000000000000000
0000039DEED82000
00009FFFFFFFE400
0009FFE977CFFE20
003FFD200009FF80
007FF6000002FFB0
006FF60000002220
003FFE7100000000
0007FFFFC8200000
00004CFFFFFA1000
00000026BFFFD100
0000000001BFF800
15530000002FFB00
2FFC0000003FFA00
0DFF500001BFF600
06FFFA768EFFC000
007FFFFFFFFB1000
00039DFEDA500000
ENDCHAR
STARTCHAR Scircumflex
ENCODING 348
SWIDTH 580 0
DWIDTH 19 0
BBX 19 29 0 0
BITMAP
00000000002BFD200000
0000000006EFEFE30000
00000001BFFA1CFE3000
00000008FF7001DFA000
00000000000000000000
00000000000000000000
000000038CEFDB500000
000002AFFFFFFFFD3000
00002DFFFB879DFFE200
0000CFFB2000009FFB00
0005FFC00000000DFF20
0009FF6000000009FF50
000BFF3000000007EE60
000AFF60000000000000
0006FFE3000000000000
0000CFFFA40000000000
00001CFFFFD820000000
0000007EFFFFF9100000
000000016BFFFFD20000
000000000028EFFC0000
0000000000003EFF5000
00000000000007FF9000
4EE90000000005FFA000
3FFC0000000007FF7000
0EFF200000001DFF4000
08FFD2000002CFFB0000
00BFFFB878BFFFD20000
0019FFFFFFFFFA100000
000038CEFEC830000000
ENDCHAR
STARTCHAR scircumflex
ENCODING 349
SWIDTH 504 0
DWIDTH 16 0
BBX 15 24 0 0
BITMAP
000000001BFE3000
00000005EFEFE300
000001AFFB1BFE40
000007FF8001DFB0
0000000000000000
0000000000000000
0000000000000000
0000039DEED82000
00009FFFFFFFE400
0009FFE977CFFE20
003FFD200009FF80
007FF6000002FFB0
006FF60000002220
003FFE7100000000
0007FFFFC8200000
00004CFFFFFA1000
00000026BFFFD100
0000000001BFF800
15530000002FFB00
2FFC0000003FFA00
0DFF500001BFF600
06FFFA768EFFC000
007FFFFFFFFB1000
00039DFEDA500000
ENDCHAR
STARTCHAR Scedilla
ENCODING 350
SWIDTH 580 0
DWIDTH 19 0
BBX 19 30 0 -7
BITMAP
000000038CEFDB500000
000002AFFFFFFFFD3000
00002DFFFB879DFFE200
0000CFFB2000009FFB00
0005FFC00000000DFF20
0009FF6000000009FF50
000BFF3000000007EE60
000AFF60000000000000
0006FFE3000000000000
0000CFFFA40000000000
00001CFFFFD820000000
0000007EFFFFF9100000
000000016BFFFFD20000
000000000028EFFC0000
0000000000003EFF5000
00000000000007FF9000
4EE90000000005FFA000
3FFC0000000007FF7000
0EFF200000001DFF4000
08FFD2000002CFFB0000
00BFFFB878BFFFD20000
0019FFFFFFFFFA100000
000038CEFEC830000000
0000004FB00000000000
000000AFFA0000000000
00000026EF5000000000
00000000BF7000000000
00000004FF5000000000
000006DFFA0000000000
000008DB500000000000
ENDCHAR
STARTCHAR scedilla
ENCODING 351
SWIDTH 504 0
DWIDTH 16 0
BBX 15 24 0 -7
BITMAP
0000039DEED82000
00009FFFFFFFE400
0009FFE977CFFE20
003FFD200009FF80
007FF6000002FFB0
006FF60000002220
003FFE7100000000
0007FFFFC8200000
00004CFFFFFA1000
00000026BFFFD100
0000000001BFF800
15530000002FFB00
2FFC0000003FFA00
0DFF500001BFF600
06FFFA768EFFC000
007FFFFFFFFB1000
00039DFEDA500000
000002FD00000000
000007FFC1000000
0000025DF8000000
00000009F9000000
0000003EF7000000
00004CFFC1000000
00006DB600000000
ENDCHAR
STARTCHAR Scaron
ENCODING 352
SWIDTH 580 0
DWIDTH 19 0
BBX 19 29 0 0
BITMAP
00000000AFB0009ED300
000000001CF81BFC2000
0000000002EFDFA10000
00000000003EF8000000
00000000000000000000
00000000000000000000
000000038CEFDB500000
000002AFFFFFFFFD3000
00002DFFFB879DFFE200
0000CFFB2000009FFB00
0005FFC00000000DFF20
0009FF6000000009FF50
000BFF3000000007EE60
000AFF60000000000000
0006FFE3000000000000
0000CFFFA40000000000
00001CFFFFD820000000
0000007EFFFFF9100000
000000016BFFFFD20000
000000000028EFFC0000
0000000000003EFF5000
00000000000007FF9000
4EE90000000005FFA000
3FFC0000000007FF7000
0EFF200000001DFF4000
08FFD2000002CFFB0000
00BFFFB878BFFFD20000
0019FFFFFFFFFA100000
000038CEFEC830000000
ENDCHAR
STARTCHAR scaron
ENCODING 353
SWIDTH 504 0
DWIDTH 16 0
BBX 16 24 0 0
BITMAP
0000009FC0008EE3
0000000BF90AFD20
00000001DFDFB100
000000002EF90000
0000000000000000
0000000000000000
0000000000000000
0000039DEED82000
00009FFFFFFFE400
0009FFE977CFFE20
003FFD200009FF80
007FF6000002FFB0
006FF60000002220
003FFE7100000000
0007FFFFC8200000
00004CFFFFFA1000
00000026BFFFD100
0000000001BFF800
15530000002FFB00
2FFC0000003FFA00
0DFF500001BFF600
06FFFA768EFFC000
007FFFFFFFFB1000
00039DFEDA500000
ENDCHAR
STARTCHAR uni0162
ENCODING 354
SWIDTH 583 0
DWIDTH 19 0
BBX 19 30 2 -7
BITMAP
1FFFFFFFFFFFFFFFFF10
3FFFFFFFFFFFFFFFFD00
2777777AFFC777777500
00000007FF7000000000
0000000AFF4000000000
0000000CFF2000000000
0000000FFE0000000000
0000002FFB0000000000
0000005FF90000000000
0000008FF60000000000
000000AFF40000000000
000000DFF10000000000
000000FFE00000000000
000003FFB00000000000
000005FF800000000000
000008FF600000000000
00000BFF300000000000
00000DFF100000000000
00001FFD000000000000
00003FFB000000000000
00006FF8000000000000
00008FF5000000000000
0000BFF3000000000000
00008F80000000000000
0000DFF8000000000000
000038FF200000000000
000000EF400000000000
000007FF100000000000
0008DFF7000000000000
000BDA30000000000000
ENDCHAR
STARTCHAR uni0163
ENCODING 355
SWIDTH 321 0
DWIDTH 10 0
BBX 10 28 1 -7
BITMAP
0000EFD000
0002FFA000
0005FF8000
0007FF5000
AFFFFFFFF3
CFFFFFFFF1
344FFD4430
003FFA0000
005FF70000
008FF50000
00AFF20000
00DFE00000
00FFC00000
03FF900000
05FF700000
08FF400000
0AFF200000
0BFF200000
09FFC87000
03FFFFA000
005DFE7000
000EF10000
004FFD3000
0014CFB000
00006FC000
0001CFA000
02CFFD2000
03EC710000
ENDCHAR
STARTCHAR Tcaron
ENCODING 356
SWIDTH 583 0
DWIDTH 19 0
BBX 19 29 2 0
BITMAP
000000CF9001AFC10000
0000002EF52CFA100000
00000003FEEF80000000
000000005FF600000000
00000000000000000000
00000000000000000000
1FFFFFFFFFFFFFFFFF10
3FFFFFFFFFFFFFFFFD00
2777777AFFC777777500
00000007FF7000000000
0000000AFF4000000000
0000000CFF2000000000
0000000FFE0000000000
0000002FFB0000000000
0000005FF90000000000
0000008FF60000000000
000000AFF40000000000
000000DFF10000000000
000000FFE00000000000
000003FFB00000000000
000005FF800000000000
000008FF600000000000
00000BFF300000000000
00000DFF100000000000
00001FFD000000000000
00003FFB000000000000
00006FF8000000000000
00008FF5000000000000
0000BFF3000000000000
ENDCHAR
STARTCHAR tcaron
ENCODING 357
SWIDTH 341 0
DWIDTH 11 0
BBX 14 26 1 0
BITMAP
00000000009FF2
0000000000CFE0
0000000002FFA0
0000000009FF30
000000003FF800
0000EFD0199000
0002FFA0000000
0005FF80000000
0007FF50000000
AFFFFFFFF30000
CFFFFFFFF10000
344FFD44300000
003FFA00000000
005FF700000000
008FF500000000
00AFF200000000
00DFE000000000
00FFC000000000
03FF9000000000
05FF7000000000
08FF4000000000
0AFF2000000000
0BFF2000000000
09FFC870000000
03FFFFA0000000
005DFE70000000
ENDCHAR
STARTCHAR Tbar
ENCODING 358
SWIDTH 583 0
DWIDTH 19 0
BBX 19 23 2 0
BITMAP
1FFFFFFFFFFFFFFFFF10
3FFFFFFFFFFFFFFFFD00
2777777AFFC777777500
00000007FF7000000000
00000009FF4000000000
0000000CFF2000000000
0000000EFF0000000000
0000002FFC0000000000
0008FFFFFFFFF2000000
000AFFFFFFFFE0000000
000455CFF85550000000
000000CFF20000000000
000000EFE00000000000
000002FFC00000000000
000005FF900000000000
000007FF600000000000
00000AFF400000000000
00000DFF100000000000
00001FFD000000000000
00003FFB000000000000
00006FF8000000000000
00008FF6000000000000
0000BFF3000000000000
ENDCHAR
STARTCHAR tbar
ENCODING 359
SWIDTH 321 0
DWIDTH 10 0
BBX 12 21 -1 0
BITMAP
000000EFD000
000002FFA000
000005FF8000
000007FF5000
00AFFFFFFFF3
00CFFFFFFFF1
00344FFD4430
00003FFA0000
00006FF70000
0DFFFFFFFFC0
1FFFFFFFFF90
1555EFE55530
0001FFC00000
0003FF900000
0005FF700000
0008FF400000
000AFF200000
000BFF200000
0008FFC87000
0003FFFFA000
00005DFE7000
ENDCHAR
STARTCHAR Utilde
ENCODING 360
SWIDTH 633 0
DWIDTH 20 0
BBX 20 30 1 0
BITMAP
00000000032000026300
00000002DFF90007F700
0000000CFFFFC56EF300
0000004FE318FFFFA000
0000007E70004DEA1000
00000000000000000000
00000000000000000000
0009FF50000000008FF6
000BFF2000000000BFF4
000EFE0000000000DFF1
002FFC0000000001FFE0
004FF90000000003FFB0
007FF70000000006FF80
009FF40000000008FF60
00CFF2000000000BFF30
00EFE0000000000EFF10
02FFC0000000001FFD00
04FF90000000004FFB00
07FF70000000006FF800
0AFF40000000009FF500
0CFF1000000000BFF300
0FFE0000000000EFF000
2FFC0000000002FFD000
3FFB0000000006FF9000
2FFD000000000CFF4000
0DFF400000007FFC0000
07FFD2000008FFF30000
00CFFFA879EFFF500000
001BFFFFFFFFC3000000
00004ADFEDA500000000
ENDCHAR
STARTCHAR utilde
ENCODING 361
SWIDTH 539 0
DWIDTH 17 0
BBX 16 25 1 0
BITMAP
0000001310000451
000006EFE5000DF2
00003FFFFF949FD0
0000AFB13CFFFF50
0000CF20008ED600
0000000000000000
0000000000000000
0000000000000000
008FF40000007FF6
00BFF20000009FF3
00DFE0000000CFF1
01FFC0000000EFD0
03FF90000002FFA0
06FF60000005FF80
08FF40000008FF50
0BFF1000000AFF30
0EFE0000000DFF00
1FFB0000001FFC00
3FF90000003FFA00
5FF80000006FF700
5FF9000000CFF500
2FFD10001BFFF200
0DFFD88AEFFFE000
04FFFFFFFCEFC000
003AEFEB61FF9000
ENDCHAR
STARTCHAR Umacron
ENCODING 362
SWIDTH 633 0
DWIDTH 20 0
BBX 20 29 1 0
BITMAP
00000003444444444100
0000000EFFFFFFFFF400
0000001FFFFFFFFFF200
00000000000000000000
00000000000000000000
00000000000000000000
0009FF50000000008FF6
000BFF2000000000BFF4
000EFE0000000000DFF1
002FFC0000000001FFE0
004FF90000000003FFB0
007FF70000000006FF80
009FF40000000008FF60
00CFF2000000000BFF30
00EFE0000000000EFF10
02FFC0000000001FFD00
04FF90000000004FFB00
07FF70000000006FF800
0AFF40000000009FF500
0CFF1000000000BFF300
0FFE0000000000EFF000
2FFC0000000002FFD000
3FFB0000000006FF9000
2FFD000000000CFF4000
0DFF400000007FFC0000
07FFD2000008FFF30000
00CFFFA879EFFF500000
001BFFFFFFFFC3000000
00004ADFEDA500000000
ENDCHAR
STARTCHAR umacron
ENCODING 363
SWIDTH 539 0
DWIDTH 17 0
BBX 16 24 1 0
BITMAP
0000144444444440
00004FFFFFFFFFE0
00007FFFFFFFFFC0
0000000000000000
0000000000000000
0000000000000000
0000000000000000
008FF40000007FF6
00BFF20000009FF3
00DFE0000000CFF1
01FFC0000000EFD0
03FF90000002FFA0
06FF60000005FF80
08FF40000008FF50
0BFF1000000AFF30
0EFE0000000DFF00
1FFB0000001FFC00
3FF90000003FFA00
5FF80000006FF700
5FF9000000CFF500
2FFD10001BFFF200
0DFFD88AEFFFE000
04FFFFFFFCEFC000
003AEFEB61FF9000
ENDCHAR
STARTCHAR Ubreve
ENCODING 364
SWIDTH 633 0
DWIDTH 20 0
BBX 20 28 1 0
BITMAP
00000003FF20009FB000
00000000EF8005FF6000
000000006FFEEFFB0000
0000000005CEFD700000
00000000000000000000
0009FF50000000008FF6
000BFF2000000000BFF4
000EFE0000000000DFF1
002FFC0000000001FFE0
004FF90000000003FFB0
007FF70000000006FF80
009FF40000000008FF60
00CFF2000000000BFF30
00EFE0000000000EFF10
02FFC0000000001FFD00
04FF90000000004FFB00
07FF70000000006FF800
0AFF40000000009FF500
0CFF1000000000BFF300
0FFE0000000000EFF000
2FFC0000000002FFD000
3FFB0000000006FF9000
2FFD000000000CFF4000
0DFF400000007FFC0000
07FFD2000008FFF30000
00CFFFA879EFFF500000
001BFFFFFFFFC3000000
00004ADFEDA500000000
ENDCHAR
STARTCHAR ubreve
ENCODING 365
SWIDTH 539 0
DWIDTH 17 0
BBX 16 23 1 0
BITMAP
000008FB0000EF60
000005FF3019FE10
000000CFFDEFF600
00000018DFEB4000
0000000000000000
0000000000000000
008FF40000007FF6
00BFF20000009FF3
00DFE0000000CFF1
01FFC0000000EFD0
03FF90000002FFA0
06FF60000005FF80
08FF40000008FF50
0BFF1000000AFF30
0EFE0000000DFF00
1FFB0000001FFC00
3FF90000003FFA00
5FF80000006FF700
5FF9000000CFF500
2FFD10001BFFF200
0DFFD88AEFFFE000
04FFFFFFFCEFC000
003AEFEB61FF9000
ENDCHAR
STARTCHAR Uring
ENCODING 366
SWIDTH 633 0
DWIDTH 20 0
BBX 20 31 1 0
BITMAP
00000000000462000000
0000000001CFFF700000
000000000AF518F30000
000000000E9001F60000
000000000E8006F40000
0000000009E88FC00000
00000000019EE9100000
00000000000000000000
0009FF50000000008FF6
000BFF2000000000BFF4
000EFE0000000000DFF1
002FFC0000000001FFE0
004FF90000000003FFB0
007FF70000000006FF80
009FF40000000008FF60
00CFF2000000000BFF30
00EFE0000000000EFF10
02FFC0000000001FFD00
04FF90000000004FFB00
07FF70000000006FF800
0AFF40000000009FF500
0CFF1000000000BFF300
0FFE0000000000EFF000
2FFC0000000002FFD000
3FFB0000000006FF9000
2FFD000000000CFF4000
0DFF400000007FFC0000
07FFD2000008FFF30000
00CFFFA879EFFF500000
001BFFFFFFFFC3000000
00004ADFEDA500000000
ENDCHAR
STARTCHAR uring
ENCODING 367
SWIDTH 539 0
DWIDTH 17 0
BBX 16 26 1 0
BITMAP
0000000015510000
00000004EFFE3000
0000001EC31CC000
0000005F3007F100
0000005F300BE000
0000001EC7BF7000
00000003BED60000
0000000000000000
0000000000000000
008FF40000007FF6
00BFF20000009FF3
00DFE0000000CFF1
01FFC0000000EFD0
03FF90000002FFA0
06FF60000005FF80
08FF40000008FF50
0BFF1000000AFF30
0EFE0000000DFF00
1FFB0000001FFC00
3FF90000003FFA00
5FF80000006FF700
5FF9000000CFF500
2FFD10001BFFF200
0DFFD88AEFFFE000
04FFFFFFFCEFC000
003AEFEB61FF9000
ENDCHAR
STARTCHAR Uhungarumlaut
ENCODING 368
SWIDTH 633 0
DWIDTH 20 0
BBX 20 29 1 0
BITMAP
00000000003FFD13EFE4
0000000001DFE33EFF40
000000000AFF52EFF400
000000007FF82DFF5000
000000019DA07CE50000
00000000000000000000
0009FF50000000008FF6
000BFF2000000000BFF4
000EFE0000000000DFF1
002FFC0000000001FFE0
004FF90000000003FFB0
007FF70000000006FF80
009FF40000000008FF60
00CFF2000000000BFF30
00EFE0000000000EFF10
02FFC0000000001FFD00
04FF90000000004FFB00
07FF70000000006FF800
0AFF40000000009FF500
0CFF1000000000BFF300
0FFE0000000000EFF000
2FFC0000000002FFD000
3FFB0000000006FF9000
2FFD000000000CFF4000
0DFF400000007FFC0000
07FFD2000008FFF30000
00CFFFA879EFFF500000
001BFFFFFFFFC3000000
00004ADFEDA500000000
ENDCHAR
STARTCHAR uhungarumlaut
ENCODING 369
SWIDTH 539 0
DWIDTH 17 0
BBX 18 24 1 0
BITMAP
000000008FF907FFC1
00000005FFC07FFC10
0000002EFD16FFC100
000000CFE36FFD1000
000003BE51ADC10000
000000000000000000
000000000000000000
008FF40000007FF600
00BFF20000009FF300
00DFE0000000CFF100
01FFC0000000EFD000
03FF90000002FFA000
06FF60000005FF8000
08FF40000008FF5000
0BFF1000000AFF3000
0EFE0000000DFF0000
1FFB0000001FFC0000
3FF90000003FFA0000
5FF80000006FF70000
5FF9000000CFF50000
2FFD10001BFFF20000
0DFFD88AEFFFE00000
04FFFFFFFCEFC00000
003AEFEB61FF900000
ENDCHAR
STARTCHAR Uogonek
ENCODING 370
SWIDTH 633 0
DWIDTH 20 0
BBX 20 30 1 -7
BITMAP
0007FF60000000006FF8
000AFF40000000009FF6
000CFF1000000000BFF3
000FFE0000000000EFF0
002FFB0000000001FFD0
005FF90000000004FFA0
007FF60000000007FF80
00AFF40000000009FF50
00CFF1000000000CFF30
00FFE0000000000EFF00
03FFB0000000002FFC00
05FF80000000004FFA00
08FF60000000007FF700
0AFF3000000000AFF500
0DFF1000000000CFF200
0FFE0000000000FFE000
1FFD0000000004FFB000
0EFF000000000AFF6000
0BFF500000005FFE1000
05FFE3000006FFF50000
00BFFFB879DFFF700000
001AFFFFFFFFD5000000
000049DFFFF600000000
00000009FF5000000000
0000003FF90000000000
0000007FF20000000000
0000009FE00000000000
0000008FF45300000000
0000003FFFF500000000
00000006DEB200000000
ENDCHAR
STARTCHAR uogonek
ENCODING 371
SWIDTH 539 0
DWIDTH 17 0
BBX 16 24 1 -7
BITMAP
008FF40000007FF6
00BFF20000009FF3
00DFE0000000CFF1
01FFC0000000EFD0
03FF90000002FFA0
06FF60000005FF80
08FF40000008FF50
0BFF1000000AFF30
0EFE0000000DFF00
1FFB0000001FFC00
3FF90000003FFA00
5FF80000006FF700
5FF9000000CFF500
2FFD10001BFFF200
0DFFD88AEFFFE000
04FFFFFFFADFC000
003AEFDA41FF9000
000000003DFB1000
00000003EF900000
0000000CFC000000
0000002FF6000000
0000002FF9350000
0000000DFFFC0000
00000003CED60000
ENDCHAR
STARTCHAR Wcircumflex
ENCODING 372
SWIDTH 865 0
DWIDTH 28 0
BBX 26 29 3 0
BITMAP
0000000000008FF50000000000
00000000003DFEFF6000000000
0000000007FFD37FF700000000
000000003FFB100AFF00000000
00000000000000000000000000
00000000000000000000000000
EFE000000007FF500000003FFC
DFF00000000DFF600000008FF6
BFF10000004FFF80000000EFF1
AFF2000000BFFFA0000005FFA0
9FF3000002FFEFB000000AFF40
8FF4000009FFAFD000001FFD00
7FF500001EFA7FF000006FF700
6FF600006FF46FF10000CFF200
4FF70000DFC04FF30002FFB000
3FF80004FF602FF50008FF5000
2FF9000BFE000FF6000DFE0000
1FFA002FF8000EF8004FF80000
0FFB008FF1000CFA00AFF30000
0EFC01EFA0000AFB01FFC00000
0DFD06FF300008FD06FF600000
0BFE0CFC000007FF0BFE100000
0AFE4FF5000005FF2FF9000000
09FEAFD0000003FF8FF4000000
08FEEF70000001FFDFD0000000
07FFFE10000000FFFF70000000
06FFF900000000DFFF10000000
04FFF200000000BFFA00000000
03FFB0000000009FF500000000
ENDCHAR
STARTCHAR wcircumflex
ENCODING 373
SWIDTH 733 0
DWIDTH 23 0
BBX 22 24 2 0
BITMAP
00000000019FF500000000
000000003DFEFF60000000
00000007FFD38FF7000000
0000003FFA100AFF000000
0000000000000000000000
0000000000000000000000
0000000000000000000000
EFB0000008FF1000002FFB
DFC000001EFF3000009FF4
BFE000007FFF500001EFD0
9FF00000EFFF700006FF60
8FF10006FECF90000CFE00
6FF2000DF99FB0004FF700
5FF3005FF27FD000AFE100
3FF500CF905FE001FF9000
1FF604FF203FF107FF2000
0FF70CFA001FF30DFA0000
0DF84FF3000EF55FF30000
0CFABFB0000CF7BFB00000
0AFDFF40000AFBFF500000
08FFFC000008FFFD000000
07FFF5000006FFF6000000
05FFC0000004FFE0000000
03FF50000001FF70000000
ENDCHAR
STARTCHAR Ycircumflex
ENCODING 374
SWIDTH 587 0
DWIDTH 19 0
BBX 19 29 2 0
BITMAP
000000003CFD20000000
00000007FFEFD2000000
000002BFF91DFE300000
000009FE6002EF900000
00000000000000000000
00000000000000000000
3FFE00000000002EFF60
0DFF4000000000BFFB00
07FF9000000006FFE200
02FFE00000002EFF5000
00CFF4000000BFF90000
006FF9000006FFD10000
001FFE00002EFF400000
000BFF4000BFF8000000
0005FF8006FFC0000000
0001EFD02EFF20000000
0000AFF3BFF600000000
00004FFDFFB000000000
00000EFFFE2000000000
000009FFF50000000000
000005FFA00000000000
000008FF600000000000
00000AFF400000000000
00000DFF100000000000
00001FFE000000000000
00003FFB000000000000
00006FF8000000000000
00008FF6000000000000
0000BFF3000000000000
ENDCHAR
STARTCHAR ycircumflex
ENCODING 375
SWIDTH 463 0
DWIDTH 15 0
BBX 18 31 -2 -7
BITMAP
00000000007FF70000
000000002CFFFF8000
00000006EFE46FF900
0000001FFC2008FF20
000000000000000000
000000000000000000
000000000000000000
0003FFB0000000AFF7
0001FFD0000002FFD0
0000DFF0000009FF60
0000AFF300002FFD00
00008FF500008FF600
00005FF70001EFD000
00002FF90008FF6000
00000FFC001EFD0000
00000CFE007FF60000
00000AFF10DFD00000
000007FF36FF600000
000004FF6DFD000000
000002FFCFF6000000
000000EFFFD0000000
000000BFFF60000000
0000009FFD00000000
0000007FF600000000
000000CFD000000000
000005FF5000000000
00001DFD0000000000
0001BFF50000000000
29AEFFA00000000000
4FFFFB100000000000
4EFD70000000000000
ENDCHAR
STARTCHAR Ydieresis
ENCODING 376
SWIDTH 587 0
DWIDTH 19 0
BBX 19 29 2 0
BITMAP
00000033000014100000
000005FF7000CFE10000
000009FFA001FFF20000
000003DD30009E900000
00000000000000000000
00000000000000000000
3FFE00000000002EFF60
0DFF4000000000BFFB00
07FF9000000006FFE200
02FFE00000002EFF5000
00CFF4000000BFF90000
006FF9000006FFD10000
001FFE00002EFF400000
000BFF4000BFF8000000
0005FF8006FFC0000000
0001EFD02EFF20000000
0000AFF3BFF600000000
00004FFDFFB000000000
00000EFFFE2000000000
000009FFF50000000000
000005FFA00000000000
000008FF600000000000
00000AFF400000000000
00000DFF100000000000
00001FFE000000000000
00003FFB000000000000
00006FF8000000000000
00008FF6000000000000
0000BFF3000000000000
ENDCHAR
STARTCHAR Zacute
ENCODING 377
SWIDTH 585 0
DWIDTH 19 0
BBX 21 29 -1 0
BITMAP
000000000000007FFE2000
00000000000005FFE30000
0000000000002EFE300000
000000000001DFE3000000
000000000005BE40000000
0000000000000000000000
00004FFFFFFFFFFFFFFF20
00007FFFFFFFFFFFFFFE00
0000477777777778FFFA00
000000000000000AFFC100
000000000000008FFE2000
00000000000005FFF30000
0000000000003EFF500000
000000000002DFF8000000
00000000001CFFA0000000
0000000000AFFC10000000
0000000008FFE200000000
000000005FFF3000000000
00000003EFF50000000000
0000002DFF800000000000
000001CFFA000000000000
00000AFFC1000000000000
00007FFE20000000000000
0005FFF300000000000000
003EFF5000000000000000
02DFF80000000000000000
0CFFE77777777777710000
1FFFFFFFFFFFFFFFF00000
4FFFFFFFFFFFFFFFD00000
ENDCHAR
STARTCHAR zacute
ENCODING 378
SWIDTH 485 0
DWIDTH 16 0
BBX 17 24 -1 0
BITMAP
000000000001CFFA00
00000000000AFFB000
00000000007FFB0000
0000000005FFB10000
0000000009CC100000
000000000000000000
000000000000000000
0005FFFFFFFFFFFF20
0007FFFFFFFFFFFE00
000466666667FFF800
00000000001CFFA000
0000000000BFFB0000
0000000009FFC10000
000000008FFD100000
00000006FFE2000000
0000005FFE30000000
000004FFF400000000
00003EFF6000000000
0002DFF70000000000
001DFF900000000000
00CFFA000000000000
0AFFE6555555551000
1FFFFFFFFFFFFF0000
3FFFFFFFFFFFFC0000
ENDCHAR
STARTCHAR Zdotaccent
ENCODING 379
SWIDTH 585 0
DWIDTH 19 0
BBX 21 29 -1 0
BITMAP
0000000000002400000000
000000000002FFA0000000
000000000005FFD0000000
000000000001CE60000000
0000000000000000000000
0000000000000000000000
00004FFFFFFFFFFFFFFF20
00007FFFFFFFFFFFFFFE00
0000477777777778FFFA00
000000000000000AFFC100
000000000000008FFE2000
00000000000005FFF30000
0000000000003EFF500000
000000000002DFF8000000
00000000001CFFA0000000
0000000000AFFC10000000
0000000008FFE200000000
000000005FFF3000000000
00000003EFF50000000000
0000002DFF800000000000
000001CFFA000000000000
00000AFFC1000000000000
00007FFE20000000000000
0005FFF300000000000000
003EFF5000000000000000
02DFF80000000000000000
0CFFE77777777777710000
1FFFFFFFFFFFFFFFF00000
4FFFFFFFFFFFFFFFD00000
ENDCHAR
STARTCHAR zdotaccent
ENCODING 380
SWIDTH 485 0
DWIDTH 16 0
BBX 17 24 -1 0
BITMAP
000000000043000000
0000000008FF500000
000000000BFF700000
0000000005EC200000
000000000000000000
000000000000000000
000000000000000000
0005FFFFFFFFFFFF20
0007FFFFFFFFFFFE00
000466666667FFF800
00000000001CFFA000
0000000000BFFB0000
0000000009FFC10000
000000008FFD100000
00000006FFE2000000
0000005FFE30000000
000004FFF400000000
00003EFF6000000000
0002DFF70000000000
001DFF900000000000
00CFFA000000000000
0AFFE6555555551000
1FFFFFFFFFFFFF0000
3FFFFFFFFFFFFC0000
ENDCHAR
STARTCHAR Zcaron
ENCODING 381
SWIDTH 585 0
DWIDTH 19 0
BBX 21 29 -1 0
BITMAP
000000000BFA000AED2000
0000000001DF61CFB10000
00000000002EFDF9000000
000000000004FF70000000
0000000000000000000000
0000000000000000000000
00004FFFFFFFFFFFFFFF20
00007FFFFFFFFFFFFFFE00
0000477777777778FFFA00
000000000000000AFFC100
000000000000008FFE2000
00000000000005FFF30000
0000000000003EFF500000
000000000002DFF8000000
00000000001CFFA0000000
0000000000AFFC10000000
0000000008FFE200000000
000000005FFF3000000000
00000003EFF50000000000
0000002DFF800000000000
000001CFFA000000000000
00000AFFC1000000000000
00007FFE20000000000000
0005FFF300000000000000
003EFF5000000000000000
02DFF80000000000000000
0CFFE77777777777710000
1FFFFFFFFFFFFFFFF00000
4FFFFFFFFFFFFFFFD00000
ENDCHAR
STARTCHAR zcaron
ENCODING 382
SWIDTH 485 0
DWIDTH 16 0
BBX 17 24 -1 0
BITMAP
0000003EF4003DF900
00000005FE24EF7000
000000007FDFE50000
0000000009FE300000
000000000000000000
000000000000000000
000000000000000000
0005FFFFFFFFFFFF20
0007FFFFFFFFFFFE00
000466666667FFF800
00000000001CFFA000
0000000000BFFB0000
0000000009FFC10000
000000008FFD100000
00000006FFE2000000
0000005FFE30000000
000004FFF400000000
00003EFF6000000000
0002DFF70000000000
001DFF900000000000
00CFFA000000000000
0AFFE6555555551000
1FFFFFFFFFFFFF0000
3FFFFFFFFFFFFC0000
ENDCHAR
STARTCHAR longs
ENCODING 383
SWIDTH 245 0
DWIDTH 8 0
BBX 13 24 0 0
BITMAP
00000018DFEC10
000003EFFFFD00
00001DFFD76600
00007FFB000000
0000CFF3000000
0000FFD0000000
0003FFA0000000
0005FF70000000
0008FF50000000
000BFF20000000
000DFE00000000
001FFC00000000
003FF900000000
006FF700000000
009FF400000000
00BFF100000000
00EFE000000000
01FFB000000000
04FF9000000000
06FF6000000000
09FF3000000000
0CFF1000000000
0EFD0000000000
2FFA0000000000
ENDCHAR
STARTCHAR uni018F
ENCODING 399
SWIDTH 675 0
DWIDTH 22 0
BBX 20 23 1 0
BITMAP
0000015ACEFEDA500000
00003EFFFFFFFFFC2000
00002FFEB988BFFFE300
00000940000002BFFD00
000000000000000CFF60
0000000000000003FFC0
0000000000000000CFF2
00000000000000009FF4
00000000000000008FF5
00000000000000008FF5
0000000000000000AFF4
1FFFFFFFFFFFEEEEFFF2
4FFFFFFFFFFFFFFFFFF0
6FFA555555555556FFC0
7FF6000000000007FF80
7FF500000000000DFF20
5FF700000000006FFB00
2FFA0000000001EFF300
0CFF300000001CFF8000
05FFD3000003DFFB0000
009FFFB878CFFFB10000
0008FFFFFFFFE7000000
000038CEFEB710000000
ENDCHAR
STARTCHAR florin
ENCODING 402
SWIDTH 334 0
DWIDTH 11 0
BBX 16 31 -3 -7
BITMAP
00000000004BEFD8
0000000008FFFFF8
000000005FFFB883
00000000CFF60000
00000002FFD00000
00000005FF800000
00000007FF600000
00003FFFFFFFF500
00005FFFFFFFF200
0000244EFE444000
0000001FFC000000
0000003FFA000000
0000005FF7000000
0000008FF5000000
000000AFF3000000
000000CFF1000000
000000EFD0000000
000002FFB0000000
000004FF90000000
000006FF60000000
000009FF40000000
00000BFF20000000
00000DFF00000000
00000FFC00000000
00003FFA00000000
00005FF800000000
00009FF500000000
0001EFF100000000
477DFF8000000000
AFFFFB0000000000
9EEC700000000000
ENDCHAR
STARTCHAR Ohorn
ENCODING 416
SWIDTH 670 0
DWIDTH 21 0
BBX 24 26 1 0
BITMAP
000000000000000000000441
000000000000000000004FF4
000000000000000000009FF1
000000028CEFEC820002FFB0
0000019FFFFFFFFF815EFF30
00002DFFFDA9BFFFFFFFE500
0001DFFC300002CFFFE92000
000AFFB10000001EFF800000
003FFD1000000007FFB00000
00AFF50000000003FFD00000
02FFC00000000001FFE00000
07FF700000000000FFD00000
0BFF300000000001FFD00000
0EFF000000000002FFB00000
1FFC000000000004FF900000
3FFA000000000006FF700000
4FF9000000000009FF300000
5FF900000000000DFE000000
3FFA00000000003FFA000000
1FFC0000000000BFF3000000
0DFF1000000005FFB0000000
08FF900000003EFF30000000
02EFF7000006EFF600000000
006FFFD98AEFFF7000000000
0005FFFFFFFFE50000000000
000028CEFEB6100000000000
ENDCHAR
STARTCHAR ohorn
ENCODING 417
SWIDTH 559 0
DWIDTH 18 0
BBX 19 19 1 0
BITMAP
00000000000000004BA0
00000000000000008FC0
0000049DEEC82000DF70
0001AFFFFFFFF63BFE10
001DFFE868CFFFFFE300
00BFFA10000AFFF71000
06FFB0000001EFF20000
0DFF20000000BFF40000
3FFA000000008FF50000
7FF6000000009FF50000
AFF300000000AFF30000
BFF100000000DFF10000
BFF100000002FFC00000
9FF300000008FF600000
6FF80000003FFD000000
1EFE300003EFF5000000
06FFE966AFFF70000000
007FFFFFFFE600000000
00039DFEC71000000000
ENDCHAR
STARTCHAR Uhorn
ENCODING 431
SWIDTH 679 0
DWIDTH 22 0
BBX 25 25 2 0
BITMAP
0000000000000000000000AA30
0000000000000000000003FF30
007FF70000000006FF8008FE00
009FF40000000008FF502EF800
00CFF2000000000BFF56EFD100
00EFE0000000000EFFFFFD3000
02FFC0000000001FFFFC710000
05FF90000000004FFB00000000
07FF60000000006FF800000000
0AFF40000000009FF500000000
0CFF1000000000BFF300000000
0FFE0000000000EFF000000000
2FFB0000000002FFC000000000
5FF90000000004FFA000000000
7FF60000000007FF7000000000
AFF40000000009FF5000000000
DFF1000000000CFF2000000000
FFE0000000000EFE0000000000
FFD0000000003FFA0000000000
EFF000000000AFF60000000000
BFF500000004FFD00000000000
5FFE3000006EFF400000000000
0BFFFB879DFFF6000000000000
01AFFFFFFFFD40000000000000
0004ADFEDA5000000000000000
ENDCHAR
STARTCHAR uhorn
ENCODING 432
SWIDTH 604 0
DWIDTH 19 0
BBX 21 19 1 0
BITMAP
0000000000000000006710
000000000000000001FF10
008FF40000006FF605FC00
00BFF20000009FF46EF600
00DFE0000000CFFFFF9000
01FFC0000000EFEA830000
03FF90000002FFB0000000
06FF70000005FF90000000
08FF40000007FF60000000
0BFF2000000AFF30000000
0DFE0000000DFF10000000
1FFC0000000FFD00000000
3FF90000003FFA00000000
5FF80000005FF800000000
4FF9000000BFF500000000
2FFE10001BFFF200000000
0CFFD87AEFFFF000000000
04FFFFFFFCEFC000000000
003AEFEB61FFA000000000
ENDCHAR
STARTCHAR uni01F0
ENCODING 496
SWIDTH 249 0
DWIDTH 8 0
BBX 15 30 -4 -7
BITMAP
000002EF6002CFA0
0000003FF33EF800
00000005FDEF6000
000000008FE40000
0000000000000000
0000000000000000
00000003FFA00000
00000005FF700000
00000008FF500000
0000000AFF200000
0000000DFF000000
0000001FFC000000
0000003FFA000000
0000005FF7000000
0000008FF5000000
000000BFF2000000
000000DFE0000000
000001FFC0000000
000003FFA0000000
000006FF70000000
000008FF50000000
00000BFF20000000
00000DFE00000000
00001FFC00000000
00004FF900000000
00008FF600000000
0001EFF200000000
477DFF9000000000
9FFFFC1000000000
9EFC700000000000
ENDCHAR
STARTCHAR Aringacute
ENCODING 506
SWIDTH 637 0
DWIDTH 20 0
BBX 21 31 -2 0
BITMAP
00000000000000003EFB10
0000000000000002EF8000
000000000000001DE50000
0000000000000000000000
00000000000008ED500000
0000000000007F66F20000
000000000000B900F40000
0000000000009C4AE10000
0000000000004FFF400000
000000000000BFFE000000
000000000004FFFF200000
00000000000CFFFF500000
00000000005FF8FF800000
0000000000DFD1CFB00000
0000000006FF609FE00000
000000001DFC007FF20000
000000007FF4004FF50000
00000001EFB0001FF80000
00000008FF30000DFB0000
0000002FFA00000BFE0000
0000009FF2000008FF2000
000003FF80000005FF5000
00000BFFFFFFFFFFFF8000
00004FFFFFFFFFFFFFB000
0000CFE777777777DFE000
0005FF70000000009FF100
000DFE10000000007FF400
006FF800000000004FF700
00DFF100000000002FFA00
07FF9000000000000EFD00
1EFF2000000000000CFF10
ENDCHAR
STARTCHAR aringacute
ENCODING 507
SWIDTH 532 0
DWIDTH 17 0
BBX 16 26 0 0
BITMAP
0000000000005FF9
000000000004FE50
00000000003ED300
0000000000000000
000000001AEC3000
00000000AD59D000
00000000E603F100
00000000CA4CC000
000000002CEB2000
0000016BEFEB5000
00004EFFFFFFF900
0004FFFB769FFF60
001EFF500005FFC0
004FFA000000DFF0
000000000000DFF0
000000000000EFD0
000038BEFFFFFFA0
001AFFFFFFFFFF80
01DFFC631117FF50
09FF80000009FF30
0EFE0000000CFF00
1FFD0000004FFD00
0FFF400006FFFA00
0AFFFA89EFFFF900
01DFFFFFFD7FF900
0018DFEC703FFA00
ENDCHAR
STARTCHAR AEacute
ENCODING 508
SWIDTH 911 0
DWIDTH 29 0
BBX 32 29 -2 0
BITMAP
000000000000000000008FFD20000000
00000000000000000006FFD200000000
0000000000000000003FFE2000000000
000000000000000002EFE30000000000
000000000000000006CE300000000000
00000000000000000000000000000000
00000000000000002EFFFFFFFFFFFFFC
0000000000000000CFFFFFFFFFFFFFF9
0000000000000008FFFFE66666666663
000000000000004FFDFFD00000000000
00000000000002EFF5FFB00000000000
0000000000000CFF73FF900000000000
0000000000008FFB05FF700000000000
000000000004FFE207FF500000000000
00000000002EFF5009FF300000000000
0000000000CFFA000BFF100000000000
0000000008FFD1000DFFFFFFFFFFD000
000000005FFF40000FFFFFFFFFFFB000
00000002EFF800002FFC555555553000
0000000CFFC000004FF8000000000000
0000008FFE2000006FF6000000000000
000005FFFFFFFFFFFFF4000000000000
00002EFFFFFFFFFFFFF2000000000000
0000CFFEBBBBBBBBEFF0000000000000
0008FFF300000000EFD0000000000000
005FFF6000000001FFB0000000000000
02EFF90000000003FFB5555555555100
0CFFC00000000005FFFFFFFFFFFFF200
8FFE200000000007FFFFFFFFFFFFE000
ENDCHAR
STARTCHAR aeacute
ENCODING 509
SWIDTH 823 0
DWIDTH 26 0
BBX 26 24 0 0
BITMAP
00000000000000009FFD100000
0000000000000007FFD1000000
000000000000004FFD20000000
00000000000002EFE200000000
00000000000006CD2000000000
00000000000000000000000000
00000000000000000000000000
0000049DEFD9300049DEDA3000
0001BFFFFFFFF51AFFFFFFF700
000CFFFA77CFFECFFC768EFF50
006FFD20000BFFFF700002EFD0
00AFF4000006FFF80000008FF2
000020000005FFE10000007FF4
000000000006FF700000007FF4
00027BDEFFFFFFFFFFFFFFFFF3
008FFFFFFFFFFFFFFFFFFFFFF1
08FFFB64333EFF444444444440
2FFF4000002FFE000000000000
6FF80000004FFF100000000000
8FF50000008FFF600000000000
7FF9000018FFFFE2000004A100
3FFFA669EFFCAFFF9668CFF600
08FFFFFFFF910AFFFFFFFFE400
005BEFEC8200004ADFFDA61000
ENDCHAR
STARTCHAR Oslashacute
ENCODING 510
SWIDTH 671 0
DWIDTH 22 0
BBX 23 32 0 -2
BITMAP
000000000000000CFFB00000
000000000000009FFB100000
00000000000006FFC1000000
0000000000004FFC10000000
0000000000008CC100000000
000000000000000000000000
000000000000000000019920
0000000016BDFEC8200CF800
00000006EFFFFFFFF79FA000
000000AFFFDA9ADFFFFC1000
000009FFE5000006FFF50000
00006FFD20000001DFF90000
0001EFF30000000BFFFD0000
0007FF800000008FBCFF1000
000DFF10000005FD1BFF2000
004FFB0000003EF30AFF2000
007FF7000001DF600CFF2000
00BFF300000BF9000DFF0000
00DFF100008FC0000FFD0000
00FFE00005FE20003FFB0000
01FFC0002EF400006FF80000
02FFB001DF700000AFF40000
01FFB00AFA000001FFE00000
00FFD07FC1000008FF800000
00CFF5FE2000002EFE100000
007FFFF4000001CFF7000000
002FFFB000004DFFA0000000
000BFFFDA89DFFFB10000000
005FEFFFFFFFFF7000000000
03FE328CEFEB710000000000
2DF500000000000000000000
121000000000000000000000
ENDCHAR
STARTCHAR oslashacute
ENCODING 511
SWIDTH 554 0
DWIDTH 18 0
BBX 16 26 1 -2
BITMAP
00000000008FFD20
0000000005FFE200
000000003EFE3000
00000001DFE30000
00000005BE300000
0000000000000694
0000000000003FD1
000004ADEEC7DF30
0001BFFFFFFFF900
001DFFD866BFFE20
00CFF91000CFFF90
07FFA00008F8DFE0
0EFE10003FD19FF2
4FF90000DF308FF3
8FF40008F8009FF3
BFF1004FC000AFF2
CFE001DF3000DFE0
DFE009F70003FFB0
CFE04FC0000AFF50
9FF4DF20004FFC00
4FFEF70004EFF300
0BFFF756BFFF6000
02FFFFFFFFE40000
08FABEFEB7100000
4FC0000000000000
9B20000000000000
ENDCHAR
STARTCHAR uni0218
ENCODING 536
SWIDTH 580 0
DWIDTH 19 0
BBX 19 30 0 -7
BITMAP
000000038CEFDB500000
000002AFFFFFFFFD3000
00002DFFFB879DFFE200
0000CFFB2000009FFB00
0005FFC00000000DFF20
0009FF6000000009FF50
000BFF3000000007EE60
000AFF60000000000000
0006FFE3000000000000
0000CFFFA40000000000
00001CFFFFD820000000
0000007EFFFFF9100000
000000016BFFFFD20000
000000000028EFFC0000
0000000000003EFF5000
00000000000007FF9000
4EE90000000005FFA000
3FFC0000000007FF7000
0EFF200000001DFF4000
08FFD2000002CFFB0000
00BFFFB878BFFFD20000
0019FFFFFFFFFA100000
000038CEFEC830000000
00000000000000000000
000000DFD00000000000
000001FFA00000000000
000006FF600000000000
00000DFD000000000000
00007FF4000000000000
00002B50000000000000
ENDCHAR
STARTCHAR uni0219
ENCODING 537
SWIDTH 504 0
DWIDTH 16 0
BBX 15 25 0 -8
BITMAP
0000039DEED82000
00009FFFFFFFE400
0009FFE977CFFE20
003FFD200009FF80
007FF6000002FFB0
006FF60000002220
003FFE7100000000
0007FFFFC8200000
00004CFFFFFA1000
00000026BFFFD100
0000000001BFF800
15530000002FFB00
2FFC0000003FFA00
0DFF500001BFF600
06FFFA768EFFC000
007FFFFFFFFB1000
00039DFEDA500000
0000000000000000
0000000000000000
00000BFF00000000
00000EFC00000000
00004FF800000000
0000BFF100000000
0005FF6000000000
0001A70000000000
ENDCHAR
STARTCHAR uni021A
ENCODING 538
SWIDTH 583 0
DWIDTH 19 0
BBX 19 30 2 -7
BITMAP
1FFFFFFFFFFFFFFFFF10
3FFFFFFFFFFFFFFFFD00
2777777AFFC777777500
00000007FF7000000000
0000000AFF4000000000
0000000CFF2000000000
0000000FFE0000000000
0000002FFB0000000000
0000005FF90000000000
0000008FF60000000000
000000AFF40000000000
000000DFF10000000000
000000FFE00000000000
000003FFB00000000000
000005FF800000000000
000008FF600000000000
00000BFF300000000000
00000DFF100000000000
00001FFD000000000000
00003FFB000000000000
00006FF8000000000000
00008FF5000000000000
0000BFF3000000000000
00000000000000000000
0001FF90000000000000
0004FF60000000000000
0009FF20000000000000
002EFB00000000000000
00BFE200000000000000
004C3000000000000000
ENDCHAR
STARTCHAR uni021B
ENCODING 539
SWIDTH 321 0
DWIDTH 10 0
BBX 10 28 1 -7
BITMAP
0000EFD000
0002FFA000
0005FF8000
0007FF5000
AFFFFFFFF3
CFFFFFFFF1
344FFD4430
003FFA0000
005FF70000
008FF50000
00AFF20000
00DFE00000
00FFC00000
03FF900000
05FF700000
08FF400000
0AFF200000
0BFF200000
09FFC87000
03FFFFA000
005DFE7000
0000000000
008FF30000
00BFE00000
01FFB00000
08FF400000
2FF9000000
08A0000000
ENDCHAR
STARTCHAR uni0237
ENCODING 567
SWIDTH 249 0
DWIDTH 8 0
BBX 11 24 -4 -7
BITMAP
00000003FFA0
00000005FF70
00000008FF50
0000000AFF20
0000000DFF00
0000001FFC00
0000003FFA00
0000005FF700
0000008FF500
000000BFF200
000000DFE000
000001FFC000
000003FFA000
000006FF7000
000008FF5000
00000BFF2000
00000DFE0000
00001FFC0000
00004FF90000
00008FF60000
0001EFF20000
477DFF900000
9FFFFC100000
9EFC70000000
ENDCHAR
STARTCHAR uni0259
ENCODING 601
SWIDTH 516 0
DWIDTH 17 0
BBX 15 17 1 0
BITMAP
00016BDFFC810000
004EFFFFFFFE2000
00AFFB867CFFE100
003B2000009FF800
00000000001EFE00
00000000000AFF20
000000000008FF40
000000000008FF40
6FFFFFFFFFFFFF30
9FFFFFFFFFFFFF00
AFF65555556FFC00
AFF10000006FF600
8FF3000002EFE000
4FFA00002DFF5000
0CFFC769EFF80000
02DFFFFFFF600000
0017CEFD92000000
ENDCHAR
STARTCHAR uni02BC
ENCODING 700
SWIDTH 198 0
DWIDTH 6 0
BBX 6 8 2 16
BITMAP
005FF6
008FF4
00BFF1
01EFC0
07FF60
1EFD10
9FF300
2C4000
ENDCHAR
STARTCHAR circumflex
ENCODING 710
SWIDTH 461 0
DWIDTH 15 0
BBX 10 4 4 20
BITMAP
0003CFC100
007FFEFD20
2CFF91DFD2
AFE6003EF8
ENDCHAR
STARTCHAR caron
ENCODING 711
SWIDTH 435 0
DWIDTH 14 0
BBX 10 4 4 20
BITMAP
3EF5002DF9
05FE24EF70
007FDFF500
0009FE3000
ENDCHAR
STARTCHAR uni02C9
ENCODING 713
SWIDTH 449 0
DWIDTH 14 0
BBX 11 3 4 20
BITMAP
DFFFFFFFFF50
FFFFFFFFFF30
444444444400
ENDCHAR
STARTCHAR breve
ENCODING 728
SWIDTH 418 0
DWIDTH 13 0
BBX 10 4 4 19
BITMAP
CF70004FF1
9FC102CFB0
2EFFDFFE30
02AEFE9200
ENDCHAR
STARTCHAR dotaccent
ENCODING 729
SWIDTH 240 0
DWIDTH 8 0
BBX 4 4 4 20
BITMAP
0430
8FF5
BFF7
5EC2
ENDCHAR
STARTCHAR ring
ENCODING 730
SWIDTH 329 0
DWIDTH 11 0
BBX 7 7 4 19
BITMAP
00363000
1BFFF900
8F616F40
DA000F80
DA004F60
8F88ED10
08DEA200
ENDCHAR
STARTCHAR ogonek
ENCODING 731
SWIDTH 267 0
DWIDTH 9 0
BBX 7 8 -2 -7
BITMAP
0002AA10
004EFA10
04FF8000
0DFB0000
3FF50000
3FF83500
0DFFFC00
03CED600
ENDCHAR
STARTCHAR tilde
ENCODING 732
SWIDTH 462 0
DWIDTH 15 0
BBX 12 5 3 20
BITMAP
000320000163
02CFF91007F8
0BFFFFC55EF4
3FE418FFFFB0
6E80004DEA10
ENDCHAR
STARTCHAR hungarumlaut
ENCODING 733
SWIDTH 366 0
DWIDTH 12 0
BBX 12 5 3 19
BITMAP
001DFF41CFF7
00AFF61CFF70
07FF91CFF800
3FFB1BFF8000
7CD14BE80000
ENDCHAR
STARTCHAR uni02F3
ENCODING 755
SWIDTH 290 0
DWIDTH 9 0
BBX 6 6 -1 -7
BITMAP
03CEA1
1EB5D8
4F108C
3F32D9
09FFC2
002300
ENDCHAR
STARTCHAR gravecomb
ENCODING 768
SWIDTH 0 0
DWIDTH 0 0
BBX 6 5 -11 19
BITMAP
1EFF20
06FF80
00CFE1
003FF8
0008D8
ENDCHAR
STARTCHAR acutecomb
ENCODING 769
SWIDTH 0 0
DWIDTH 0 0
BBX 8 5 -9 19
BITMAP
0002EFF8
001CFF90
00AFF900
08FF9000
1ADA0000
ENDCHAR
STARTCHAR tildecomb
ENCODING 771
SWIDTH 0 0
DWIDTH 0 0
BBX 12 5 -12 20
BITMAP
000310000362
04EFE6000BF4
1EFFFFA47FE1
7FC22BFFFF70
AF40007EE800
ENDCHAR
STARTCHAR hookabovecomb
ENCODING 777
SWIDTH 0 0
DWIDTH 0 0
BBX 6 6 -9 19
BITMAP
07DB50
06BFF7
0007FB
047DF8
0EFD80
1FF100
ENDCHAR
STARTCHAR uni030F
ENCODING 783
SWIDTH 0 0
DWIDTH 0 0
BBX 11 4 -13 20
BITMAP
3EFF82EFF400
03EFF64FFD00
003EFF48FF70
0003EC90BC90
ENDCHAR
STARTCHAR dotbelowcomb
ENCODING 803
SWIDTH 0 0
DWIDTH 0 0
BBX 4 4 -13 -6
BITMAP
7EA0
FFF3
DFE1
1510
ENDCHAR
STARTCHAR tonos
ENCODING 900
SWIDTH 253 0
DWIDTH 8 0
BBX 5 5 4 20
BITMAP
00EFB0
05FF30
0BFA00
2FF200
3C9000
ENDCHAR
STARTCHAR dieresistonos
ENCODING 901
SWIDTH 495 0
DWIDTH 16 0
BBX 13 6 3 20
BITMAP
0000001FFC0000
0000007FF40000
014100DFB02300
0DFD02AD25FF70
2FFF100009FFA0
0AE8000003DD30
ENDCHAR
STARTCHAR Alphatonos
ENCODING 902
SWIDTH 637 0
DWIDTH 20 0
BBX 21 25 -2 0
BITMAP
00000000DFC00000000000
00000004FF400000000000
0000000AFB003FFC000000
0000001FF300BFFE000000
0000003BA004FFFF200000
00000000000CFFFF500000
00000000005FF8FF800000
0000000000DFD1CFB00000
0000000006FF609FE00000
000000001DFC007FF20000
000000007FF4004FF50000
00000001EFB0001FF80000
00000008FF30000DFB0000
0000002FFA00000BFE0000
0000009FF2000008FF2000
000003FF80000005FF5000
00000BFFFFFFFFFFFF8000
00004FFFFFFFFFFFFFB000
0000CFE777777777DFE000
0005FF70000000009FF100
000DFE10000000007FF400
006FF800000000004FF700
00DFF100000000002FFA00
07FF9000000000000EFD00
1EFF2000000000000CFF10
ENDCHAR
STARTCHAR anoteleia
ENCODING 903
SWIDTH 258 0
DWIDTH 8 0
BBX 4 4 2 9
BITMAP
1BE8
5FFF
4FFD
0471
ENDCHAR
STARTCHAR Epsilontonos
ENCODING 904
SWIDTH 556 0
DWIDTH 18 0
BBX 21 25 -2 0
BITMAP
00EFB00000000000000000
05FF300000000000000000
0BFA003FFFFFFFFFFFFFA0
2FF2006FFFFFFFFFFFFF70
4C80008FFA777777777730
000000BFF3000000000000
000000EFF1000000000000
000001FFD0000000000000
000004FFA0000000000000
000006FF80000000000000
000009FF50000000000000
00000BFF30000000000000
00000EFFFFFFFFFFF90000
00002FFFFFFFFFFFF60000
00004FFC77777777720000
00007FF800000000000000
00009FF500000000000000
0000CFF200000000000000
0000EFF000000000000000
0002FFC000000000000000
0005FFA000000000000000
0007FF7000000000000000
000AFF9777777777720000
000CFFFFFFFFFFFFF40000
000FFFFFFFFFFFFFF10000
ENDCHAR
STARTCHAR Etatonos
ENCODING 905
SWIDTH 696 0
DWIDTH 22 0
BBX 24 25 -2 0
BITMAP
00BFD1000000000000000000
02FF60000000000000000000
08FD003FFB00000000003FFC
0DF5006FF800000000005FF9
2BB0008FF600000000008FF6
000000BFF30000000000AFF4
000000EFF10000000000DFF1
000001FFD00000000001FFE0
000004FFB00000000003FFB0
000006FF800000000006FF90
000009FF500000000008FF60
00000BFF30000000000BFF30
00000EFFFFFFFFFFFFFFFF10
00002FFFFFFFFFFFFFFFFD00
00004FFC77777777779FFB00
00007FF800000000006FF800
00009FF500000000008FF600
0000CFF20000000000BFF300
0000EFF00000000000EFF000
0002FFC00000000001FFD000
0005FFA00000000004FFA000
0007FF700000000006FF8000
000AFF400000000009FF5000
000CFF20000000000CFF2000
000FFE00000000000EFF0000
ENDCHAR
STARTCHAR Iotatonos
ENCODING 906
SWIDTH 268 0
DWIDTH 9 0
BBX 10 25 -2 0
BITMAP
00AFE10000
01FF700000
06FE100FFE
0CF6002FFB
1AC0005FF9
0000008FF6
000000AFF4
000000DFF1
000000FFE0
000003FFB0
000006FF80
000008FF60
00000BFF30
00000DFF10
00001FFD00
00003FFA00
00006FF800
00009FF500
0000BFF300
0000EFF000
0001FFD000
0004FFA000
0006FF7000
0009FF5000
000CFF2000
ENDCHAR
STARTCHAR Omicrontonos
ENCODING 908
SWIDTH 681 0
DWIDTH 22 0
BBX 20 25 1 0
BITMAP
02FF9000000000000000
07FE1000000000000000
0DF700005ADEED930000
4FE1003DFFFFFFFF8000
5C6005FFFEB99DFFF800
00004FFF8100005FFF30
0001EFF500000006FFB0
000AFF7000000000EFF1
002FFD0000000000AFF4
008FF600000000007FF6
00DFF100000000007FF7
02FFC000000000007FF6
05FF8000000000008FF5
08FF600000000000AFF3
0AFF400000000000DFF1
0BFF300000000001FFD0
0BFF300000000005FF90
0AFF30000000000AFF40
08FF60000000002FFD00
04FFA000000000BFF600
00EFF300000008FFC000
007FFD300002AFFE2000
000CFFFB89BFFFE30000
0001BFFFFFFFFB200000
000004ADFED930000000
ENDCHAR
STARTCHAR Upsilontonos
ENCODING 910
SWIDTH 636 0
DWIDTH 20 0
BBX 25 25 -2 0
BITMAP
04FF6000000000000000000000
0AFD0000000000000000000000
1FF500AFF800000000007FFE10
7FC0004FFD0000000003FFF400
7D40000EFF300000000CFF9000
00000009FF800000008FFD1000
00000003FFC0000003FFF30000
00000000DFF200000CFF700000
000000007FF700008FFC000000
000000002FFC0003FFE2000000
000000000CFF200CFF60000000
0000000006FF708FFA00000000
0000000001FFC3FFE100000000
0000000000BFFDFF4000000000
00000000005FFFF90000000000
00000000001EFFD10000000000
00000000000CFF400000000000
00000000000EFF000000000000
00000000002FFC000000000000
00000000004FFA000000000000
00000000007FF7000000000000
0000000000AFF4000000000000
0000000000CFF2000000000000
0000000000FFE0000000000000
0000000002FFC0000000000000
ENDCHAR
STARTCHAR Omegatonos
ENCODING 911
SWIDTH 659 0
DWIDTH 21 0
BBX 20 25 0 0
BITMAP
001FF900000000000000
007FF200000000000000
00DF800028CEFDA40000
03FE1007FFFFFFFFB100
05C700BFFFB879EFFB00
00000AFFD300001CFF70
00005FFD10000002FFD0
0000DFF300000000AFF4
0006FF90000000007FF7
000BFF30000000005FF9
001FFE00000000005FF9
004FFA00000000006FF8
007FF800000000008FF7
009FF60000000000AFF4
00AFF40000000000DFF1
00BFF30000000001FFC0
00AFF20000000005FF80
009FF3000000000AFF20
006FF5000000002FF900
002FF800000000AFE200
000CFE10000007FF5000
0004FFA000018FF60000
1777EFFD308EFFB67400
4FFFFFFF30EFFFFFF700
7FFFFFFF01FFFFFFF400
ENDCHAR
STARTCHAR iotadieresistonos
ENCODING 912
SWIDTH 318 0
DWIDTH 10 0
BBX 13 26 0 0
BITMAP
0000005FF80000
000000CFE10000
024003FF604200
3FF904BC09FF30
7FFC00000DFF50
2DE5000007EB10
00000000000000
00000000000000
00000000000000
0000BFF2000000
0000DFE0000000
0001FFB0000000
0003FF90000000
0006FF60000000
0008FF40000000
000BFF10000000
000DFE00000000
001FFB00000000
003FF900000000
006FF600000000
008FF400000000
00BFF100000000
00BFF200000000
009FFC76000000
004FFFF9000000
0005DFE7000000
ENDCHAR
STARTCHAR Alpha
ENCODING 913
SWIDTH 637 0
DWIDTH 20 0
BBX 21 23 -2 0
BITMAP
0000000000003FFC000000
000000000000BFFE000000
000000000004FFFF200000
00000000000CFFFF500000
00000000005FF8FF800000
0000000000DFD1CFB00000
0000000006FF609FE00000
000000001DFC007FF20000
000000007FF4004FF50000
00000001EFB0001FF80000
00000008FF30000DFB0000
0000002FFA00000BFE0000
0000009FF2000008FF2000
000003FF80000005FF5000
00000BFFFFFFFFFFFF8000
00004FFFFFFFFFFFFFB000
0000CFE777777777DFE000
0005FF70000000009FF100
000DFE10000000007FF400
006FF800000000004FF700
00DFF100000000002FFA00
07FF9000000000000EFD00
1EFF2000000000000CFF10
ENDCHAR
STARTCHAR Beta
ENCODING 914
SWIDTH 608 0
DWIDTH 19 0
BBX 18 23 1 0
BITMAP
0003FFFFFFFEC93000
0006FFFFFFFFFFF900
0008FFA77778CFFF70
000BFF30000005FFE0
000EFF10000000CFF3
001FFD00000000AFF4
004FFB00000000CFF3
006FF800000002FFE0
009FF60000001CFF60
00BFF3000026DFF900
00EFFFFFFFFFFE6000
02FFFFFFFFFFFA2000
04FFC666668CFFD100
07FF800000009FF800
09FF500000000EFE00
0CFF200000000CFF00
0EFF000000000DFF10
2FFC000000002FFD00
5FFA00000000AFF800
7FF700000019FFE200
AFF977777AEFFF5000
CFFFFFFFFFFFD40000
FFFFFFFFEDA5000000
ENDCHAR
STARTCHAR Gamma
ENCODING 915
SWIDTH 544 0
DWIDTH 17 0
BBX 18 23 1 0
BITMAP
0001FFFFFFFFFFFFF7
0004FFFFFFFFFFFFF5
0006FFB77777777771
0009FF500000000000
000CFF200000000000
000EFF000000000000
002FFC000000000000
004FFA000000000000
007FF7000000000000
00AFF5000000000000
00CFF2000000000000
00FFE0000000000000
02FFC0000000000000
05FF90000000000000
07FF70000000000000
0AFF40000000000000
0DFF20000000000000
0FFE00000000000000
3FFC00000000000000
5FF900000000000000
8FF600000000000000
AFF400000000000000
DFF100000000000000
ENDCHAR
STARTCHAR uni0394
ENCODING 916
SWIDTH 688 0
DWIDTH 22 0
BBX 22 23 -2 0
BITMAP
00000000000004FFB00000
0000000000000CFFE00000
0000000000006FFFF20000
000000000001EFFFF60000
000000000009FF6FF90000
00000000002FFC0DFC0000
0000000000BFF30AFF0000
0000000004FFA007FF3000
000000000DFF2004FF6000
000000007FF80001FFA000
00000001EFE10000DFD000
00000009FF600000AFF100
0000003FFD0000007FF400
000000BFF40000004FF700
000005FFB00000002FFA00
00000DFF300000000EFD00
00007FF9000000000BFF10
0002EFE10000000008FF50
000AFF700000000005FF80
003FFD000000000002FFB0
00CFFB777777777777FFE0
06FFFFFFFFFFFFFFFFFFF2
1EFFFFFFFFFFFFFFFFFFF5
ENDCHAR
STARTCHAR Epsilon
ENCODING 917
SWIDTH 556 0
DWIDTH 18 0
BBX 18 23 1 0
BITMAP
0003FFFFFFFFFFFFFA
0006FFFFFFFFFFFFF7
0008FFA77777777773
000BFF300000000000
000EFF100000000000
001FFD000000000000
004FFA000000000000
006FF8000000000000
009FF5000000000000
00BFF3000000000000
00EFFFFFFFFFFF9000
02FFFFFFFFFFFF6000
04FFC7777777772000
07FF80000000000000
09FF50000000000000
0CFF20000000000000
0EFF00000000000000
2FFC00000000000000
5FFA00000000000000
7FF700000000000000
AFF977777777772000
CFFFFFFFFFFFFF4000
FFFFFFFFFFFFFF1000
ENDCHAR
STARTCHAR Zeta
ENCODING 918
SWIDTH 585 0
DWIDTH 19 0
BBX 21 23 -1 0
BITMAP
00004FFFFFFFFFFFFFFF20
00007FFFFFFFFFFFFFFE00
0000477777777778FFFA00
000000000000000AFFC100
000000000000008FFE2000
00000000000005FFF30000
0000000000003EFF500000
000000000002DFF8000000
00000000001CFFA0000000
0000000000AFFC10000000
0000000008FFE200000000
000000005FFF3000000000
00000003EFF50000000000
0000002DFF800000000000
000001CFFA000000000000
00000AFFC1000000000000
00007FFE20000000000000
0005FFF300000000000000
003EFF5000000000000000
02DFF80000000000000000
0CFFE77777777777710000
1FFFFFFFFFFFFFFFF00000
4FFFFFFFFFFFFFFFD00000
ENDCHAR
STARTCHAR Eta
ENCODING 919
SWIDTH 696 0
DWIDTH 22 0
BBX 21 23 1 0
BITMAP
0003FFB00000000003FFC0
0006FF800000000005FF90
0008FF600000000008FF60
000BFF30000000000AFF40
000EFF10000000000DFF10
001FFD00000000001FFE00
004FFB00000000003FFB00
006FF800000000006FF900
009FF500000000008FF600
00BFF30000000000BFF300
00EFFFFFFFFFFFFFFFF100
02FFFFFFFFFFFFFFFFD000
04FFC77777777779FFB000
07FF800000000006FF8000
09FF500000000008FF6000
0CFF20000000000BFF3000
0EFF00000000000EFF0000
2FFC00000000001FFD0000
5FFA00000000004FFA0000
7FF700000000006FF80000
AFF400000000009FF50000
CFF20000000000CFF20000
FFE00000000000EFF00000
ENDCHAR
STARTCHAR Theta
ENCODING 920
SWIDTH 664 0
DWIDTH 21 0
BBX 19 23 1 0
BITMAP
000000028CEFEB600000
0000019FFFFFFFFD2000
00001CFFFDA9BFFFE100
0001CFFC300002CFFA00
0009FFB10000001EFF20
003FFD1000000007FF70
00BFF50000000003FFA0
02FFD00000000001FFC0
07FF800000000000FFD0
0AFF300000000001FFD0
0EFF00CFFFFFFF12FFC0
1FFD00EFFFFFFD04FFA0
3FFB006666666406FF80
4FFA000000000009FF50
4FF900000000000DFF10
3FFA00000000004FFB00
1FFC0000000000BFF500
0DFF2000000004FFD000
08FF900000003EFF4000
01EFF7000006EFF80000
005FFFD99AEFFF800000
0006EFFFFFFFE5000000
000028CEFEB610000000
ENDCHAR
STARTCHAR Iota
ENCODING 921
SWIDTH 268 0
DWIDTH 9 0
BBX 7 23 1 0
BITMAP
0000FFE0
0002FFB0
0005FF90
0008FF60
000AFF40
000DFF10
000FFE00
003FFB00
006FF800
008FF600
00BFF300
00DFF100
01FFD000
03FFA000
06FF8000
09FF5000
0BFF3000
0EFF0000
1FFD0000
4FFA0000
6FF70000
9FF50000
CFF20000
ENDCHAR
STARTCHAR Kappa
ENCODING 922
SWIDTH 612 0
DWIDTH 20 0
BBX 20 23 1 0
BITMAP
0003FFB000000002DFFB
0006FF800000003EFFA0
0008FF60000003EFFA00
000BFF3000003EFFA000
000EFF100004EFF90000
001FFD00004EFF900000
004FFA0004FFF9000000
006FF8005FFF80000000
009FF505FFF800000000
00BFF36FFF7000000000
00EFF6FFFD0000000000
02FFFFFFFF5000000000
04FFFFFAFFD000000000
07FFFE40DFF700000000
09FFE3004FFE10000000
0CFF30000BFF90000000
0EFE000003FFF2000000
2FFC0000009FFA000000
5FF90000001EFF400000
7FF700000007FFC00000
AFF400000001DFF50000
CFF2000000005FFD0000
FFE0000000000CFF7000
ENDCHAR
STARTCHAR Lambda
ENCODING 923
SWIDTH 640 0
DWIDTH 21 0
BBX 19 23 -1 0
BITMAP
000000000003FFB00000
00000000000BFFE00000
00000000004FFFF20000
0000000000CFFFF40000
0000000004FFFFF70000
000000000CFF7FFA0000
000000005FFB0FFC0000
00000000DFF40DFF0000
00000006FFB00AFF3000
0000000DFF3008FF5000
0000006FFB0005FF8000
000001EFF30003FFB000
000007FFA00000FFD000
00001EFF300000DFF100
00008FFA000000AFF400
0001EFF30000008FF600
0008FFA00000005FF900
002FFF200000003FFC00
009FF9000000000FFE00
02FFF2000000000DFF20
0AFF90000000000AFF50
2FFF200000000008FF70
AFF9000000000005FFA0
ENDCHAR
STARTCHAR Mu
ENCODING 924
SWIDTH 851 0
DWIDTH 27 0
BBX 26 23 1 0
BITMAP
0003FFFA00000000000004FFFC
0006FFFD0000000000000CFFF9
0008FFFF2000000000006FFFF6
000BFFFF500000000001EFFFF4
000EFEFF800000000008FFFFF1
001FF9EFB0000000002EFDCFE0
004FF7BFE0000000009FF6EFB0
006FF58FF300000003FFC3FF90
009FF35FF60000000BFF46FF60
00BFF11FF90000004FFA09FF30
00EFE00DFC000000DFF20CFF10
02FFB00AFF100006FF800EFD00
04FF9007FF40001EFE103FFB00
07FF7003FF70008FF6006FF800
09FF5000FFA002EFD0008FF600
0CFF2000CFD00AFF5000BFF300
0EFF00009FF13FFB0000EFF000
2FFC00005FF4BFF30001FFD000
5FFA00002FFCFF900004FFA000
7FF700000EFFFE200006FF8000
AFF400000BFFF7000009FF5000
CFF2000007FFD100000BFF2000
FFE0000004FF6000000EFF0000
ENDCHAR
STARTCHAR Nu
ENCODING 925
SWIDTH 696 0
DWIDTH 22 0
BBX 21 23 1 0
BITMAP
0003FFE00000000002FFC0
0006FFF60000000005FF90
0008FFFD0000000007FF60
000BFFFF500000000AFF40
000EFFFFB00000000DFF10
001FFDDFF30000000FFE00
004FFB7FFA0000003FFB00
006FF81EFF2000005FF900
009FF508FF9000008FF600
00BFF302FFE10000AFF300
00EFF0009FF70000DFF100
02FFD0003FFE0001FFD000
04FFA0000BFF6003FFB000
07FF800004FFD006FF8000
09FF500000CFF508FF6000
0CFF2000005FFB0BFF3000
0EFF0000000DFF3EFF0000
2FFC00000007FFBFFD0000
5FFA00000001EFFFFA0000
7FF7000000008FFFF80000
AFF5000000002FFFF50000
CFF20000000009FFF20000
FFE00000000003FFF00000
ENDCHAR
STARTCHAR Xi
ENCODING 926
SWIDTH 558 0
DWIDTH 18 0
BBX 18 23 0 0
BITMAP
0000DFFFFFFFFFFFFF
0001FFFFFFFFFFFFFC
000177777777777775
000000000000000000
000000000000000000
000000000000000000
000000000000000000
000000000000000000
000000000000000000
000000000000000000
0005FFFFFFFFFFF200
0008FFFFFFFFFFE000
000477777777776000
000000000000000000
000000000000000000
000000000000000000
000000000000000000
000000000000000000
000000000000000000
000000000000000000
377777777777775000
8FFFFFFFFFFFFFA000
BFFFFFFFFFFFFF7000
ENDCHAR
STARTCHAR Omicron
ENCODING 927
SWIDTH 671 0
DWIDTH 22 0
BBX 20 23 1 0
BITMAP
000000017BEFEC710000
0000006EFFFFFFFE4000
000009FFFDA9AEFFF400
00009FFE5000009FFD00
0005FFD20000000BFF60
001EFF3000000003FFB0
006FF90000000000EFE0
00DFF20000000000CFF1
03FFB00000000000BFF2
07FF700000000000CFF2
0AFF400000000000DFF1
0CFF100000000000FFE0
0EFE000000000002FFB0
0FFD000000000006FF80
1FFD00000000000AFF40
0EFE00000000001EFE00
0CFF10000000007FF800
09FF5000000002EFE200
04FFC00000001CFF7000
00BFFA100004DFFB0000
002EFFEA89CFFFB10000
0003DFFFFFFFF8000000
000016BDFEC720000000
ENDCHAR
STARTCHAR Pi
ENCODING 928
SWIDTH 696 0
DWIDTH 22 0
BBX 21 23 1 0
BITMAP
0001FFFFFFFFFFFFFFFFA0
0004FFFFFFFFFFFFFFFF70
0006FFB7777777777CFF50
0009FF50000000000CFF20
000BFF20000000000EFF00
000EFF00000000002FFC00
002FFC00000000005FFA00
004FFA00000000007FF700
007FF70000000000AFF400
009FF50000000000DFF200
00CFF20000000000FFE000
00EFE00000000003FFC000
02FFC00000000005FF9000
05FF900000000008FF6000
07FF70000000000AFF4000
0AFF40000000000DFF1000
0CFF20000000001FFE0000
0FFE00000000003FFB0000
2FFC00000000006FF90000
5FF900000000008FF60000
8FF60000000000BFF30000
AFF40000000000DFF10000
DFF10000000001FFD00000
ENDCHAR
STARTCHAR Rho
ENCODING 929
SWIDTH 616 0
DWIDTH 20 0
BBX 19 23 1 0
BITMAP
0003FFFFFFFFEB710000
0006FFFFFFFFFFFE5000
0008FFA777779DFFF500
000BFF300000008FFD00
000EFF100000000CFF40
001FFD0000000007FF70
004FFB0000000005FF80
006FF80000000007FF70
009FF6000000000BFF40
00BFF3000000003FFE10
00EFF100000002DFF800
02FFE00000037EFFC100
04FFFFFFFFFFFFFC1000
07FFFFFFFFFFFD600000
09FFA777776520000000
0CFF3000000000000000
0EFF1000000000000000
2FFD0000000000000000
5FFA0000000000000000
7FF70000000000000000
AFF50000000000000000
CFF20000000000000000
FFE00000000000000000
ENDCHAR
STARTCHAR Sigma
ENCODING 931
SWIDTH 558 0
DWIDTH 18 0
BBX 20 23 -1 0
BITMAP
0000BFFFFFFFFFFFFFF1
0000EFFFFFFFFFFFFFD0
0000CFFC777777777750
00003FFF200000000000
000008FFB00000000000
000001DFF50000000000
0000004FFD1000000000
0000000AFF8000000000
00000002EFF200000000
000000007FFB00000000
000000000CFF50000000
0000000008FFB0000000
000000006FFD20000000
00000006FFE200000000
0000005FFE3000000000
000004FFF40000000000
00004FFF500000000000
0003EFF6000000000000
003EFF70000000000000
03EFF900000000000000
1EFFE777777777772000
5FFFFFFFFFFFFFFF3000
8FFFFFFFFFFFFFFF1000
ENDCHAR
STARTCHAR Tau
ENCODING 932
SWIDTH 583 0
DWIDTH 19 0
BBX 19 23 2 0
BITMAP
1FFFFFFFFFFFFFFFFF10
3FFFFFFFFFFFFFFFFD00
2777777AFFC777777500
00000007FF7000000000
0000000AFF4000000000
0000000CFF2000000000
0000000FFE0000000000
0000002FFB0000000000
0000005FF90000000000
0000008FF60000000000
000000AFF40000000000
000000DFF10000000000
000000FFE00000000000
000003FFB00000000000
000005FF800000000000
000008FF600000000000
00000BFF300000000000
00000DFF100000000000
00001FFD000000000000
00003FFB000000000000
00006FF8000000000000
00008FF5000000000000
0000BFF3000000000000
ENDCHAR
STARTCHAR Upsilon
ENCODING 933
SWIDTH 587 0
DWIDTH 19 0
BBX 19 23 2 0
BITMAP
3FFE00000000002EFF60
0DFF4000000000BFFB00
07FF9000000006FFE200
02FFE00000002EFF5000
00CFF4000000BFF90000
006FF9000006FFD10000
001FFE00002EFF400000
000BFF4000BFF8000000
0005FF8006FFC0000000
0001EFD02EFF20000000
0000AFF3BFF600000000
00004FFDFFB000000000
00000EFFFE2000000000
000009FFF50000000000
000005FFA00000000000
000008FF600000000000
00000AFF400000000000
00000DFF100000000000
00001FFE000000000000
00003FFB000000000000
00006FF8000000000000
00008FF6000000000000
0000BFF3000000000000
ENDCHAR
STARTCHAR Phi
ENCODING 934
SWIDTH 699 0
DWIDTH 22 0
BBX 21 23 1 0
BITMAP
00000000001FFE00000000
00000000003FFB00000000
00000000006FF800000000
00000038CEFFFEC9300000
00001AFFFFFFFFFFFA1000
0004EFFEB8EFF9BFFFC000
003EFF8100FFF002CFF800
01EFF60003FFC0002EFF10
08FF900006FF900009FF60
0EFF100009FF700005FF80
3FFB00000BFF400005FF90
6FF800000EFF100006FF80
7FF600002FFD000009FF50
6FF700005FFB00000EFF10
4FFA00007FF800007FFA00
0EFF2000AFF50004FFF200
07FFD300DFF2007FFF5000
00BFFFB8FFF7AEFFF60000
000AFFFFFFFFFFFC300000
000039CEFFFFD940000000
00000006FF900000000000
00000009FF600000000000
0000000CFF300000000000
ENDCHAR
STARTCHAR Chi
ENCODING 935
SWIDTH 612 0
DWIDTH 20 0
BBX 22 23 -1 0
BITMAP
00009FFA0000000005FFF4
00002FFF200000002EFF80
00000AFF90000000CFFB00
000003FFE1000009FFD100
000000BFF700005FFF4000
0000004FFE0002EFF70000
0000000CFF601CFFA00000
00000005FFC09FFD100000
00000000DFF9FFE3000000
000000007FFFFF60000000
000000001EFFF900000000
000000000DFFE100000000
000000009FFFF400000000
00000005FFFFFB00000000
0000003EFF7EFF30000000
000001DFFA09FFA0000000
00000AFFD102FFF2000000
00007FFE3000AFF8000000
0004FFF600003FFE100000
001DFF9000000CFF700000
00BFFC00000005FFE10000
08FFE200000000DFF60000
5FFF50000000006FFD0000
ENDCHAR
STARTCHAR Psi
ENCODING 936
SWIDTH 675 0
DWIDTH 22 0
BBX 21 23 2 0
BITMAP
03FFB00008FF700009FF60
05FF90000AFF40000BFF30
08FF60000DFF20000EFF10
0AFF40001FFE00001FFD00
0DFF10003FFC00004FFB00
0FFE00006FF900006FF800
3FFB00008FF600009FF600
5FF90000BFF40000BFF300
7FF70000DFF10000EFF100
8FF60001FFE00002FFC000
8FF60004FFB00007FF8000
6FF90006FF90001DFF3000
2FFD1009FF60009FFA0000
0CFF900BFF4009FFE20000
03FFFA3EFF26CFFE300000
006FFFFFFFFFFFD3000000
0004CFFFFFFFD700000000
0000039FFC630000000000
0000007FF7000000000000
000000AFF4000000000000
000000DFF1000000000000
000001FFD0000000000000
000004FFA0000000000000
ENDCHAR
STARTCHAR uni03A9
ENCODING 937
SWIDTH 649 0
DWIDTH 21 0
BBX 20 23 0 0
BITMAP
0000000039DEEC920000
0000001AFFFFFFFF7000
000002DFFEA88BFFF700
00001DFFA100004EFF20
0000AFF900000006FF90
0003FFC000000000EFE0
000AFF5000000000BFF2
001FFD0000000000AFF4
005FF90000000000AFF4
009FF60000000000BFF4
00BFF30000000000DFF2
00EFF10000000000FFF0
00FFE00000000002FFC0
01FFD00000000006FF80
00FFD0000000000AFF30
00DFD0000000001EFC00
00BFF0000000006FF500
006FF300000001EFB000
002FF90000000BFE1000
0009FF600002BFE30000
3779FFFB01AFFF967200
9FFFFFFD04FFFFFFF200
BFFFFFFB06FFFFFFF000
ENDCHAR
STARTCHAR Iotadieresis
ENCODING 938
SWIDTH 268 0
DWIDTH 9 0
BBX 12 29 1 0
BITMAP
003300001410
06FF5000DFD0
0AFF8002FFF1
04ED2000AE80
000000000000
000000000000
0000FFE00000
0002FFB00000
0005FF900000
0008FF600000
000AFF400000
000DFF100000
000FFE000000
003FFB000000
006FF8000000
008FF6000000
00BFF3000000
00DFF1000000
01FFD0000000
03FFA0000000
06FF80000000
09FF50000000
0BFF30000000
0EFF00000000
1FFD00000000
4FFA00000000
6FF700000000
9FF500000000
CFF200000000
ENDCHAR
ENDFONT
